<?xml version="1.0" encoding="iso-8859-1"?>
<!-- Uploaded to: SVG Repo, www.svgrepo.com, Generator: SVG Repo Mixer Tools -->
<!DOCTYPE svg PUBLIC "-//W3C//DTD SVG 1.1//EN" "http://www.w3.org/Graphics/SVG/1.1/DTD/svg11.dtd">
<svg xmlns="http://www.w3.org/2000/svg" xmlns:xlink="http://www.w3.org/1999/xlink" version="1.1" id="Layer_1"  width="512" height="512" viewBox="0 0 330 330" xml:space="preserve">
<g>
	<g>
		<path style="fill:#FFDBAA;" d="M215,25h-50h-50c-8.285,0-15,6.716-15,15v65h35h15h15h15h15h35V40C230,31.716,223.285,25,215,25z"/>
		<path style="fill:#FFC86D;" d="M215,25h-50v80h15h15h35V40C230,31.716,223.285,25,215,25z"/>
		<path style="fill:#FFB65B;" d="M265,95h-27.5H230h-35h-30h-30h-27.411H100H90H65c-8.285,0-15,6.716-15,15v55h57.589h7.319H165    h50.092H237.5H280v-55C280,101.716,273.285,95,265,95z"/>
		<path style="fill:#FFA828;" d="M265,95h-27.5H230h-35h-30v70h50.092H237.5H280v-55C280,101.716,273.285,95,265,95z"/>
		<path style="fill:#FFDBAA;" d="M295,155h-15h-31.96h-32.948H165h-50.092H92.5H50H35c-8.285,0-15,6.716-15,15v55h72.5h15.74H165    h56.76h26.28H310v-55C310,161.716,303.285,155,295,155z"/>
		<path style="fill:#FFC86D;" d="M295,155h-15h-31.96h-32.948H165v70h56.76h26.28H310v-55C310,161.716,303.285,155,295,155z"/>
		<path style="fill:#FFB65B;" d="M315,215h-5h-18.68H221.76H165h-56.76H81.705H20h-5c-8.285,0-15,6.716-15,15v60    c0,8.284,6.715,15,15,15h100c-0.951,0-1.891-0.104-2.811-0.28H165h52.811c-0.92,0.176-1.858,0.28-2.811,0.28h100    c8.285,0,15-6.716,15-15v-60C330,221.716,323.285,215,315,215z"/>
		<path style="fill:#FFA828;" d="M315,215h-5h-18.68H221.76H165v89.72h52.811c-0.92,0.176-1.858,0.28-2.811,0.28h100    c8.285,0,15-6.716,15-15v-60C330,221.716,323.285,215,315,215z"/>
	</g>
	<g>
		<path style="fill:#6D3802;" d="M165,75c-8.285,0-15,6.716-15,15v15h15h15V90C180,81.716,173.285,75,165,75z"/>
		<path style="fill:#9B4C00;" d="M165,75c-8.285,0-15,6.716-15,15v15h15V75z"/>
		<g>
			<path style="fill:#FF8600;" d="M229.908,288.345L225.092,245l-3.332-30l-3.334-30l-3.334-30l-3.332-30l-1.852-16.655     C209.064,100.747,202.645,95,195,95h-15h-15h-15h-15c-7.643,0-14.064,5.747-14.908,13.345L118.24,125l-3.332,30l-3.334,30     l-3.334,30l-3.332,30l-4.816,43.345c-0.471,4.239,0.886,8.479,3.73,11.66c2.847,3.179,6.91,4.995,11.178,4.995h50h50     c4.268,0,8.331-1.816,11.177-4.995C229.022,296.824,230.379,292.584,229.908,288.345z"/>
			<path style="fill:#E07200;" d="M180,95h15c7.645,0,14.064,5.747,14.908,13.345L211.76,125l3.332,30l3.334,30l3.334,30l3.332,30     l4.816,43.345c0.471,4.239-0.886,8.479-3.731,11.66C223.331,303.184,219.268,305,215,305h-50V95H180z"/>
		</g>
	</g>
</g>















</svg>