<?xml version="1.0" standalone="no"?>
<!DOCTYPE svg PUBLIC "-//W3C//DTD SVG 20010904//EN"
 "http://www.w3.org/TR/2001/REC-SVG-20010904/DTD/svg10.dtd">
<svg version="1.0" xmlns="http://www.w3.org/2000/svg"
 width="1280.000000pt" height="825.000000pt" viewBox="0 0 1280.000000 825.000000"
 preserveAspectRatio="xMidYMid meet">
<g transform="translate(0.000000,825.000000) scale(0.100000,-0.100000)"
fill="#000000" stroke="none">
<path d="M7475 8240 c-55 -5 -208 -13 -340 -20 -749 -35 -1475 -124 -2505
-306 -328 -57 -569 -106 -745 -150 -170 -43 -469 -141 -571 -188 l-74 -35 0
-108 c0 -245 -72 -350 -248 -361 -70 -5 -77 -7 -105 -38 -32 -37 -91 -58 -192
-69 -33 -4 -93 -13 -132 -21 -88 -18 -87 -18 -206 89 -134 119 -212 147 -245
85 -33 -60 -49 -71 -101 -64 -48 6 -99 -4 -205 -43 -32 -12 -88 -25 -124 -28
-66 -6 -69 -8 -312 -172 -404 -272 -508 -358 -764 -636 -211 -228 -328 -390
-421 -580 -67 -137 -75 -165 -46 -165 32 0 38 -25 43 -170 5 -115 9 -145 31
-199 24 -60 25 -66 11 -93 -28 -54 -44 -162 -49 -338 -3 -96 -7 -221 -10 -278
l-5 -103 41 -38 c23 -21 39 -43 35 -49 -3 -6 -31 -22 -60 -35 -95 -44 -107
-96 -51 -227 26 -61 27 -70 20 -155 -4 -49 -10 -245 -14 -435 l-7 -345 -28
-74 c-34 -91 -32 -134 13 -210 51 -86 63 -210 40 -437 -8 -80 -19 -127 -40
-178 -32 -76 -36 -140 -18 -276 13 -103 5 -138 -47 -205 -59 -77 -59 -120 1
-93 24 11 29 10 41 -7 26 -35 17 -107 -21 -179 -23 -44 -35 -80 -35 -107 l0
-40 53 6 c84 11 84 10 36 -221 -50 -244 -62 -437 -35 -543 9 -36 21 -70 26
-76 6 -7 40 -15 78 -19 37 -3 136 -24 220 -46 310 -81 566 -109 1382 -150 223
-11 563 -31 755 -45 423 -30 643 -41 1135 -56 323 -11 442 -10 855 5 873 31
1961 97 1983 121 7 7 -485 3 -1533 -11 -475 -6 -663 1 -1855 76 -430 27 -631
41 -1040 70 -74 5 -207 14 -295 20 -679 47 -690 48 -673 65 10 11 307 25 713
34 258 6 721 7 1155 2 660 -7 1487 -1 1650 13 196 17 1282 49 2215 66 1995 35
2601 53 3330 95 138 8 264 16 280 16 21 1 14 4 -20 9 -172 27 -1337 0 -2395
-56 -157 -8 -598 -19 -980 -24 -382 -5 -900 -18 -1150 -29 -777 -34 -1234 -44
-2130 -44 -1000 -1 -2056 25 -2082 51 -7 7 -4 123 11 389 11 208 20 441 18
518 -2 119 1 145 15 167 21 33 54 44 75 27 13 -11 14 -28 8 -106 -7 -92 -1
-110 24 -79 7 8 16 58 20 111 5 60 13 102 22 111 10 9 45 14 116 16 88 3 104
1 122 -16 14 -13 21 -29 19 -45 -3 -22 -10 -26 -74 -37 -71 -12 -110 -28 -118
-51 -4 -9 6 -13 35 -13 65 0 106 -23 118 -64 10 -39 5 -64 -28 -137 -28 -62
-41 -216 -41 -491 l0 -228 70 0 70 0 0 53 c1 177 22 857 29 930 5 49 13 93 19
99 6 6 31 12 54 12 l43 1 8 -110 c4 -60 10 -125 13 -142 9 -62 22 -33 29 68
10 136 15 151 56 172 27 14 53 17 126 15 55 -2 97 -8 104 -15 10 -10 9 -13 -2
-17 -109 -39 -137 -53 -176 -92 -23 -24 -43 -53 -43 -64 0 -18 8 -13 49 28 59
62 108 79 165 60 50 -17 55 -33 17 -53 -17 -8 -37 -29 -46 -45 -22 -42 -19
-135 6 -190 19 -42 19 -45 2 -60 -17 -14 -18 -37 -15 -328 l3 -313 82 3 82 3
2 245 c2 284 22 866 30 887 4 9 17 13 42 11 47 -4 61 -32 61 -125 0 -72 14
-132 28 -119 4 4 12 55 18 112 13 120 30 154 85 166 53 10 294 21 323 14 26
-6 26 -7 26 -106 0 -55 -3 -100 -6 -100 -4 0 -23 19 -43 42 -35 39 -42 42 -99
46 -132 9 -226 -84 -196 -195 8 -30 19 -22 49 37 59 115 119 149 170 94 14
-15 25 -31 25 -35 0 -5 -13 -29 -29 -55 -57 -89 -65 -150 -66 -541 l-1 -353
128 0 128 0 0 203 c0 112 -3 387 -7 610 l-6 407 -86 0 c-186 0 -525 -33 -1206
-116 -346 -42 -408 -47 -695 -54 -281 -7 -328 -10 -440 -33 -189 -39 -237 -42
-324 -23 -74 17 -97 30 -80 46 18 17 934 144 1574 219 1845 216 3844 337 6495
391 585 12 2786 26 2808 17 13 -5 14 -12 5 -43 -7 -29 -6 -50 7 -96 16 -58 16
-58 -9 -90 -38 -52 -50 -110 -49 -258 1 -223 20 -298 132 -510 135 -257 156
-321 154 -465 -2 -116 -12 -149 -44 -152 -13 -1 -59 -5 -101 -8 -56 -5 -84
-12 -100 -26 -23 -20 -23 -20 127 -15 161 4 207 14 256 55 l31 27 -12 449 c-7
248 -15 475 -19 505 -6 52 -8 55 -55 84 -37 23 -63 31 -114 34 -59 4 -67 2
-83 -19 -24 -32 -24 -51 6 -165 49 -188 19 -296 -46 -165 -111 222 -118 511
-15 646 l26 34 -21 35 c-21 36 -21 37 -3 124 22 108 16 134 -43 186 -71 64
-74 75 -71 249 3 133 1 156 -15 180 -9 15 -25 27 -34 27 -14 0 -15 -17 -7
-178 5 -97 9 -202 10 -232 0 -30 1 -60 2 -67 1 -6 25 -24 52 -39 102 -55 121
-54 -752 -54 -562 0 -932 -5 -1233 -16 -378 -15 -511 -15 -1100 -4 -755 13
-892 10 -1400 -30 -750 -61 -1205 -88 -2300 -135 -1522 -66 -1443 -62 -2151
-121 -777 -64 -838 -73 -1803 -258 -217 -42 -407 -76 -421 -76 l-27 0 -9 123
c-4 67 -8 149 -9 182 l0 60 76 -3 76 -4 8 64 c4 34 10 189 14 343 6 267 7 282
30 328 25 52 75 87 95 67 7 -7 13 -119 17 -358 3 -191 9 -355 13 -365 13 -28
29 -16 61 48 l30 60 6 290 5 290 -29 32 c-61 66 -2 120 121 110 80 -6 91 -16
70 -61 -31 -64 -38 -147 -36 -406 3 -220 1 -261 -14 -300 -9 -24 -16 -45 -15
-45 71 -24 105 -67 71 -92 -10 -7 -25 -13 -34 -13 -27 0 -60 -30 -60 -56 0
-28 7 -30 38 -8 22 15 47 15 85 -1 16 -7 17 2 17 108 0 63 7 200 16 304 21
251 15 492 -14 582 -12 36 -19 68 -16 73 3 4 28 14 57 23 54 16 110 8 120 -18
3 -7 -4 -45 -14 -84 -36 -142 -46 -424 -23 -643 5 -47 8 -51 17 -35 8 14 12
103 12 285 0 240 2 269 19 303 12 24 25 37 35 35 14 -3 17 -35 24 -248 4 -151
3 -299 -3 -385 -8 -100 -8 -141 0 -143 22 -8 47 -44 60 -85 20 -69 52 -90 64
-44 9 37 -8 78 -58 147 -35 47 -44 66 -35 76 11 13 24 11 69 -13 14 -7 28 -9
33 -4 9 9 3 402 -9 664 -3 71 -3 148 1 173 8 58 48 106 84 102 l26 -3 5 -125
c5 -119 6 -125 26 -126 45 -2 45 -3 42 -277 -2 -197 1 -273 11 -307 l13 -45
19 24 c23 28 23 56 4 195 -13 93 -13 111 -1 141 16 37 26 41 56 25 33 -18 41
-74 34 -242 l-7 -158 26 -21 c31 -24 32 -28 13 -55 -12 -16 -27 -19 -83 -19
-57 0 -68 -3 -71 -18 -5 -24 45 -43 130 -50 l67 -6 3 67 3 67 36 3 36 3 -4
337 c-2 185 -8 373 -13 416 -16 125 -13 170 11 200 15 20 29 26 48 24 25 -3
26 -6 31 -73 4 -62 7 -70 25 -70 22 0 25 23 12 105 -4 25 -3 51 1 58 5 7 46
20 91 30 74 15 84 15 109 1 31 -17 55 -60 46 -83 -3 -8 -22 -20 -42 -27 -56
-17 -109 -57 -126 -94 -9 -18 -16 -35 -16 -38 0 -5 77 -57 85 -57 3 0 5 16 5
35 0 19 5 35 11 35 16 0 109 -80 109 -93 0 -6 -10 -31 -21 -55 -35 -72 -42
-174 -27 -377 l13 -180 76 -3 76 -3 9 268 c13 377 10 545 -10 635 -26 115 -16
110 -187 93 -682 -66 -1158 -175 -1491 -341 -48 -24 -92 -44 -98 -44 -16 0
-12 42 8 72 34 51 82 80 262 153 168 69 323 110 705 186 193 38 452 97 577
130 261 69 377 91 608 114 91 9 496 63 900 120 1208 171 1370 187 2425 240
1514 75 2360 104 3090 105 198 1 473 5 610 10 138 5 379 13 538 16 158 4 285
9 282 12 -6 6 -2476 27 -2875 25 -157 -1 -373 -9 -480 -18 -584 -47 -897 -65
-1780 -100 -663 -26 -1009 -42 -1075 -50 -22 -2 -46 0 -53 4 -8 5 -16 38 -19
84 -6 78 -19 104 -48 93 -18 -6 -19 -50 -4 -115 5 -24 7 -52 4 -62 -7 -20 14
-17 -344 -55 -207 -22 -255 -24 -261 -14 -8 13 -20 146 -23 255 -2 50 -2 50
32 53 l34 4 -7 296 c-3 163 -9 382 -13 486 l-6 188 -56 -5 c-31 -3 -157 -30
-280 -59 l-224 -53 7 -155 c4 -85 10 -172 13 -194 12 -78 27 -4 33 159 l5 160
40 7 c22 4 87 17 145 28 151 30 230 36 241 19 14 -22 11 -135 -4 -147 -9 -8
-25 -7 -57 4 -67 23 -149 15 -194 -20 -65 -49 -97 -140 -76 -217 11 -41 75
-119 98 -119 5 0 12 35 14 78 9 147 95 245 183 208 45 -19 71 -64 84 -145 13
-88 25 -441 14 -441 -43 -1 -170 -11 -217 -16 l-58 -6 6 -52 c14 -100 10 -96
85 -96 100 0 102 -4 99 -135 l-3 -110 -45 -8 c-206 -35 -545 -85 -552 -81 -15
9 -8 130 23 421 37 339 42 579 16 707 -9 44 -22 85 -27 90 -7 7 -53 10 -113
10 -92 -2 -118 -7 -272 -54 l-170 -52 -205 -8 c-225 -8 -255 -14 -343 -73 -28
-19 -77 -42 -107 -51 -80 -22 -236 -46 -303 -46 -123 0 -63 27 408 184 352
118 664 210 1108 326 192 49 421 111 510 136 597 168 901 229 1282 259 182 14
516 62 590 84 49 15 -123 13 -346 -4 -789 -59 -1450 -191 -2499 -496 -908
-265 -1490 -492 -1905 -744 -117 -71 -131 -70 -75 9 36 50 51 98 43 137 -5 25
0 35 33 65 l39 35 -60 -39 c-113 -73 -186 -114 -192 -108 -3 3 4 36 16 73 44
141 49 318 14 476 l-15 68 52 104 c58 115 81 142 128 151 40 8 41 -2 2 -62
-51 -81 -65 -137 -65 -264 0 -86 5 -128 18 -168 18 -51 73 -122 95 -122 16 0
48 66 61 128 6 31 11 156 11 300 1 367 17 481 73 516 31 19 42 -8 42 -102 0
-75 -4 -95 -27 -142 l-27 -55 34 -35 33 -35 8 -233 c7 -233 7 -234 30 -243 13
-4 24 -12 24 -17 0 -5 -18 -30 -40 -55 -43 -48 -61 -99 -39 -112 19 -12 66 47
84 107 25 80 30 303 15 664 -7 177 -10 333 -6 347 8 34 126 120 158 115 17 -2
24 -12 30 -43 5 -21 24 -59 44 -84 19 -25 33 -50 30 -56 -2 -7 -7 -37 -11 -68
-13 -105 -57 -120 -69 -23 -8 64 -19 71 -35 24 -20 -56 -23 -139 -11 -258 6
-63 14 -161 17 -218 6 -100 6 -102 32 -108 14 -3 53 -14 87 -25 l60 -19 75 34
c41 19 93 39 116 45 38 10 45 17 72 74 54 109 65 213 55 497 -5 135 -9 347 -9
472 0 189 3 230 15 242 8 7 51 21 95 31 44 9 107 28 139 41 33 13 65 24 72 24
9 0 11 -23 7 -92 -4 -73 0 -113 16 -185 26 -116 29 -233 5 -233 -9 0 -34 -5
-55 -11 -35 -11 -38 -14 -44 -62 -13 -93 -7 -201 20 -351 15 -84 25 -174 23
-208 l-3 -60 -88 -22 c-54 -14 -96 -31 -109 -44 -12 -12 -20 -24 -17 -26 2 -3
45 10 94 29 50 18 111 36 138 40 46 7 48 9 76 69 70 148 83 347 52 813 -12
171 -21 346 -21 388 l0 77 -33 -21 c-18 -11 -107 -50 -198 -87 -202 -82 -241
-101 -308 -154 -69 -54 -79 -46 -62 50 14 77 7 100 -30 100 -14 0 -20 -10 -25
-40 -8 -49 -25 -64 -64 -57 -24 5 -33 2 -49 -22 l-20 -28 20 -19 c37 -33 40
-50 18 -78 -26 -33 -59 -33 -89 -1 -34 36 -55 31 -90 -20 -34 -50 -56 -65 -94
-65 -60 0 -40 33 118 198 168 175 363 324 601 460 156 89 314 142 425 142 97
0 116 7 135 51 38 84 59 78 190 -56 133 -137 130 -136 360 -65 75 23 172 23
200 0 12 -10 15 -47 15 -191 l0 -179 -46 -11 c-33 -9 -48 -18 -54 -35 -15 -39
-2 -57 35 -50 66 13 63 34 57 -381 l-5 -376 39 6 c21 4 45 7 51 7 10 0 13 137
15 636 3 555 5 638 18 644 8 4 86 43 174 86 l158 79 82 0 c52 0 92 -5 111 -15
l30 -15 9 -213 c4 -117 6 -219 2 -227 -4 -11 -23 -15 -79 -15 -80 0 -97 -9
-97 -51 0 -34 14 -39 78 -27 39 8 60 8 79 -1 l26 -12 -5 -162 c-5 -156 -51
-558 -69 -605 -12 -32 -48 -43 -179 -53 -123 -11 -194 -30 -204 -56 -4 -9 -5
-17 -4 -19 2 -1 37 4 78 12 41 8 129 23 195 32 l120 18 27 54 c32 63 62 178
79 295 6 44 13 287 16 540 3 288 9 465 15 473 6 6 30 12 54 12 61 0 60 25 -1
33 -25 4 -60 15 -78 24 -27 15 -57 18 -182 18 l-150 0 -2 150 c-2 83 0 155 5
161 13 20 505 150 862 229 1216 268 2485 393 4020 396 428 0 525 -7 608 -48
35 -17 37 -21 43 -78 7 -79 17 -95 115 -195 46 -47 90 -102 99 -122 8 -21 18
-73 21 -115 12 -155 56 -289 228 -691 63 -147 132 -320 152 -384 38 -116 38
-117 73 -123 146 -28 247 -185 268 -418 l6 -68 -399 2 c-387 2 -400 2 -446
-19 -43 -19 -48 -24 -48 -53 l0 -32 143 6 c78 3 276 11 439 18 235 10 300 10
311 0 19 -15 24 -63 43 -426 l15 -300 -26 -23 -26 -22 26 -32 c42 -50 90 -155
129 -281 20 -64 52 -168 71 -230 l35 -114 212 -6 c149 -4 232 -11 276 -23 35
-9 65 -14 67 -12 3 2 0 21 -6 42 -16 57 -2 67 85 64 78 -3 73 1 93 -93 l8 -40
95 -5 95 -5 3 -42 3 -43 55 0 c71 0 335 -39 352 -52 6 -6 12 -25 12 -42 1 -51
33 -108 113 -196 41 -45 87 -104 102 -131 35 -64 43 -163 24 -296 -8 -54 -14
-146 -13 -204 0 -89 3 -111 19 -134 47 -66 55 -82 55 -111 0 -30 -20 -60 -32
-48 -3 3 -9 -84 -13 -193 -8 -229 2 -334 41 -400 l25 -43 144 0 c83 0 146 -4
150 -10 7 -11 30 -147 40 -230 7 -67 8 -68 67 -109 80 -54 103 -131 43 -141
-42 -7 -45 -40 -6 -79 39 -40 39 -69 2 -101 l-30 -25 -3 -480 -3 -480 25 -50
c14 -27 30 -49 35 -48 6 1 14 17 18 37 5 19 16 41 25 48 9 8 103 42 207 76
105 35 232 83 284 107 l93 45 -5 37 c-15 103 -52 1120 -77 2098 -16 611 -33
802 -85 958 -30 88 -44 108 -113 163 -409 326 -949 514 -1577 549 -91 5 -119
11 -165 33 -44 21 -73 28 -141 30 l-86 4 -6 -132 c-4 -73 -12 -143 -19 -158
l-13 -27 -215 0 -214 0 -24 59 c-35 88 -87 278 -116 423 -53 263 -82 492 -131
1003 -14 151 -28 286 -31 298 -9 41 -89 115 -198 182 -92 57 -108 70 -121 105
-8 22 -71 222 -139 445 -69 223 -156 497 -195 610 -62 182 -74 208 -103 230
-66 50 -159 144 -164 167 -5 16 3 33 30 65 37 43 47 87 24 106 -13 10 -192 24
-538 43 -257 14 -779 19 -905 9z"/>
<path d="M7957 8073 c-27 -7 -18 -46 13 -54 38 -11 119 -10 140 1 12 6 16 17
13 30 -4 15 -14 20 -42 20 -20 0 -52 2 -71 4 -19 3 -43 2 -53 -1z"/>
<path d="M8281 8060 c-34 -8 -53 -27 -48 -45 2 -6 42 -10 93 -10 l89 0 0 30
c0 29 -1 30 -50 32 -27 1 -65 -2 -84 -7z"/>
<path d="M8528 8054 c-18 -18 -7 -43 23 -49 63 -14 159 -6 159 13 -1 26 -24
36 -97 40 -43 2 -81 1 -85 -4z"/>
<path d="M7346 8037 c-41 -30 4 -57 96 -57 52 0 78 14 71 40 -4 15 -14 20 -42
20 -20 0 -52 3 -71 6 -23 3 -42 0 -54 -9z"/>
<path d="M7658 8040 c-10 -6 -18 -19 -18 -29 0 -25 39 -34 117 -25 58 6 63 8
63 30 0 21 -5 24 -37 24 -21 0 -54 3 -73 5 -19 3 -43 1 -52 -5z"/>
<path d="M7054 8020 c-22 -9 -34 -35 -27 -57 3 -9 32 -13 99 -13 88 0 94 1 94
21 0 47 -17 59 -83 58 -34 0 -72 -4 -83 -9z"/>
<path d="M6772 8001 c-50 -6 -76 -23 -69 -46 2 -6 42 -10 93 -10 l89 0 0 30
c0 26 -4 30 -30 31 -16 1 -54 -1 -83 -5z"/>
<path d="M6420 7957 c-28 -14 -38 -46 -18 -58 7 -5 48 -9 91 -9 l77 0 0 34 c0
31 -3 34 -37 40 -56 9 -85 7 -113 -7z"/>
<path d="M6133 7907 c-57 -9 -63 -12 -63 -33 0 -24 2 -24 95 -24 100 0 101 1
89 48 -7 25 -19 26 -121 9z"/>
<path d="M5798 7870 c-21 -13 -23 -36 -4 -43 31 -12 108 -19 141 -13 25 5 35
12 35 26 0 10 -3 21 -7 23 -19 11 -149 16 -165 7z"/>
<path d="M5520 7816 c-7 -9 -10 -23 -6 -31 4 -12 24 -15 91 -15 l86 0 -3 28
c-3 27 -4 27 -79 30 -58 2 -79 -1 -89 -12z"/>
<path d="M8628 7810 c-29 -18 -23 -63 12 -83 16 -10 32 -28 35 -40 3 -12 6
-94 7 -182 l3 -160 -105 -5 -104 -5 1 -80 c1 -44 2 -83 2 -87 1 -4 49 -9 109
-10 l107 -3 2 -95 c2 -52 10 -155 19 -229 20 -162 14 -218 -32 -308 -37 -74
-42 -108 -20 -139 19 -25 25 -18 42 57 8 35 22 71 31 81 18 20 18 17 -17 788
-11 233 -17 427 -12 431 4 4 18 9 32 11 19 2 26 10 28 31 3 25 1 27 -31 27
-19 0 -47 2 -63 5 -16 3 -37 0 -46 -5z"/>
<path d="M5305 7804 c-47 -11 -73 -27 -84 -50 -6 -14 -11 -27 -11 -30 0 -8
140 7 168 17 18 7 23 15 20 37 -3 23 -8 27 -38 29 -19 0 -44 -1 -55 -3z"/>
<path d="M6797 7793 c-13 -12 -7 -107 13 -222 20 -112 27 -285 12 -307 -4 -6
-38 -15 -76 -19 -99 -10 -96 -8 -96 -81 l0 -64 73 0 c39 0 78 -4 86 -9 22 -14
34 -237 27 -498 -5 -183 -4 -229 8 -258 8 -19 18 -35 22 -35 3 0 3 308 -1 684
-6 574 -5 685 6 692 8 5 34 11 59 14 33 4 46 10 48 24 4 17 -1 18 -50 13 -29
-4 -64 -8 -78 -9 -22 -3 -25 1 -28 32 -4 37 -14 55 -25 43z"/>
<path d="M4958 7753 c-50 -12 -68 -20 -68 -32 1 -38 12 -40 103 -23 69 13 87
21 87 34 0 16 -29 39 -47 37 -4 -1 -38 -8 -75 -16z"/>
<path d="M7712 7749 c-26 -8 -32 -14 -27 -27 12 -28 20 -158 20 -312 l0 -145
-55 -5 c-53 -5 -55 -6 -56 -35 -1 -49 5 -55 56 -55 27 0 52 -5 56 -12 9 -14
19 -370 19 -650 0 -141 -3 -190 -13 -200 -10 -10 -64 -12 -239 -10 -229 3
-379 -8 -436 -32 -30 -12 -25 -14 87 -21 184 -12 959 1 1246 20 140 10 256 19
258 20 2 2 0 14 -4 29 l-6 26 -383 0 c-294 0 -385 3 -392 13 -6 6 -13 93 -17
192 -7 186 -18 447 -37 884 -10 250 -10 253 10 275 34 36 28 56 -16 55 -21 0
-53 -5 -71 -10z"/>
<path d="M4698 7711 c-48 -10 -88 -37 -88 -61 0 -10 4 -21 8 -24 11 -6 182 27
182 36 0 4 -4 18 -10 32 -10 28 -23 30 -92 17z"/>
<path d="M4346 7660 c-51 -16 -83 -58 -56 -75 16 -10 153 14 169 29 8 8 10 22
6 35 -5 17 -14 21 -48 20 -23 0 -55 -5 -71 -9z"/>
<path d="M5164 7567 c3 -17 8 -32 10 -34 2 -2 53 6 112 19 l109 23 -65 6 c-36
4 -89 9 -118 12 l-54 4 6 -30z"/>
<path d="M4075 7573 c-67 -14 -101 -45 -89 -77 7 -19 6 -19 74 -1 30 8 70 15
88 15 17 0 32 2 32 4 0 1 -5 17 -11 35 -9 26 -16 31 -42 30 -18 -1 -41 -3 -52
-6z"/>
<path d="M5884 7377 c7 -218 7 -221 -39 -223 -11 0 -41 -4 -67 -8 -44 -7 -48
-9 -48 -35 0 -33 -20 -54 -44 -45 -10 4 -16 18 -16 39 0 31 -3 34 -37 39 -39
6 -100 9 -141 7 -23 -1 -23 -3 -17 -66 l7 -65 -31 -6 -31 -6 0 -284 c0 -156 3
-284 6 -284 3 0 55 11 117 25 61 14 135 28 165 32 l54 6 -4 256 -3 256 65 0
65 0 7 -80 c15 -168 26 -680 14 -692 -16 -17 -257 -59 -413 -72 -152 -13 -220
-31 -253 -66 -13 -14 -22 -27 -19 -29 2 -2 132 11 289 30 157 19 315 37 352
40 l66 5 11 62 c26 155 33 340 26 783 -4 248 -4 461 0 472 4 14 15 22 29 22
28 0 45 17 39 39 -4 16 -45 31 -127 48 l-29 6 7 -206z m-211 -844 c-13 -2 -33
-2 -45 0 -13 2 -3 4 22 4 25 0 35 -2 23 -4z"/>
<path d="M3795 7523 c-10 -3 -29 -12 -42 -20 -28 -19 -32 -63 -5 -63 19 0 165
29 170 34 2 2 0 15 -4 30 -6 24 -10 26 -53 25 -25 -1 -55 -4 -66 -6z"/>
<path d="M4805 7513 c-114 -24 -333 -79 -342 -86 -7 -5 -13 -21 -13 -35 0 -22
3 -24 33 -18 252 47 333 74 365 124 13 20 13 22 -4 21 -11 -1 -28 -3 -39 -6z"/>
<path d="M4990 7508 c0 -7 7 -51 14 -98 14 -82 19 -184 17 -321 l-1 -66 -71
-7 c-101 -10 -99 -9 -99 -77 l0 -59 73 0 c43 0 78 -5 85 -12 9 -9 12 -109 12
-390 l0 -378 -27 -11 c-58 -22 -144 -39 -298 -59 -169 -22 -269 -45 -260 -61
10 -15 71 -11 233 16 84 14 177 25 207 25 48 0 62 5 124 47 l70 47 5 71 c8 91
32 1068 29 1164 -1 40 -7 89 -14 108 -15 47 -99 98 -99 61z"/>
<path d="M3504 7429 c-39 -11 -68 -43 -60 -65 5 -13 14 -15 46 -10 22 3 59 9
83 12 67 9 68 9 56 44 -10 27 -15 30 -52 29 -23 0 -56 -5 -73 -10z"/>
<path d="M4282 7378 c-31 -7 -46 -16 -54 -34 -6 -13 -9 -25 -7 -27 2 -1 18 -9
34 -17 l30 -16 3 -161 c1 -90 -2 -172 -8 -187 -9 -25 -11 -26 -101 -26 l-91 0
7 -82 c3 -46 15 -172 26 -280 11 -109 17 -202 14 -208 -3 -5 -38 -10 -76 -10
-65 0 -70 2 -79 26 -6 14 -10 63 -10 109 0 94 11 115 62 115 28 0 30 2 25 29
-3 15 -9 51 -13 80 -6 50 -8 51 -39 51 -33 0 -61 20 -47 34 4 4 22 14 40 21
38 16 42 35 8 35 -42 0 -128 -23 -133 -36 -2 -7 0 -30 6 -52 9 -33 16 -41 42
-46 28 -5 30 -8 27 -43 -3 -34 -8 -40 -47 -58 l-43 -20 7 -150 c4 -82 8 -151
9 -153 2 -1 47 5 102 13 54 8 119 15 143 15 l44 0 -7 214 c-5 149 -4 216 4
221 22 14 101 10 110 -5 6 -8 10 -124 10 -263 l0 -247 -27 -42 c-22 -32 -28
-53 -28 -97 0 -50 2 -56 22 -59 28 -4 37 13 59 113 17 71 19 134 20 575 1 464
5 554 31 658 6 25 -3 26 -75 10z"/>
<path d="M3955 7310 c-28 -4 -77 -15 -110 -25 -55 -16 -58 -18 -40 -31 25 -19
55 -17 145 6 41 11 94 20 118 20 35 0 42 3 42 20 0 18 -6 20 -52 19 -29 -1
-76 -5 -103 -9z"/>
<path d="M7937 7303 c-4 -7 -27 -118 -27 -130 0 -8 119 -2 124 6 4 5 9 37 12
70 l7 61 -56 0 c-31 0 -58 -3 -60 -7z"/>
<path d="M8180 7230 l0 -60 69 0 68 0 7 46 c10 78 14 74 -69 74 l-75 0 0 -60z"/>
<path d="M7260 7255 c0 -2 7 -23 16 -45 23 -56 14 -70 -42 -70 l-47 0 6 -167
c4 -91 7 -197 7 -235 l0 -68 175 0 175 0 0 235 0 235 -35 0 c-20 0 -37 6 -39
13 -2 6 -10 33 -16 60 l-13 47 -93 0 c-52 0 -94 -2 -94 -5z"/>
<path d="M6990 7222 c0 -16 3 -44 6 -61 6 -31 7 -31 66 -31 l59 0 -3 58 -3 57
-62 3 -63 3 0 -29z"/>
<path d="M6090 7152 l0 -49 76 -9 c41 -6 77 -7 79 -4 2 4 1 28 -3 56 l-7 49
-73 3 -72 3 0 -49z"/>
<path d="M6362 7158 l3 -43 58 -3 c54 -3 58 -1 67 23 22 59 17 65 -61 65 l-70
0 3 -42z"/>
<path d="M5233 7107 c-34 -8 -43 -14 -43 -31 1 -28 16 -106 22 -112 6 -6 129
26 141 37 5 4 4 32 -3 63 -11 54 -12 56 -43 55 -18 -1 -51 -6 -74 -12z"/>
<path d="M4678 6983 c-37 -15 -38 -17 -38 -69 l0 -54 48 0 c55 0 92 9 92 21 0
5 -13 9 -29 9 -37 0 -77 31 -68 53 4 12 18 17 42 17 29 0 36 3 33 18 -4 22
-34 24 -80 5z"/>
<path d="M2070 6942 c0 -48 -21 -58 -74 -32 -24 13 -52 20 -60 17 -9 -4 -26
-26 -38 -51 -20 -41 -51 -66 -82 -66 -15 0 -26 -21 -26 -51 0 -30 21 -23 129
37 76 43 115 58 168 66 93 14 89 12 97 49 8 42 -2 51 -63 57 l-51 5 0 -31z"/>
<path d="M4438 6954 c-28 -8 -48 -21 -48 -29 0 -27 22 -115 28 -115 4 0 37 7
75 16 73 18 73 17 56 94 -10 45 -13 50 -37 49 -15 0 -48 -7 -74 -15z"/>
<path d="M2150 6771 c-73 -23 -98 -37 -137 -74 -75 -71 -4 -80 102 -14 81 51
137 71 169 63 21 -5 24 -13 30 -78 4 -40 2 -237 -3 -438 -19 -644 -18 -697 1
-716 16 -16 18 -16 28 12 48 127 59 348 36 764 -9 168 -18 348 -19 400 l-2 95
-75 2 c-50 2 -93 -4 -130 -16z"/>
<path d="M1630 6745 c-25 -13 -61 -24 -80 -25 -20 0 -41 -5 -48 -12 -23 -23
-9 -118 18 -118 5 0 31 23 58 50 38 38 56 50 80 50 35 0 37 2 47 48 6 27 4 32
-12 32 -10 -1 -38 -12 -63 -25z"/>
<path d="M3703 6763 c-21 -4 -23 -10 -23 -74 l0 -69 80 0 80 0 0 29 c0 28 -2
30 -46 33 -32 2 -50 9 -58 21 -16 26 16 48 57 40 23 -5 29 -3 25 8 -5 14 -71
21 -115 12z"/>
<path d="M3242 6660 c-46 -11 -54 -21 -50 -66 l3 -39 55 3 c30 2 57 6 59 8 8
8 -14 97 -24 100 -5 1 -25 -2 -43 -6z"/>
<path d="M1356 6587 c-14 -10 -16 -21 -11 -50 8 -39 19 -44 60 -25 29 13 34
48 9 72 -19 19 -35 20 -58 3z"/>
<path d="M3024 6548 c4 -29 9 -54 11 -56 2 -2 22 -1 44 3 l41 7 0 49 0 49 -51
0 -52 0 7 -52z"/>
<path d="M2600 6480 c-12 -12 -19 -28 -16 -37 3 -8 6 -19 6 -24 0 -5 14 -9 31
-9 29 0 30 1 27 42 -4 49 -19 57 -48 28z"/>
<path d="M2450 6384 c0 -29 3 -35 16 -30 9 3 22 6 30 6 17 0 19 31 2 48 -7 7
-20 12 -30 12 -14 0 -18 -8 -18 -36z"/>
<path d="M2210 6333 c0 -35 13 -63 27 -63 11 0 14 6 9 23 -3 12 -6 30 -6 40 0
9 -7 17 -15 17 -8 0 -15 -8 -15 -17z"/>
<path d="M2645 6326 l-50 -12 -3 -129 c-3 -124 10 -235 28 -235 16 0 20 47 14
160 -6 96 -4 121 10 147 16 32 47 50 66 38 6 -4 10 -69 10 -166 0 -87 2 -159
5 -159 2 0 16 5 30 12 l25 11 0 174 0 173 -42 -1 c-24 -1 -65 -7 -93 -13z"/>
<path d="M2086 6284 c-9 -8 -16 -29 -16 -45 0 -33 -1 -33 34 -19 26 9 32 31
20 64 -8 20 -18 20 -38 0z"/>
<path d="M6153 6245 c-31 -13 -43 -32 -43 -66 0 -16 6 -18 43 -14 23 3 175 12
337 21 162 8 298 18 303 23 4 4 1 14 -5 23 -11 14 -55 17 -309 21 -226 4 -302
2 -326 -8z"/>
<path d="M9545 6145 c-6 -89 -5 -109 9 -130 9 -14 21 -23 25 -21 15 10 21 84
15 171 -6 72 -10 85 -25 85 -15 0 -18 -14 -24 -105z"/>
<path d="M1942 6193 c2 -17 10 -29 21 -31 13 -3 17 3 17 27 0 25 -4 31 -21 31
-16 0 -20 -5 -17 -27z"/>
<path d="M8218 6203 c-22 -5 -22 -7 -3 -43 13 -26 21 -29 67 -32 l52 -3 11
-50 c8 -41 14 -51 34 -53 38 -6 42 8 30 95 l-12 80 -60 7 c-64 6 -92 6 -119
-1z"/>
<path d="M1680 6176 c0 -22 -29 -46 -55 -46 -22 0 -24 -4 -22 -37 2 -37 1 -38
-35 -41 -21 -2 -38 -6 -38 -10 0 -4 -3 -17 -6 -29 -6 -22 -3 -23 44 -23 42 0
52 4 66 25 10 16 26 25 41 25 20 0 25 5 25 24 0 29 24 56 51 56 15 0 19 7 19
35 0 35 0 35 -45 35 -32 0 -45 -4 -45 -14z"/>
<path d="M6418 6038 c-2 -35 0 -73 4 -85 13 -38 37 -27 49 22 16 63 30 71 67
40 48 -41 62 -34 62 30 l0 55 -89 0 -89 0 -4 -62z"/>
<path d="M3995 5924 c-43 -8 -105 -21 -136 -29 -31 -8 -78 -15 -103 -15 -39 0
-46 -3 -46 -20 0 -18 7 -20 68 -20 37 0 117 7 177 15 61 8 138 15 171 15 63 0
73 8 74 58 0 16 -101 15 -205 -4z"/>
<path d="M7135 5895 c-126 -7 -309 -20 -405 -29 -251 -24 -610 -78 -610 -92 0
-9 58 -32 97 -39 23 -3 117 1 210 10 92 9 189 14 214 11 36 -5 57 -1 100 19
116 52 195 54 649 14 63 -5 159 -7 212 -3 92 6 97 7 103 31 7 29 -2 29 185 2
128 -19 533 -16 649 4 92 16 114 27 108 57 -2 12 -28 16 -137 21 -233 11
-1135 7 -1375 -6z"/>
<path d="M4745 5891 c-28 -6 -30 -9 -33 -59 -3 -48 -1 -53 15 -49 10 3 39 8
66 12 l47 6 0 50 c0 49 0 49 -32 48 -18 -1 -46 -4 -63 -8z"/>
<path d="M5700 5779 c-30 -12 -60 -38 -60 -53 0 -14 248 -20 284 -6 18 6 26
17 26 33 0 20 -6 25 -37 31 -57 9 -185 6 -213 -5z"/>
<path d="M2799 5676 c-2 -2 -50 -14 -107 -26 -155 -32 -205 -58 -238 -122 -13
-25 -13 -28 2 -28 9 0 66 18 126 40 61 23 135 47 166 55 30 8 57 16 58 18 10
9 15 67 7 67 -5 0 -12 -2 -14 -4z"/>
<path d="M3270 5631 c-22 -6 -25 -13 -28 -59 l-3 -52 50 0 51 0 0 60 c0 65 -5
69 -70 51z"/>
<path d="M9219 5636 c-3 -4 -83 -7 -177 -8 -94 -1 -177 -5 -183 -9 -24 -14 0
-38 48 -46 26 -4 167 -7 313 -5 146 1 275 0 287 -3 29 -7 46 -41 69 -135 15
-63 18 -139 23 -465 5 -319 9 -395 21 -415 l15 -25 2 40 c2 22 12 150 24 284
23 266 23 562 -1 636 -17 56 -69 101 -143 124 -61 18 -286 39 -298 27z"/>
<path d="M8140 5623 c-19 -2 -87 -7 -150 -12 l-115 -7 40 -20 c37 -17 64 -19
330 -19 274 0 293 -1 335 -21 91 -43 85 -5 85 -523 0 -450 3 -496 33 -515 9
-5 16 176 28 716 l7 297 -32 30 c-18 16 -58 40 -89 52 -51 20 -77 23 -247 25
-104 1 -206 0 -225 -3z"/>
<path d="M7120 5601 c-41 -3 -75 -10 -75 -16 0 -5 18 -19 40 -30 36 -18 63
-20 274 -22 223 -3 236 -4 286 -27 127 -58 156 -207 119 -595 -16 -165 -16
-462 -1 -478 5 -4 12 -1 17 7 25 40 30 135 30 563 0 431 -1 453 -20 484 -28
47 -85 80 -174 103 -66 17 -107 20 -250 18 -94 -1 -205 -4 -246 -7z"/>
<path d="M6313 5536 c-89 -19 -174 -37 -190 -41 l-28 -7 25 -10 c38 -15 176
-11 302 8 132 20 303 24 334 7 29 -17 34 -62 35 -347 1 -394 12 -614 33 -658
10 -21 22 -38 27 -38 5 0 9 222 9 514 l0 515 -37 31 c-87 71 -247 79 -510 26z"/>
<path d="M2073 5447 c-61 -18 -115 -35 -118 -39 -4 -4 -4 -23 -1 -43 6 -29 11
-35 24 -30 9 4 51 20 92 36 81 31 115 52 138 87 13 20 13 22 -4 21 -11 0 -69
-15 -131 -32z"/>
<path d="M5540 5464 c-14 -3 -86 -13 -160 -25 -74 -11 -146 -22 -160 -25 l-25
-6 30 -16 c44 -23 156 -19 325 12 79 14 179 26 222 26 74 0 79 -1 88 -24 19
-52 33 -289 39 -680 4 -291 9 -410 17 -413 30 -10 42 229 36 680 -5 346 -6
359 -26 390 -12 18 -42 43 -66 57 -41 23 -57 25 -170 27 -69 0 -136 -1 -150
-3z"/>
<path d="M9106 5419 c-53 -13 -100 -43 -114 -74 -13 -27 -7 -30 33 -15 15 6
57 15 94 21 140 21 263 -23 309 -113 22 -43 23 -50 11 -102 -11 -51 -10 -59
12 -108 22 -50 24 -67 27 -273 2 -121 7 -224 12 -229 15 -15 23 126 16 274 -5
80 -11 217 -15 305 -8 181 -17 209 -80 251 -85 56 -221 84 -305 63z"/>
<path d="M4725 5368 c-71 -4 -170 -12 -220 -16 l-90 -7 2 -80 c1 -48 10 -106
22 -145 18 -57 19 -72 9 -127 -12 -64 -7 -86 14 -65 20 20 21 116 3 241 -9 67
-15 128 -11 136 5 13 43 15 283 13 l278 -3 7 -235 c3 -129 7 -356 8 -505 3
-260 10 -330 31 -292 22 38 31 287 20 531 -6 134 -11 316 -11 405 l0 161 -107
-1 c-60 -1 -166 -6 -238 -11z"/>
<path d="M7295 5371 c-109 -29 -205 -130 -205 -216 0 -23 3 -25 23 -19 33 10
47 23 84 81 18 29 46 59 61 66 63 32 167 29 285 -9 41 -14 51 -22 73 -66 32
-63 42 -56 14 10 -26 61 -70 104 -134 133 -53 23 -152 33 -201 20z"/>
<path d="M8183 5361 c-44 -20 -99 -68 -90 -77 3 -3 26 2 51 10 53 18 163 21
219 5 52 -14 101 -60 121 -114 13 -32 23 -45 37 -45 16 0 19 7 19 48 0 64 -33
119 -93 156 -42 26 -60 30 -135 33 -71 3 -95 0 -129 -16z"/>
<path d="M6429 5330 c-95 -16 -169 -78 -194 -162 -18 -63 -20 -108 -2 -108 22
0 111 75 141 119 35 52 82 75 137 66 33 -6 94 -40 177 -101 30 -22 37 -13 22
30 -38 116 -149 178 -281 156z"/>
<path d="M2093 5323 c-20 -4 -23 -11 -23 -49 l0 -44 50 0 50 0 0 50 c0 48 -1
50 -27 49 -16 -1 -38 -4 -50 -6z"/>
<path d="M4010 5271 c-92 -25 -270 -70 -300 -76 l-25 -4 -3 -178 c-3 -149 -1
-181 12 -198 28 -36 36 1 36 177 0 166 0 168 23 173 69 15 309 45 367 45 66 0
70 -1 93 -32 32 -43 47 -91 47 -147 0 -73 -9 -79 -68 -38 -94 64 -220 74 -306
23 -58 -34 -102 -126 -60 -126 19 0 44 -58 44 -103 0 -66 51 -91 63 -31 2 15
3 52 0 83 -3 38 0 62 9 73 14 19 114 48 163 48 71 0 145 -69 145 -136 0 -25
-8 -38 -32 -58 l-32 -25 16 -34 c22 -45 36 -131 40 -237 l3 -85 -120 -6 c-66
-4 -131 -7 -144 -8 -24 -1 -24 -1 -17 -91 4 -50 9 -97 12 -105 10 -25 81 -17
188 20 55 19 108 35 119 35 18 0 19 5 13 63 -3 34 -8 121 -11 192 -3 72 -8
153 -11 182 -4 44 -2 55 16 73 19 19 21 32 22 203 2 193 -6 244 -44 292 -44
57 -136 69 -258 36z"/>
<path d="M5481 5255 c-169 -48 -232 -177 -150 -311 30 -49 25 -54 -41 -54
l-60 0 0 -45 0 -45 55 0 c52 0 55 2 60 28 36 181 125 295 251 323 47 11 63 10
108 -4 28 -9 71 -33 94 -53 34 -29 42 -32 42 -17 -1 58 -68 140 -139 170 -51
22 -157 25 -220 8z"/>
<path d="M4691 5126 c-47 -17 -111 -73 -127 -112 -13 -31 -12 -36 24 -93 41
-67 57 -75 65 -33 17 85 121 159 238 169 59 6 59 6 42 26 -46 51 -163 72 -242
43z"/>
<path d="M7916 5048 c-13 -43 -14 -96 -2 -113 12 -17 14 -17 29 6 10 14 17 43
17 71 0 42 -3 48 -20 48 -11 0 -22 -6 -24 -12z"/>
<path d="M1015 5001 c-16 -10 -48 -37 -70 -60 -38 -40 -38 -41 -14 -41 27 0
93 39 149 88 l35 31 -35 1 c-19 0 -48 -9 -65 -19z"/>
<path d="M1197 4993 c-39 -22 -46 -30 -41 -47 3 -12 10 -25 14 -29 8 -9 135
74 135 89 0 20 -62 13 -108 -13z"/>
<path d="M6995 4938 c3 -40 7 -74 8 -74 1 -1 12 -5 25 -8 22 -7 22 -6 22 73
l0 81 -31 0 -32 0 8 -72z"/>
<path d="M8520 4966 c-7 -20 -7 -46 1 -90 5 -34 9 -82 7 -106 l-3 -45 -253 -3
-253 -2 3 -68 3 -67 67 -3 c74 -3 72 -1 83 -82 15 -108 8 -100 86 -100 l69 0
20 39 c39 78 87 85 110 16 35 -107 102 49 116 270 4 73 2 120 -10 174 -19 88
-31 106 -46 67z"/>
<path d="M6111 4911 c-8 -14 -7 -22 5 -31 20 -18 64 3 64 30 0 27 -55 28 -69
1z"/>
<path d="M4473 4773 c-7 -5 -14 -57 -18 -138 -6 -108 -4 -133 8 -150 21 -27
26 -19 38 56 6 35 21 96 35 134 35 100 35 100 -11 103 -22 1 -45 -1 -52 -5z"/>
<path d="M7113 4593 c4 -58 7 -121 7 -138 l0 -32 188 -7 c186 -7 314 3 328 25
3 6 -2 66 -12 134 l-17 125 -250 0 -250 0 6 -107z"/>
<path d="M6365 4650 c-60 -4 -113 -8 -117 -9 -5 0 -8 -44 -8 -96 l0 -95 173 7
c161 6 176 5 220 -15 l47 -21 0 23 c0 13 14 49 31 80 21 41 29 68 27 94 l-3
37 -130 1 c-71 0 -179 -2 -240 -6z"/>
<path d="M3690 4606 c-26 -80 -33 -311 -13 -436 10 -63 21 -3 31 166 l10 157
56 56 c76 77 74 91 -8 91 l-64 0 -12 -34z"/>
<path d="M5400 4445 c0 -58 2 -105 4 -105 2 0 40 7 83 15 122 23 141 21 178
-22 30 -34 36 -37 98 -41 l67 -4 0 131 0 131 -215 0 -215 0 0 -105z"/>
<path d="M3057 4493 c-9 -16 -18 -285 -11 -339 6 -52 8 -56 20 -39 10 14 14
57 14 162 0 160 -2 156 78 166 56 7 62 14 33 38 -16 13 -39 19 -77 19 -29 0
-55 -3 -57 -7z"/>
<path d="M4790 4483 c-78 -14 -96 -23 -114 -60 -22 -46 -34 -167 -17 -177 6
-4 68 -4 136 0 109 6 125 9 125 24 0 9 14 42 30 73 21 39 30 71 30 102 l0 45
-82 -1 c-46 -1 -94 -4 -108 -6z"/>
<path d="M8600 4371 c-5 -11 -10 -50 -10 -86 0 -58 2 -66 17 -63 21 4 38 85
28 135 -7 37 -19 42 -35 14z"/>
<path d="M9550 4295 c0 -68 2 -75 20 -75 18 0 20 7 20 65 0 54 -3 66 -20 75
-19 10 -20 8 -20 -65z"/>
<path d="M7642 4290 c2 -33 8 -63 12 -67 13 -14 26 22 26 75 0 46 -2 52 -21
52 -20 0 -21 -4 -17 -60z"/>
<path d="M6786 4278 c-16 -79 -1 -147 26 -120 13 13 22 85 14 115 -9 38 -33
41 -40 5z"/>
<path d="M5820 4176 c0 -83 6 -106 26 -106 17 0 20 113 4 154 -18 48 -30 28
-30 -48z"/>
<path d="M4983 4149 c-26 -26 -11 -119 19 -119 9 0 9 74 0 108 -6 18 -9 21
-19 11z"/>
<path d="M10675 4061 l-170 -6 95 -8 c107 -8 136 -15 235 -51 83 -30 150 -33
340 -11 72 8 137 15 144 15 29 0 -4 18 -74 40 -59 19 -97 23 -235 25 -91 1
-241 -1 -335 -4z"/>
<path d="M3092 3970 c-28 -12 -40 -39 -21 -51 38 -24 155 5 189 47 11 12 1 14
-66 13 -44 0 -89 -4 -102 -9z"/>
<path d="M9085 3859 c-38 -4 -86 -11 -105 -14 -31 -6 -33 -8 -15 -18 13 -7 95
-10 248 -9 256 3 312 -6 359 -55 l26 -28 7 -521 c7 -467 12 -561 29 -543 3 2
10 36 17 74 9 49 12 211 11 545 l-2 475 -25 22 c-78 69 -313 100 -550 72z"/>
<path d="M10060 3845 c-190 -18 -195 -19 -145 -33 24 -7 114 -12 230 -12 178
0 194 -2 235 -22 24 -13 53 -36 64 -51 21 -28 21 -40 21 -515 0 -268 4 -493 8
-499 12 -19 24 -16 32 10 4 12 11 157 16 322 4 165 11 371 15 458 5 109 3 175
-5 211 -29 130 -142 161 -471 131z"/>
<path d="M10893 3843 c-108 -10 11 -52 173 -60 72 -4 135 -1 180 7 76 14 146
38 140 49 -5 7 -426 11 -493 4z"/>
<path d="M7983 3829 c-18 -5 -35 -14 -38 -19 -18 -30 138 -38 371 -20 187 14
283 -9 331 -80 l23 -33 -3 -446 c-1 -267 2 -456 8 -471 8 -23 10 -21 17 25 5
28 11 244 14 482 l7 432 -23 37 c-32 50 -104 83 -201 89 -160 10 -476 13 -506
4z"/>
<path d="M7152 3810 c-51 -4 -96 -11 -99 -14 -3 -3 11 -14 33 -23 34 -15 68
-17 258 -15 251 3 242 6 305 -87 l40 -59 16 -248 c9 -137 20 -344 24 -459 5
-144 12 -218 21 -235 l14 -25 9 40 c10 48 4 494 -13 810 l-11 230 -31 27 c-57
50 -106 61 -298 64 -96 1 -217 -1 -268 -6z"/>
<path d="M6426 3780 c-37 -5 -100 -14 -140 -21 l-71 -12 40 -10 c27 -7 98 -6
225 2 205 14 252 10 274 -24 53 -80 69 -280 59 -700 -10 -405 -10 -402 10
-422 9 -9 19 -14 22 -11 3 3 10 68 16 144 9 108 8 226 -4 524 -8 212 -14 398
-14 415 0 36 -46 77 -112 100 -56 19 -213 27 -305 15z"/>
<path d="M5410 3693 c-25 -1 -70 -6 -100 -9 -45 -5 -51 -8 -32 -15 34 -13 130
-14 304 -5 l156 9 27 -29 c15 -16 43 -53 62 -83 l34 -54 10 -226 c5 -124 13
-338 18 -476 4 -137 12 -258 16 -267 10 -26 24 -22 32 10 9 32 10 428 2 773
-7 276 -8 280 -84 325 -79 46 -232 62 -445 47z"/>
<path d="M4530 3635 c-52 -8 -99 -14 -104 -14 -5 -1 -1 -10 9 -21 22 -24 82
-42 121 -35 16 3 78 14 137 25 59 11 133 20 164 20 51 0 59 -3 89 -35 38 -41
60 -103 76 -220 12 -92 4 -471 -15 -655 -11 -105 -14 -115 -33 -118 -32 -5
-36 25 -35 291 l0 237 -37 0 c-46 0 -62 14 -62 55 0 43 16 55 72 55 l48 0 0
38 c-1 119 -126 225 -265 225 -105 0 -171 -48 -182 -133 -7 -53 9 -52 61 3 47
50 74 67 110 67 38 0 39 -14 5 -56 -76 -96 -90 -168 -38 -204 25 -19 30 -28
27 -58 -3 -30 -8 -37 -38 -47 l-35 -12 1 -99 c0 -54 3 -184 5 -289 2 -104 1
-202 -4 -217 -7 -27 -9 -28 -85 -28 -95 0 -118 -11 -83 -41 21 -17 33 -19 80
-13 120 14 136 19 139 39 2 11 8 32 13 47 l11 26 174 4 c150 3 176 5 191 21
16 16 18 42 18 295 0 152 -1 389 -3 525 -4 281 0 269 -91 310 -39 18 -68 22
-196 24 -89 1 -189 -4 -245 -12z"/>
<path d="M10093 3640 c-65 -13 -78 -24 -125 -102 -59 -99 -71 -130 -65 -175
13 -87 13 -86 -13 -93 -25 -6 -25 -8 -33 -135 -13 -204 -13 -412 -1 -425 7 -7
93 -9 260 -8 l249 3 0 335 c-1 290 -3 344 -19 399 -33 121 -78 180 -151 200
-44 12 -43 12 -102 1z"/>
<path d="M8210 3627 c-146 -34 -242 -129 -257 -257 -6 -49 -5 -50 20 -50 15 0
46 10 71 21 24 12 50 20 58 17 20 -8 44 -222 29 -261 -11 -27 -13 -28 -58 -21
-27 3 -51 8 -54 10 -4 2 -10 28 -13 58 -6 45 -11 56 -29 62 -12 3 -40 19 -61
35 -22 16 -53 29 -68 29 -49 0 -36 -37 36 -105 l64 -60 7 -232 7 -233 199 0
198 0 5 33 c3 17 7 93 9 167 3 74 10 149 16 165 17 42 61 85 86 85 22 0 22 -4
28 -187 5 -190 19 -274 37 -226 19 47 33 322 27 518 -6 207 -22 312 -54 368
-33 55 -192 89 -303 64z"/>
<path d="M9126 3626 c-61 -23 -108 -67 -147 -141 -37 -68 -37 -69 -22 -108 16
-38 15 -39 -11 -63 l-26 -25 0 -299 0 -300 62 0 c34 0 102 -5 150 -11 68 -9
99 -9 129 0 54 16 50 38 -9 46 -26 3 -54 10 -61 14 -17 11 -20 314 -2 356 25
59 36 65 130 65 130 0 127 4 135 -187 4 -87 10 -171 13 -188 l6 -30 8 35 c17
78 31 320 26 448 -8 205 -50 315 -143 372 -47 30 -177 38 -238 16z"/>
<path d="M7256 3574 c-35 -11 -65 -31 -106 -72 -68 -69 -85 -118 -78 -222 6
-73 2 -80 -45 -80 l-20 0 20 -22 c19 -21 22 -45 33 -280 l13 -258 264 0 263 0
0 176 0 176 -32 -7 c-60 -12 -115 -45 -194 -115 -96 -84 -122 -100 -134 -80
-18 28 -21 104 -9 219 10 98 10 130 -1 175 -12 52 -12 58 6 77 47 52 140 74
247 59 40 -6 81 -13 91 -16 18 -6 19 -2 14 54 -7 71 -47 153 -91 184 -65 46
-155 58 -241 32z"/>
<path d="M3835 3570 c-61 -10 -181 -44 -202 -57 -7 -5 -14 -59 -18 -143 -6
-113 -4 -138 8 -155 28 -36 39 -5 48 135 4 75 13 138 20 146 9 11 51 14 216
14 l204 0 15 -36 c17 -41 31 -164 18 -164 -4 0 -25 17 -46 37 -33 32 -45 37
-96 41 -79 6 -148 -24 -207 -90 -43 -48 -73 -117 -60 -139 10 -15 30 5 65 67
31 56 65 80 87 62 7 -6 13 -43 15 -91 3 -76 4 -80 26 -82 38 -3 42 -23 14 -84
-23 -49 -26 -70 -26 -166 -1 -60 3 -181 8 -267 l9 -158 146 0 146 0 -3 138
c-3 79 3 224 13 342 21 252 24 457 6 526 -14 58 -47 95 -101 114 -46 15 -228
21 -305 10z"/>
<path d="M6335 3567 c-108 -29 -165 -74 -183 -144 -10 -44 -4 -54 18 -28 16
20 46 19 54 -1 3 -9 6 -48 6 -88 0 -52 5 -83 20 -111 26 -50 26 -50 -9 -65
-16 -6 -32 -18 -35 -27 -6 -15 11 -442 20 -502 l5 -34 102 8 c56 4 170 10 252
14 l150 6 3 398 c2 379 1 399 -18 436 -25 51 -91 106 -149 126 -63 22 -175 27
-236 12z"/>
<path d="M5481 3520 c-42 -10 -80 -37 -108 -80 -36 -52 -29 -64 17 -34 22 15
43 24 47 21 3 -4 1 -24 -5 -46 -17 -54 -15 -160 3 -212 18 -50 14 -66 -18 -78
-23 -9 -23 -12 -35 -268 -7 -143 -10 -268 -6 -277 4 -9 12 -15 19 -12 8 3 101
8 209 12 l196 7 0 172 c0 214 -13 350 -45 460 -14 47 -25 87 -25 90 0 3 14 5
30 5 26 0 30 4 30 28 0 146 -151 249 -309 212z"/>
<path d="M4376 3463 c-14 -107 -3 -203 23 -203 16 0 24 164 11 204 -17 52 -26
52 -34 -1z"/>
<path d="M3085 3480 c-82 -10 -153 -19 -157 -19 -5 -1 -8 -110 -8 -244 0 -190
3 -247 14 -262 12 -17 14 -12 21 41 4 32 10 140 14 239 l6 180 188 3 188 2 29
-62 c29 -61 36 -89 25 -100 -3 -3 -36 3 -73 13 -93 26 -153 25 -180 -3 -34
-37 -72 -129 -72 -176 0 -39 2 -43 22 -40 19 2 26 14 38 62 15 61 35 84 63 73
34 -13 40 -74 44 -431 2 -192 5 -351 6 -353 2 -2 50 0 105 3 l102 7 0 428 c0
466 -10 623 -41 639 -34 19 -184 19 -334 0z"/>
<path d="M10998 3448 c-46 -12 -95 -66 -104 -113 -3 -20 -1 -62 5 -94 10 -49
9 -62 -5 -90 -14 -28 -16 -52 -10 -145 12 -220 18 -276 30 -276 24 -1 313 -30
355 -36 l44 -7 -6 179 c-3 99 -11 202 -18 230 -10 45 -10 58 5 93 30 77 18
138 -41 193 -60 57 -179 88 -255 66z"/>
<path d="M2444 3391 c-73 -18 -57 -26 65 -31 l125 -5 33 -55 c51 -85 45 -94
-58 -100 -51 -3 -93 -11 -103 -19 -40 -34 -59 -189 -31 -257 20 -47 33 -36 41
36 8 73 35 120 68 120 15 0 27 -7 30 -17 18 -63 29 -182 40 -418 l11 -270 33
1 c17 0 59 1 93 2 l61 2 -7 133 c-3 72 -12 296 -20 497 -9 200 -18 367 -23
371 -11 10 -322 19 -358 10z"/>
<path d="M2337 3133 c-9 -91 -9 -153 1 -153 29 1 34 20 30 109 -5 115 -22 139
-31 44z"/>
<path d="M6050 3142 c0 -16 -3 -71 -7 -121 l-6 -93 24 4 c23 3 24 6 29 108 3
58 9 111 13 118 6 8 -1 12 -22 12 -27 0 -31 -3 -31 -28z"/>
<path d="M5207 3153 c-14 -14 -3 -173 12 -173 3 0 14 30 24 68 10 37 20 77 23
90 6 19 3 22 -23 22 -16 0 -33 -3 -36 -7z"/>
<path d="M4383 3108 c-20 -10 -23 -19 -23 -74 0 -35 -5 -97 -11 -139 -9 -58
-9 -86 0 -116 24 -80 50 -31 57 106 2 50 6 123 8 163 5 76 4 77 -31 60z"/>
<path d="M3624 2963 c-4 -21 -8 -148 -8 -283 -1 -220 1 -251 19 -300 l20 -55
113 -3 c89 -2 113 0 110 10 -6 16 -58 35 -119 43 -76 10 -84 21 -84 112 1 43
5 157 9 253 10 195 1 260 -34 260 -14 0 -21 -10 -26 -37z"/>
<path d="M3050 2895 c0 -38 3 -45 19 -45 12 0 23 11 30 31 17 50 14 59 -19 59
-29 0 -30 -2 -30 -45z"/>
<path d="M2332 2823 c-8 -21 -8 -60 3 -286 5 -110 12 -170 20 -177 18 -15 36
12 36 52 1 75 -12 385 -17 406 -5 26 -32 29 -42 5z"/>
<path d="M1834 2598 c3 -123 10 -241 14 -262 7 -36 8 -38 22 -21 12 14 16 61
20 224 l5 206 47 3 c47 3 47 3 37 30 -14 37 -25 42 -93 42 l-59 0 7 -222z"/>
<path d="M2939 2744 c-17 -80 -18 -282 -1 -312 30 -52 37 -20 37 159 0 199
-14 256 -36 153z"/>
<path d="M10464 2572 c-6 -4 -15 -38 -19 -75 l-7 -68 39 3 38 3 9 64 c6 50 5
65 -5 72 -17 11 -40 11 -55 1z"/>
<path d="M9560 2500 c0 -56 1 -60 24 -60 19 0 24 6 30 38 12 72 9 82 -24 82
l-30 0 0 -60z"/>
<path d="M11262 2509 c-16 -68 -16 -69 13 -69 24 0 25 3 25 60 0 77 -21 82
-38 9z"/>
<path d="M7647 2533 c-4 -3 -7 -39 -7 -80 0 -66 2 -73 20 -73 22 0 25 27 14
114 -6 44 -13 54 -27 39z"/>
<path d="M8584 2516 c-3 -7 -4 -33 -2 -57 2 -37 7 -45 26 -47 21 -3 22 0 22
57 0 55 -2 61 -20 61 -11 0 -23 -6 -26 -14z"/>
<path d="M6700 2415 c0 -63 1 -65 25 -65 24 0 25 2 25 65 0 63 -1 65 -25 65
-24 0 -25 -2 -25 -65z"/>
<path d="M5795 2419 c-5 -34 -3 -55 5 -62 18 -19 40 20 40 70 0 36 -3 43 -19
43 -15 0 -20 -10 -26 -51z"/>
<path d="M5170 2415 c0 -32 2 -35 29 -35 17 0 51 11 77 25 26 14 60 25 75 25
16 0 29 5 29 10 0 6 -42 10 -105 10 l-105 0 0 -35z"/>
<path d="M4955 2357 c-4 -13 -5 -39 -3 -58 3 -30 7 -34 36 -37 36 -4 36 -4 19
63 -15 56 -42 73 -52 32z"/>
<path d="M4115 2313 c10 -43 33 -73 57 -73 18 0 20 4 14 38 -3 20 -6 43 -6 50
0 7 -14 12 -36 12 -34 0 -36 -1 -29 -27z"/>
<path d="M3351 2293 c2 -56 12 -96 27 -101 9 -3 12 15 12 67 0 64 -2 71 -20
71 -17 0 -20 -6 -19 -37z"/>
<path d="M2940 2293 c1 -45 15 -48 89 -19 39 15 71 30 71 32 0 2 -36 4 -80 4
-70 0 -80 -2 -80 -17z"/>
<path d="M2439 2282 c-16 -3 -29 -30 -29 -59 0 -19 69 -15 116 6 46 21 62 39
42 45 -20 7 -111 12 -129 8z"/>
<path d="M2684 2252 c9 -17 18 -48 22 -71 7 -46 14 -54 39 -45 13 5 15 19 13
73 l-3 66 -43 3 -43 3 15 -29z"/>
<path d="M1875 2173 c11 -73 36 -77 106 -21 29 23 45 29 75 26 l39 -3 3 -58
c3 -54 5 -58 25 -55 26 4 32 29 22 105 l-6 53 -136 0 -135 0 7 -47z"/>
<path d="M10789 2066 c-29 -15 -34 -32 -12 -42 10 -4 110 -10 223 -13 191 -6
208 -8 242 -29 25 -16 42 -37 54 -68 16 -41 16 -70 8 -322 -11 -335 -10 -662
3 -717 l9 -40 15 25 c11 20 13 61 11 190 -1 91 5 284 14 430 26 432 6 545
-106 578 -52 15 -433 22 -461 8z"/>
<path d="M10065 2055 c-5 -2 -55 -7 -110 -11 -95 -6 -98 -8 -70 -20 23 -11 85
-13 265 -11 261 2 294 -4 345 -65 25 -29 25 -31 25 -231 0 -111 -5 -348 -10
-526 -9 -309 -7 -371 10 -371 13 0 20 140 31 618 11 498 11 508 -39 555 -54
52 -93 61 -272 64 -91 1 -169 1 -175 -2z"/>
<path d="M9071 2029 c-104 -9 -126 -20 -90 -41 25 -14 145 -16 436 -7 100 2
155 0 163 -7 30 -30 41 -161 50 -599 8 -433 15 -561 30 -570 17 -10 21 154 18
610 -4 513 -7 537 -63 598 l-26 27 -212 -1 c-117 -1 -254 -6 -306 -10z"/>
<path d="M8023 2015 c-18 -8 -33 -18 -33 -23 0 -21 67 -27 315 -27 251 0 261
-1 302 -23 24 -12 49 -32 57 -45 12 -17 19 -128 36 -512 20 -463 20 -490 3
-502 -9 -7 -22 -13 -29 -13 -8 0 -11 -13 -8 -42 14 -125 25 -138 48 -55 40
137 46 339 21 652 -7 99 -17 255 -21 346 l-7 166 -46 40 -46 40 -280 6 c-229
5 -286 4 -312 -8z"/>
<path d="M598 1970 c-30 -17 -38 -27 -46 -67 -6 -26 -8 -50 -6 -52 3 -3 23 1
46 9 47 17 78 53 81 95 3 38 -23 43 -75 15z"/>
<path d="M7285 1964 c-11 -2 -65 -6 -119 -10 -80 -5 -96 -8 -80 -17 23 -14
157 -15 375 -3 91 5 177 6 191 3 18 -5 31 -20 45 -54 48 -113 54 -182 62 -658
5 -332 10 -436 21 -457 7 -16 17 -28 22 -28 4 0 8 245 8 544 l0 543 -22 34
c-29 43 -113 85 -198 99 -59 9 -256 12 -305 4z"/>
<path d="M6138 1938 c-30 -10 -35 -22 -15 -35 6 -4 127 -11 267 -14 272 -6
304 -11 358 -62 56 -52 54 -35 51 -618 -4 -501 -3 -539 13 -556 22 -21 37 -9
47 38 4 19 2 223 -5 454 -7 231 -13 473 -13 538 l-1 118 -47 47 c-35 35 -64
53 -105 66 -98 30 -486 48 -550 24z"/>
<path d="M5355 1930 c-38 -5 -86 -12 -105 -16 -35 -6 -35 -6 -10 -16 15 -6
131 -10 285 -9 l261 2 26 -28 c33 -35 53 -77 75 -150 16 -52 18 -114 18 -570
0 -281 4 -515 8 -520 5 -4 15 1 24 12 22 30 9 1123 -14 1173 -21 44 -74 86
-136 107 -61 21 -318 29 -432 15z"/>
<path d="M4537 1909 c-93 -4 -170 -9 -171 -11 -6 -9 11 -308 17 -315 13 -13
45 38 56 89 6 26 8 74 5 107 l-7 59 44 6 c214 27 436 35 494 18 28 -8 30 -12
31 -58 0 -27 4 -105 9 -174 15 -190 7 -262 -30 -286 -18 -12 -28 -13 -44 -4
-20 10 -21 19 -21 159 0 159 -14 233 -50 266 -16 15 -32 17 -87 13 -80 -6
-138 -32 -232 -106 -57 -44 -66 -56 -82 -108 -32 -102 -21 -155 14 -69 37 88
132 170 224 189 45 10 50 -9 12 -51 -43 -49 -84 -141 -106 -233 -14 -63 -17
-128 -18 -411 0 -316 -1 -338 -19 -358 -15 -17 -16 -22 -5 -26 8 -3 120 -4
249 -3 l235 3 4 65 c1 36 -3 332 -10 658 l-12 592 -166 -2 c-91 0 -242 -5
-334 -9z"/>
<path d="M392 1887 c-25 -27 -28 -59 -8 -76 12 -10 18 -8 29 11 8 13 18 38 22
56 8 39 -11 43 -43 9z"/>
<path d="M3627 1853 c-10 -10 -8 -111 2 -118 5 -3 26 6 46 19 48 33 105 38
323 29 101 -4 185 -7 186 -5 2 1 0 19 -3 40 l-6 37 -271 3 c-149 1 -273 -1
-277 -5z"/>
<path d="M9146 1825 c-68 -19 -135 -63 -170 -113 -34 -49 -41 -118 -17 -189
13 -38 12 -45 -10 -90 -23 -46 -24 -56 -25 -303 -1 -196 1 -259 12 -275 7 -11
18 -42 24 -70 11 -50 25 -75 41 -75 13 0 11 36 -7 96 -8 29 -14 70 -12 91 3
35 6 38 37 41 46 5 78 -28 97 -98 21 -77 43 -125 54 -114 4 5 10 117 13 249 4
213 7 248 26 308 27 83 83 146 149 165 53 16 72 5 72 -42 0 -17 9 -82 20 -145
33 -195 35 -243 10 -372 -26 -137 -24 -173 7 -177 26 -4 27 -1 52 148 38 232
35 447 -9 562 -18 46 -19 60 -9 103 10 45 8 62 -14 145 -30 110 -47 129 -137
154 -67 19 -137 19 -204 1z"/>
<path d="M10030 1777 c-55 -17 -126 -95 -144 -158 -22 -71 -21 -75 17 -85 30
-9 32 -13 32 -54 0 -42 -2 -45 -30 -50 l-30 -5 -3 -328 -2 -327 79 0 79 0 4
258 c4 229 7 264 26 323 12 36 31 74 42 84 23 21 133 34 144 17 6 -10 -7 -429
-19 -590 l-5 -73 98 3 97 3 0 300 0 300 -32 3 c-41 4 -43 24 -8 92 33 64 31
103 -5 167 -33 57 -80 98 -137 119 -45 16 -154 16 -203 1z"/>
<path d="M10923 1768 c41 -55 42 -65 18 -131 -21 -57 -24 -85 -31 -335 -4
-150 -9 -274 -11 -276 -66 -58 -104 -86 -120 -86 -18 0 -19 9 -19 264 l0 265
23 3 c30 4 34 41 8 74 -19 24 -27 48 -45 127 -8 35 -21 34 -36 -2 -9 -22 -9
-81 -1 -253 6 -122 13 -299 16 -393 8 -239 9 -242 51 -250 28 -5 39 -13 50
-40 8 -19 14 -46 14 -60 0 -26 1 -26 58 -20 31 3 84 8 117 9 l60 3 5 131 c3
72 7 132 10 134 3 2 22 11 42 21 l37 16 -3 313 c-3 231 -9 337 -21 403 -9 49
-18 92 -21 95 -3 3 -53 7 -112 8 l-106 4 17 -24z"/>
<path d="M5500 1748 c-77 -13 -160 -86 -195 -172 l-17 -40 36 32 c37 32 81 50
93 38 4 -4 -1 -35 -10 -70 -24 -92 -23 -113 12 -130 60 -32 55 -116 -7 -116
l-24 0 3 -302 4 -302 -58 -11 c-32 -5 -58 -14 -58 -20 0 -18 110 -25 326 -23
l210 3 8 345 8 345 -36 115 c-58 182 -66 203 -92 238 -47 63 -113 86 -203 70z"/>
<path d="M6374 1746 c-91 -23 -181 -89 -204 -150 -23 -62 -23 -66 4 -66 30 0
57 -32 76 -89 12 -36 11 -50 -5 -114 -15 -58 -20 -127 -24 -360 -6 -284 -6
-289 -28 -307 -13 -10 -23 -21 -23 -25 0 -10 522 -1 539 10 12 7 13 66 7 364
l-7 356 -25 26 c-34 35 -31 65 7 85 30 15 31 18 27 69 -7 79 -49 142 -118 177
-66 34 -153 43 -226 24z"/>
<path d="M8154 1739 c-99 -38 -174 -130 -190 -236 -6 -39 -4 -43 13 -43 41 0
45 -24 16 -81 -27 -51 -28 -60 -28 -194 0 -77 4 -211 9 -297 l9 -158 46 0 c25
0 116 -7 201 -16 124 -14 163 -15 198 -5 52 15 54 29 5 33 l-38 3 -3 100 c-4
128 16 483 29 507 11 21 93 26 105 6 5 -7 11 -125 16 -263 7 -238 16 -332 30
-309 4 5 12 95 19 200 16 252 1 537 -32 614 -26 62 -92 122 -156 144 -65 22
-185 20 -249 -5z"/>
<path d="M7262 1732 c-29 -11 -69 -32 -89 -48 -42 -34 -89 -113 -98 -166 -7
-36 -6 -37 29 -43 44 -9 58 -25 54 -62 -3 -24 -8 -28 -40 -31 l-38 -3 0 -287
c0 -215 -4 -305 -15 -357 -8 -38 -15 -71 -15 -72 0 -7 599 -2 603 5 3 4 8 100
12 214 l7 207 -33 5 c-19 4 -59 7 -89 9 l-55 2 -3 -98 c-3 -114 2 -120 73 -88
52 23 85 16 85 -19 0 -33 -47 -60 -106 -60 -50 0 -54 -2 -60 -27 -12 -60 -23
-74 -52 -71 -26 3 -27 5 -35 88 -14 161 -13 659 2 733 14 72 25 83 68 73 39
-10 74 -54 120 -149 23 -47 47 -88 54 -92 20 -13 4 125 -21 184 -25 57 -90
123 -147 146 -61 26 -150 29 -211 7z"/>
<path d="M4193 1645 c0 -22 2 -30 4 -17 2 12 2 30 0 40 -3 9 -5 -1 -4 -23z"/>
<path d="M3824 1646 c-39 -17 -74 -61 -74 -92 0 -13 2 -24 5 -24 3 0 28 16 56
35 39 27 61 35 95 35 23 0 46 -5 49 -10 4 -6 -15 -45 -40 -86 l-47 -76 31 -60
c37 -72 37 -81 11 -118 -40 -56 -45 -124 -25 -332 18 -193 15 -264 -10 -325
l-14 -33 165 0 c191 0 173 -13 195 135 17 107 17 582 1 715 l-11 85 4 -115 c2
-63 1 -133 -3 -155 -6 -34 -11 -40 -35 -43 -48 -6 -55 8 -56 126 -2 161 -39
278 -104 326 -35 26 -147 33 -193 12z"/>
<path d="M4203 1545 c0 -27 2 -38 4 -22 2 15 2 37 0 50 -2 12 -4 0 -4 -28z"/>
<path d="M6052 1206 c-3 -120 0 -162 12 -190 29 -71 36 -43 36 154 l0 190 -23
0 c-22 0 -22 -1 -25 -154z"/>
<path d="M4363 1198 c4 -84 10 -166 15 -183 8 -28 9 -29 19 -10 28 53 43 231
27 314 -6 26 -11 31 -37 31 l-30 0 6 -152z"/>
<path d="M5116 1338 c-22 -69 -4 -529 19 -506 27 27 25 518 -2 518 -7 0 -15
-6 -17 -12z"/>
<path d="M3626 1264 c-11 -29 -18 -308 -8 -369 l9 -60 13 30 c9 20 15 92 18
223 4 166 2 192 -11 192 -8 0 -18 -7 -21 -16z"/>
<path d="M2910 1081 c0 -96 4 -162 10 -166 20 -13 34 54 38 188 l4 137 -26 0
-26 0 0 -159z"/>
<path d="M1846 1164 c-15 -112 -4 -554 14 -554 4 0 13 14 20 31 10 23 12 85 7
262 -6 231 -13 307 -27 307 -4 0 -10 -21 -14 -46z"/>
<path d="M2347 1163 c-3 -4 -8 -118 -12 -252 l-8 -244 24 6 c13 4 30 7 37 7
10 0 12 52 10 243 -3 239 -3 242 -25 245 -11 2 -23 0 -26 -5z"/>
<path d="M10318 441 c-64 -4 -120 -9 -123 -13 -10 -10 45 -47 82 -54 19 -4 81
-1 136 6 60 7 290 14 555 17 248 3 452 8 452 12 -1 34 -9 35 -502 36 -266 1
-536 -1 -600 -4z"/>
</g>
</svg>
