<?xml version="1.0" encoding="UTF-8"?>
<svg xmlns="http://www.w3.org/2000/svg" xmlns:xlink="http://www.w3.org/1999/xlink" width="587.7pt" height="598.2pt" viewBox="0 0 587.7 598.2" version="1.1">
<defs>
<clipPath id="clip1">
  <path d="M 0 1 L 587.699219 1 L 587.699219 598.199219 L 0 598.199219 Z M 0 1 "/>
</clipPath>
</defs>
<g id="surface1">
<g clip-path="url(#clip1)" clip-rule="nonzero">
<path style=" stroke:none;fill-rule:evenodd;fill:rgb(13.719177%,12.156677%,12.547302%);fill-opacity:1;" d="M 305.015625 35.195313 C 308.867188 33.066406 311.929688 34.140625 320.121094 33.628906 C 319.492188 23.585938 314.550781 23.773438 304.949219 23.808594 Z M 287.773438 580.707031 L 278.097656 581.203125 C 279.398438 578.082031 278.765625 576.957031 282.59375 576.761719 C 286.761719 576.550781 286.761719 578.226563 287.773438 580.707031 Z M 320.054688 579.15625 C 326.898438 574.019531 327.636719 577.492188 329.359375 581.1875 C 320.132813 580.902344 323.597656 581.824219 320.054688 579.15625 Z M 375.617188 370.371094 C 375.765625 376.453125 376.601563 376.167969 373.484375 380.078125 C 370.839844 376.320313 371.402344 369.199219 371.25 364.621094 C 369.816406 321.625 360.898438 112.503906 358.566406 107.027344 C 356.394531 110.472656 358.054688 132.839844 358.195313 138.402344 C 361.132813 216.195313 365.289063 302.910156 366.367188 378.980469 C 353.597656 373.371094 353.445313 378.382813 344.292969 375.410156 C 343.957031 326.941406 342.050781 278.960938 340.714844 230.605469 C 340.078125 207.582031 338.902344 183.714844 337.621094 161.007813 C 336.957031 149.273438 336.277344 137.851563 335.550781 126.164063 C 335.179688 120.1875 334.828125 114.625 334.414063 108.625 C 334.199219 105.539063 333.726563 101.941406 333.578125 99 C 333.199219 91.558594 333.882813 92.324219 335.511719 90.570313 C 340.082031 93.25 338.511719 92.765625 339.441406 107.230469 L 341.273438 123.144531 C 341.367188 123.5 341.558594 123.992188 341.640625 124.277344 C 341.726563 124.5625 341.863281 125.042969 342.035156 125.398438 L 341.917969 91.515625 L 371.925781 96.675781 L 409.195313 109.433594 L 419.800781 112.640625 L 431.816406 115.714844 L 378.136719 161.578125 L 397.410156 136.542969 L 412.890625 115.398438 L 393.195313 132.363281 L 375.488281 148.820313 C 381.9375 130.402344 380.210938 125.078125 388.480469 106.6875 C 380.515625 113.425781 374.246094 112.277344 370.351563 100.03125 C 367.898438 103.921875 374.953125 343.957031 375.617188 370.371094 Z M 374.28125 195.851563 C 389.402344 194.972656 392.132813 185.101563 430.484375 182.902344 L 480.535156 180.074219 C 487.269531 179.152344 487.605469 176.636719 492.144531 174.652344 C 494.390625 169.371094 501.597656 162.765625 501.898438 156.296875 C 505.496094 152.621094 506.109375 149.246094 507.621094 143.75 C 508.6875 139.863281 509.71875 135.0625 511.175781 131.066406 C 518.238281 128.832031 536.195313 132.273438 567.003906 125.707031 L 575.667969 122.371094 C 583.472656 116.523438 586.382813 118.078125 587.714844 109.417969 C 575.925781 101.351563 581.300781 103.542969 564.699219 103.589844 C 562.679688 102.878906 564.410156 98.472656 550.871094 98.03125 C 524.285156 97.167969 533.792969 107.4375 507.691406 106.855469 C 495.859375 106.59375 487.90625 112.421875 477.601563 110.410156 C 464.015625 107.753906 458.421875 108.863281 444.46875 109.363281 C 417.230469 110.339844 410.308594 105.179688 387.414063 97.363281 C 353.210938 85.683594 350.789063 90.152344 329.273438 84.957031 C 321.007813 50.515625 340.785156 2.738281 300.164063 1.171875 C 268.671875 -0.0429688 271.363281 52.085938 266.488281 78.976563 C 264.839844 88.066406 263.976563 83.953125 244.617188 85.222656 C 215.925781 87.097656 218.65625 89.269531 197.761719 94.054688 C 189.46875 95.953125 180.613281 92.746094 172.558594 96.148438 C 160.324219 101.316406 165.910156 101.09375 149.75 101.570313 L 95.492188 103.320313 C 90.074219 102.96875 89.527344 101.421875 83.226563 101.53125 C 71.179688 101.738281 81.5 103.425781 72.421875 104.660156 C 61.867188 98.746094 63.671875 93.90625 45.304688 93.917969 L 26.3125 93.96875 C 26.191406 94.269531 26.941406 95.714844 24.957031 99.4375 C 13.316406 100.308594 6.066406 97.914063 0.0117188 107.21875 C 5.636719 119.398438 21.605469 120.875 33.484375 122.953125 C 48.363281 125.550781 64.050781 123.800781 79.3125 124.46875 C 83.117188 139.4375 100.949219 167.808594 109.96875 171.953125 C 115.191406 184.195313 152.777344 176.445313 167.320313 176.730469 C 181.121094 177 206.300781 192.832031 218.847656 193.371094 L 217.105469 293.003906 C 220.789063 295.191406 218.550781 293.609375 221.574219 294.574219 L 225.488281 295.722656 C 223.746094 319.332031 231.886719 300.449219 229.652344 325.546875 C 228.71875 336.046875 228.03125 350.109375 230.230469 360.339844 C 234.976563 382.414063 233.675781 476.226563 234.214844 505.921875 C 234.621094 528.152344 236.714844 559.203125 234.785156 580.511719 C 225.078125 585.390625 210.621094 582.644531 209.011719 588.648438 L 209.046875 598.152344 L 402.429688 598.144531 L 401.394531 586.359375 L 374.09375 581.191406 C 370.429688 563.1875 368.292969 474.742188 371.039063 456.601563 C 379.617188 450.863281 376.988281 448.160156 376.960938 428.625 C 376.949219 419.332031 375.863281 401.523438 376.796875 393.3125 C 378.222656 380.773438 382.074219 396.074219 380.632813 364.621094 C 379.222656 333.722656 373.382813 213.632813 374.28125 195.851563 Z M 227.625 244.1875 C 228.386719 229.757813 232.707031 188.886719 230.585938 177.304688 C 232.742188 173.785156 232.015625 165.761719 232.878906 160.582031 L 241.132813 163.570313 L 238.757813 187.238281 C 238.054688 207.441406 234.382813 237.300781 232.507813 259.230469 C 231.628906 269.53125 232.773438 278.511719 228.378906 280.515625 C 224.351563 278.90625 225.566406 279.261719 225.84375 272.785156 C 225.964844 269.953125 226.347656 266.609375 226.539063 263.691406 C 226.953125 257.453125 227.304688 250.671875 227.625 244.1875 Z M 245.511719 188.140625 C 247.246094 185.316406 246.996094 182.089844 247.234375 177.71875 C 247.882813 165.992188 247.777344 169.246094 250.074219 167.800781 C 254.785156 171.738281 253.925781 217.789063 254.222656 226.558594 C 254.535156 235.871094 254.789063 281.605469 257.363281 285.640625 L 256.757813 305.105469 C 252.667969 300.722656 255.019531 301.042969 249.542969 297.566406 C 245.734375 295.152344 242.816406 294.4375 239.179688 291.652344 C 239.105469 269.390625 247.699219 200.441406 245.511719 188.140625 Z M 264.054688 248.121094 C 262.472656 242.117188 256.859375 231.324219 260.925781 227.003906 C 266.925781 238.855469 272.453125 258.765625 277.898438 271.910156 C 294.910156 312.949219 302.183594 329.941406 326.351563 365.886719 C 331.140625 373.011719 328.570313 370.75 329.753906 379.082031 C 330.945313 387.449219 335.292969 396.171875 336.757813 404.824219 C 336.5 404.570313 336.105469 403.84375 335.96875 404.082031 C 335.824219 404.324219 335.339844 403.492188 335.148438 403.324219 L 333.363281 401.769531 C 333.148438 401.582031 332.734375 401.242188 332.421875 400.980469 C 331.964844 397.507813 316.496094 372.226563 312.859375 365.839844 C 306.25 354.25 300.246094 341.023438 294.613281 328.503906 C 282.792969 302.246094 274.433594 276.324219 264.054688 248.121094 Z M 331.492188 406.328125 C 335.015625 411.457031 336.859375 409.40625 338.324219 413.953125 C 339.011719 416.089844 338.789063 417.28125 338.828125 419.527344 C 324.28125 414.933594 310.445313 405.53125 296.191406 401.414063 C 294.914063 399.898438 267.769531 386.332031 263.644531 383.867188 C 260.648438 382.082031 258.96875 381.121094 255.929688 379.382813 C 247.605469 374.625 247.15625 368.980469 246.300781 349.832031 C 249.363281 352.371094 260.996094 367.789063 270.5625 375.589844 C 277.378906 381.148438 290.449219 392.769531 301.898438 394.765625 L 287.894531 377.222656 C 282.808594 370.324219 279.515625 364.875 274.84375 357.789063 C 267.125 346.09375 257.890625 330.324219 251.308594 317.421875 C 251.5625 317.175781 252.027344 316.542969 252.167969 316.804688 L 257.832031 313.078125 C 259.539063 310.859375 259.351563 307.179688 259.558594 303.921875 C 259.984375 297.152344 260.214844 290.058594 260.542969 282.921875 C 263.992188 287.738281 270.992188 347.46875 305.542969 383.984375 L 324.0625 402.109375 C 324.738281 402.683594 326.296875 403.921875 327.167969 404.460938 C 331.453125 407.09375 328.078125 405.652344 331.492188 406.328125 Z M 352.652344 576.324219 L 331.71875 575.808594 C 325.664063 575.128906 324.847656 570.410156 317.570313 577.570313 C 315.144531 579.957031 317.507813 579.640625 314.507813 580.027344 L 313.296875 427.246094 C 313.351563 426.964844 310.703125 428.648438 315.171875 422.507813 C 322.085938 426.414063 318.953125 449.125 319 457.101563 C 319.148438 483.960938 322.738281 554.597656 320.5 571.128906 C 334.042969 571.324219 339.402344 572.25 351.78125 575.039063 Z M 353.074219 572.902344 C 345.445313 565.179688 348.324219 565 347.492188 541.175781 L 344.6875 432.425781 L 352.265625 434.707031 C 352.808594 446.332031 352.078125 503.292969 355.042969 508.042969 C 352.550781 522.464844 355.601563 553.277344 355.59375 569.664063 C 354.871094 573.308594 356.078125 571.109375 353.074219 572.902344 Z M 358.347656 509.984375 L 356.53125 436.714844 C 360.148438 437.882813 360.746094 438.425781 362.902344 440.023438 C 359.75 450.71875 368.773438 558.472656 368.894531 581.042969 C 356.648438 578.574219 359.949219 568.0625 359.347656 548.316406 C 358.980469 536.242188 359.265625 521.890625 358.347656 509.984375 Z M 365.085938 437.496094 C 361.980469 431.574219 353.019531 425.824219 344.804688 423.433594 C 346.71875 421.300781 344.898438 422.898438 347.289063 421.410156 C 350.542969 419.390625 352.832031 419.269531 357.621094 415.476563 C 361.40625 412.476563 366.382813 407.535156 369.164063 405.839844 L 368.867188 435.277344 C 367.738281 439.777344 370.609375 436.722656 366.710938 438.855469 C 367.308594 436.46875 366.808594 437.953125 365.085938 437.496094 Z M 495.394531 145.988281 C 489.464844 150.3125 493.019531 155.214844 482.054688 156.394531 C 475.085938 157.148438 465.996094 157.832031 458.949219 157.835938 L 489.429688 126.734375 C 484.609375 128.734375 476.574219 135.03125 471.5 138.800781 C 465.566406 143.21875 460.152344 147.175781 453.355469 151.851563 C 437.867188 162.503906 433.695313 168.710938 410.59375 170.535156 C 413.113281 166.183594 420.1875 158.015625 424.226563 155.242188 L 441.425781 143.992188 L 459.246094 131.957031 C 471.398438 122.90625 476.183594 117.183594 491.046875 113.707031 C 498.40625 111.984375 502.117188 110.140625 509.945313 111.515625 C 506.621094 123.628906 499.289063 135.144531 495.394531 145.988281 Z M 451.199219 133.4375 L 432.238281 143.527344 L 459.433594 116.355469 C 459.511719 116.277344 460.441406 115.75 460.550781 115.746094 L 478.046875 115.355469 Z M 415.335938 147.726563 L 379.507813 176.101563 L 428.902344 121.933594 C 440.421875 110.5 438.683594 113.949219 458.921875 112.867188 C 460.09375 114.195313 421.648438 142.53125 415.335938 147.726563 Z M 173.609375 128.074219 L 178.199219 134.417969 L 130.464844 107.800781 L 142.980469 105.871094 Z M 150.6875 138.308594 C 147.589844 136.042969 139.023438 128.746094 136.25 128.164063 L 113.75 106.757813 L 128.207031 108.535156 Z M 150.667969 143.425781 L 101.777344 118.824219 L 147.585938 159.632813 L 121.242188 163.433594 C 119.734375 160.457031 86.476563 120.917969 79.726563 106.15625 C 87.324219 105.296875 89.324219 107.816406 96.796875 107.640625 C 107.214844 107.394531 106.269531 104.996094 113.054688 111.3125 Z M 214.207031 136.351563 C 208.382813 133.125 203.730469 130.328125 198.128906 126.613281 C 192.628906 122.964844 170.566406 106.886719 167.835938 106.253906 C 170.4375 94.566406 197.414063 98.820313 200.933594 100.789063 C 214.019531 108.105469 224.023438 119.050781 253.210938 132.65625 L 278.207031 143.917969 C 270.6875 147.335938 260.816406 149.03125 252.21875 150.363281 C 238.523438 152.492188 225.714844 142.71875 214.207031 136.351563 Z M 166.578125 106.207031 L 175.867188 125.667969 L 152.019531 105.597656 C 157.980469 105.492188 160.828125 104.882813 166.578125 106.207031 Z M 297.996094 581.417969 L 298.328125 417.152344 C 310.34375 419.886719 307.660156 417.710938 308.070313 450.320313 C 308.570313 490.390625 309.855469 543.113281 308.886719 580.972656 Z M 326.019531 426.09375 C 328.59375 431.054688 329.359375 514.574219 329.785156 531.652344 C 329.953125 538.316406 332.96875 561.949219 328.730469 567.007813 C 324.566406 564.59375 326.84375 567.816406 326.203125 552.03125 L 325.144531 497.703125 C 324.96875 485.492188 324.535156 473.339844 324.324219 461.171875 C 324.222656 455.316406 324.105469 449.382813 324.042969 443.539063 L 323.867188 429.929688 C 324.648438 425.738281 323.863281 428.03125 326.019531 426.09375 Z M 332.789063 428.53125 C 342.570313 430.390625 339.261719 429.941406 340.097656 458.464844 L 342.96875 568.738281 C 332.902344 567.085938 336.308594 568.546875 335.457031 538.46875 C 335.109375 526.191406 334.863281 514.191406 334.527344 501.855469 C 333.867188 477.664063 332.574219 452.734375 332.789063 428.53125 Z M 343.945313 413.679688 C 343.671875 401.4375 341.128906 391.207031 351.960938 386.671875 C 362.828125 382.117188 367.101563 391.613281 370.589844 396.476563 L 372.8125 399.527344 C 363.441406 400.578125 358.113281 411.792969 343.945313 413.679688 Z M 295.136719 296.996094 C 299.421875 302.277344 305.910156 309.953125 310.621094 313.851563 C 316.722656 318.898438 322.5625 324.449219 329.894531 328.589844 L 329.714844 365.914063 C 322.664063 359.359375 300.398438 308.546875 295.136719 296.996094 Z M 278.28125 176.042969 C 289.332031 174.34375 290.550781 176.789063 307.996094 186.285156 C 312.84375 188.921875 316.578125 191.425781 320.6875 193.902344 C 325.949219 197.078125 331.242188 197.484375 330.734375 204.160156 C 320.964844 202.132813 289.898438 186.21875 281.300781 179.078125 Z M 258.867188 170.3125 C 263.726563 171.023438 270.136719 177.050781 274.714844 180.214844 L 310.792969 201.105469 C 316.519531 203.761719 326.921875 206.929688 330.929688 210.285156 L 330.027344 324.648438 C 325.207031 321.890625 322.375 316.757813 318.265625 311.632813 C 299.046875 287.675781 264.289063 223.722656 259.003906 199.363281 L 287.523438 218.945313 C 294.21875 223.65625 309.847656 235.128906 317.910156 237.796875 C 314.042969 232 292.6875 212.273438 286.046875 205.519531 C 280.457031 199.835938 276.621094 195.238281 270.804688 189.574219 C 265.730469 184.636719 257.570313 179.722656 258.867188 170.3125 Z M 296.707031 172.625 C 307.546875 170.125 307.09375 171.558594 314.824219 176.742188 C 320.746094 180.714844 325.058594 182.640625 330.902344 186.414063 L 331.121094 194.089844 C 325.570313 192.832031 299.625 176.207031 296.707031 172.625 Z M 297.285156 161.308594 L 331.457031 134.335938 L 331.34375 150.722656 C 314.234375 156.738281 322.496094 160.4375 297.285156 161.308594 Z M 257.445313 154.683594 C 268.832031 150.210938 314.261719 146.71875 330.984375 115.933594 L 331.714844 130.707031 L 300.882813 153.925781 C 293.503906 159.457031 293.015625 161.34375 280.101563 159.578125 C 273.347656 158.652344 262.445313 158.015625 257.445313 154.683594 Z M 260.035156 125.4375 L 313.730469 125.296875 C 313.871094 136.25 290.976563 142.777344 287.011719 142.277344 C 273.878906 140.617188 265.890625 134.433594 260.035156 125.4375 Z M 546.003906 121.910156 C 535.8125 123.796875 527.707031 121.785156 517.984375 120.988281 C 525.769531 109.828125 530.53125 117.820313 544.359375 116.574219 L 546.75 110.367188 L 550.382813 116.5 Z M 40.835938 105.582031 L 42.609375 108.527344 C 45.863281 113.582031 43.542969 112.621094 59.273438 110.648438 C 65.46875 109.871094 67.125 111.507813 70.242188 116.210938 C 58.5 117.953125 46.566406 121.0625 38.859375 112.929688 Z M 317.804688 126.273438 C 318.902344 119.839844 320.660156 113.824219 322.363281 107.78125 L 326.863281 91.691406 C 328.214844 89.136719 327.226563 90.820313 328.730469 89.367188 L 330.429688 93.472656 C 331.355469 98.0625 331.738281 107.871094 330.238281 111.441406 C 327.984375 116.796875 321.335938 124.328125 317.804688 126.273438 Z M 201.761719 96.941406 C 219.625 90.476563 217.875 93.925781 235.5 106.875 C 240.050781 110.214844 258.070313 128.492188 260.914063 132.617188 C 250.40625 128.417969 239.554688 122.300781 229.945313 116.539063 C 221.671875 111.578125 206.402344 102.238281 201.761719 96.941406 Z M 244.011719 101.113281 C 247.269531 106.300781 249.042969 108.800781 252.871094 112.601563 C 256.695313 116.398438 257.445313 118.140625 260.414063 121.890625 C 253.773438 122.4375 253.125 119.136719 249.617188 115.773438 L 221.96875 92.300781 C 228.65625 89.867188 246.546875 88.410156 254.335938 89.382813 L 273.035156 122.265625 C 259.777344 122.433594 262.753906 121.4375 256.679688 114.167969 Z M 273.003906 89.796875 L 281.761719 87.441406 L 284.273438 67.640625 C 287.8125 70.027344 285.140625 67.179688 287.945313 72.058594 C 292.925781 80.714844 297.6875 101.007813 306.976563 79.988281 C 309.285156 74.765625 310.554688 73.328125 313.34375 69.558594 C 313.609375 73.980469 313.257813 78.914063 314.949219 83.089844 C 316.5 86.902344 317.441406 86.773438 321.957031 89.722656 L 315.578125 122.324219 L 285.332031 122.238281 Z M 281.671875 122.292969 C 274.492188 121.980469 276.757813 122.058594 273.035156 115.457031 L 258.039063 88.894531 L 269.507813 89.421875 Z M 286.789063 54.671875 C 290.667969 58.015625 289.746094 57.410156 290.136719 61.480469 C 291.621094 58.695313 291.15625 59.726563 296.988281 59.117188 L 296.183594 66.636719 C 287.765625 67.632813 285.984375 62.902344 286.789063 54.671875 Z M 293.589844 38.480469 C 281.933594 47.808594 281.375 33.425781 288.332031 34.917969 C 292.726563 35.859375 293.214844 38.003906 293.589844 38.480469 Z M 304.023438 66.75 C 296.878906 61.011719 301.691406 59.265625 302.824219 57.042969 L 306.585938 57.167969 C 306.847656 57.125 307.644531 56.9375 307.886719 56.871094 C 313.332031 55.308594 308 49.804688 307.097656 47.609375 C 305.617188 44.011719 312.679688 42.382813 302.972656 40.058594 L 299.0625 39.410156 C 301.136719 35.085938 301.277344 27.386719 299.957031 22.828125 L 287.101563 22.636719 C 289.855469 6.621094 317.828125 8.582031 321.375 22.203125 C 324.019531 32.355469 321.035156 51.601563 317.109375 60.527344 C 312.902344 70.089844 311.484375 62.648438 311.453125 62.582031 C 311.550781 69.253906 312.578125 66.179688 308.390625 69.328125 Z M 271.675781 404.835938 C 276.683594 407.011719 275.574219 405.363281 276.335938 410.855469 L 276.304688 552.035156 C 276.332031 559.609375 279.035156 568.371094 271.773438 568.871094 C 270.214844 566.085938 269.863281 408.613281 271.675781 404.835938 Z M 262.28125 399.972656 C 267.667969 403.371094 265.421875 429.890625 265.421875 440.828125 L 265.484375 565.730469 C 264.550781 570.285156 266.121094 568.5 262.28125 570.210938 C 261.472656 568.601563 261.949219 571.585938 261.183594 566.867188 L 261.449219 401.933594 C 261.53125 401.625 261.765625 401.167969 261.839844 400.929688 C 261.914063 400.695313 262.101563 400.273438 262.28125 399.972656 Z M 281.988281 410.347656 L 290.4375 413.707031 L 290.230469 576.929688 C 283.222656 570.609375 263.757813 580.03125 254.445313 575.539063 L 283.421875 570.414063 C 279.113281 561.914063 281.769531 507.632813 281.769531 492.363281 C 281.769531 466.667969 280.167969 435.34375 281.988281 410.347656 Z M 281.988281 410.347656 "/>
</g>
</g>
</svg>
