<?xml version="1.0" encoding="iso-8859-1"?>
<!-- Uploaded to: SVG Repo, www.svgrepo.com, Generator: SVG Repo Mixer Tools -->
<svg fill="#000000" height="800px" width="800px" version="1.1" id="Capa_1" xmlns="http://www.w3.org/2000/svg" xmlns:xlink="http://www.w3.org/1999/xlink" 
	 viewBox="0 0 19.938 19.938" xml:space="preserve">
<g>
	<path d="M12.021,14.593l0.307,0.459l0.696,0.021l-0.435-0.395L12.021,14.593z M6.894,14.769l0.981-0.045l0.088-0.369l-0.938,0.086
		L6.894,14.769z M8.6,14.781l-0.104,0.947l0.928-0.027L9.36,14.789L8.6,14.781z M18.511,7.132c-0.72-0.606-1.8-0.469-2.328-0.524
		c-0.524-0.058-0.665-0.806-1.247-1.025c-0.581-0.223-1.33-2.438-1.913-2.744C12.442,2.534,12,3.395,11.281,3.782
		c-0.722,0.387-2.273,3.713-2.355,3.824C8.84,7.712,8.783,7.77,8.341,7.826C7.896,7.88,7.426,8.489,7.122,8.823
		C6.817,9.157,6.318,8.186,5.737,7.494C5.155,6.8,5.267,6.8,4.295,7.66c-0.803,0.711-1.645,2.982-1.909,3.742
		c-0.13,0.104-0.249,0.217-0.308,0.303c-0.166,0.25-0.109,0.308-0.58,0.5c-0.474,0.193-0.251,0.193-0.722,0.388
		c-0.472,0.193-0.691,0.248-0.691,0.441S0,13.423,0,13.423v3.74h19.938v-9.19C19.506,7.805,18.985,7.535,18.511,7.132z
		 M16.654,13.63l-0.936-0.051l0.052-0.563l0.831,0.055L16.654,13.63z M16.278,11.841l0.299,0.347h-1.046l-0.026-0.347H16.278z
		 M15.049,11.197c0.267,0.168,0.477,0.307,0.477,0.307l-1.068-0.021l-0.073-0.482C14.384,11,14.783,11.033,15.049,11.197z
		 M15.37,12.937v0.455l-0.776-0.162l-0.188-0.373L15.37,12.937z M13.897,12.107l-0.053-0.295l1.068,0.028l0.083,0.267H13.897z
		 M13.604,10.771l0.319,0.293H13.31l-0.43-0.375C12.961,10.662,13.604,10.771,13.604,10.771z M8.867,10.317c0,0,0.91,0.024,1.283,0
		c0.376-0.029,0.803,0.185,0.803,0.185l-0.025,0.271l-0.749,0.024L9.51,11.089l-0.802-0.375C8.708,10.714,8.759,10.317,8.867,10.317
		z M14.356,16.728l-0.565-0.58l-0.937-0.027l0.389,0.607H12.13l-0.806-1.275H10.58l0.563,1.275H7.076l0.254-0.979l-0.525,0.066
		l-0.432,0.912H0.542v-1.689l2.623-1.514H2.097l0.229-0.228l1.593,0.015l0.104,0.666L0.92,15.773l0.934,0.024l2.839-2.006
		l-0.267-0.242l0.239-0.104l0.455,0.104l0.561-0.131l0.27-0.35l-1.846-0.025l0.479-0.321l1.528-0.027l0.321-0.105l0.294,0.025
		L6.699,12.91l-1.044,0.992l0.161,0.184l-0.534,0.271L5.013,14.33L3.06,16.068l0.403,0.211l-0.298,0.188l0.726-0.024l0.268-0.348
		l-0.296-0.162L4.022,15.4l0.456,0.026l0.749-0.856l0.855-0.055l0.351-0.589l1.202-0.188l0.482-0.937l0.32,0.082L8.42,13.086
		l0.711,0.144l0.351,0.242l0.348-0.027l0.722,0.803h0.749l-0.349-0.373l0.08-0.137l0.481,0.322h0.482l0.374,0.297l0.481-0.027h0.402
		l0.214,0.318l0.427,0.104l2.251,1.976C16.144,16.728,14.356,16.728,14.356,16.728z M14.753,14.488l-1.394-0.91l-0.879-2.115
		l-0.961-0.75l0.268-0.024l1.23,0.883l0.692,1.475l1.178,0.806c0,0,1.951,0.106,2.033,0.137c0.08,0.025,0.185,0.561,0.185,0.561
		L14.753,14.488z M17.109,12.775l-0.377-0.43l0.511-0.132l0.35,0.24l0.16,0.455L17.109,12.775z"/>
</g>
</svg>