<?xml version="1.0" standalone="no"?>
<!DOCTYPE svg PUBLIC "-//W3C//DTD SVG 20010904//EN"
 "http://www.w3.org/TR/2001/REC-SVG-20010904/DTD/svg10.dtd">
<svg version="1.0" xmlns="http://www.w3.org/2000/svg"
 width="1200.000000pt" height="900.000000pt" viewBox="0 0 1200.000000 900.000000"
 preserveAspectRatio="xMidYMid meet">
<metadata>
Created by potrace 1.16, written by Peter Selinger 2001-2019
</metadata>
<g transform="translate(0.000000,900.000000) scale(0.100000,-0.100000)"
fill="#000000" stroke="none">
<path d="M0 8415 c0 -578 0 -585 20 -585 23 0 26 10 8 28 -9 9 -7 12 11 12 13
0 50 10 82 21 42 15 59 27 60 40 1 11 2 23 3 28 0 5 15 26 33 45 21 24 33 32
37 24 5 -10 7 -10 12 0 3 6 10 9 15 6 6 -3 25 6 43 19 18 14 46 27 62 29 17 2
28 8 27 16 -4 17 14 15 21 -3 3 -8 16 -15 28 -15 21 1 22 1 5 11 -17 10 -17
12 10 26 15 8 39 16 53 18 13 1 26 8 28 14 2 6 10 11 18 11 9 0 13 -4 9 -10
-3 -5 3 -18 14 -29 16 -16 22 -17 31 -6 8 10 8 14 -2 17 -10 4 -9 8 2 19 21
21 48 30 55 19 4 -6 19 -10 35 -10 16 0 32 -4 35 -10 3 -5 22 -10 41 -10 28 0
35 4 33 18 -3 35 1 41 34 40 58 -1 78 -8 87 -31 8 -21 9 -21 9 6 1 22 6 27 26
27 14 0 25 -5 25 -11 0 -7 10 -5 25 5 13 9 31 16 40 16 8 0 15 9 15 20 0 11 5
20 10 20 6 0 10 -6 10 -14 0 -15 70 -36 119 -36 16 0 32 -6 34 -12 4 -8 8 -4
12 10 4 12 15 22 24 22 28 0 71 -24 77 -43 3 -9 10 -15 15 -12 5 4 9 -1 9 -9
0 -17 34 -39 44 -29 3 3 6 17 6 30 0 20 4 23 20 18 12 -4 20 -2 20 5 0 8 9 10
25 6 23 -6 30 1 26 27 -1 7 7 9 44 11 12 1 21 9 21 21 3 36 4 38 17 27 10 -8
16 -6 25 9 7 11 17 17 22 14 6 -3 10 -1 10 5 0 6 4 8 10 5 5 -3 22 1 37 8 18
10 54 14 103 13 58 -2 78 1 88 13 8 9 11 10 7 4 -7 -15 11 -18 20 -3 3 6 15
10 26 10 10 0 19 5 19 11 0 7 12 9 35 5 24 -5 35 -3 35 5 0 11 10 10 71 -3 8
-2 13 3 11 10 -3 17 15 15 22 -3 11 -30 63 -14 79 25 5 13 6 13 6 0 1 -9 -4
-21 -11 -28 -13 -13 -3 -15 27 -3 11 4 20 14 20 22 0 8 5 15 10 16 6 1 10 -7
9 -17 -1 -26 8 -25 35 4 13 14 20 30 16 36 -5 8 -10 8 -14 2 -4 -6 -15 -6 -30
0 -23 8 -24 9 -5 23 10 8 29 15 42 15 13 0 22 6 22 15 0 8 7 15 15 15 9 0 15
-9 15 -25 0 -14 3 -25 6 -25 16 0 44 23 44 35 0 18 30 20 30 3 0 -7 6 -5 12 6
19 34 43 58 65 67 15 5 21 14 17 24 -4 10 0 15 14 15 12 0 24 5 27 10 3 6 17
10 29 10 28 0 52 26 48 52 -2 10 4 21 12 24 26 10 18 24 -14 24 -23 0 -30 -4
-30 -20 0 -12 -7 -20 -16 -20 -9 0 -29 -13 -44 -30 -15 -16 -33 -30 -39 -30
-6 0 -11 -4 -11 -10 0 -5 -11 -10 -25 -10 -14 0 -25 5 -25 10 0 6 11 10 25 10
20 0 25 6 31 35 6 35 60 89 88 90 20 0 76 39 76 53 0 13 23 42 34 42 3 0 6
-25 6 -55 0 -34 4 -55 11 -55 6 0 9 9 6 20 -3 11 1 27 9 34 8 8 14 24 14 37 0
19 4 21 33 16 17 -3 26 -3 20 0 -7 2 -13 22 -13 44 0 32 3 39 20 39 11 0 20 7
20 15 0 8 -4 15 -10 15 -5 0 -12 11 -16 25 l-6 25 -1424 0 -1424 0 0 -585z"/>
<path d="M5856 8811 c-6 -9 -7 -25 -7 -88 0 -34 -15 -43 -37 -21 -8 8 -12 9
-12 1 0 -6 11 -20 25 -31 29 -23 32 -57 8 -106 -14 -31 -15 -39 -3 -63 24 -51
23 -103 -5 -139 -31 -40 -32 -80 -3 -111 19 -20 20 -27 10 -43 -15 -25 -15
-55 1 -81 10 -17 9 -22 -6 -30 -9 -6 -24 -24 -33 -42 -10 -18 -25 -38 -36 -45
-29 -21 -12 -31 28 -17 21 7 66 11 105 9 42 -3 69 0 69 6 0 5 -15 10 -32 11
-18 0 -42 4 -53 9 -21 9 -21 9 8 15 27 5 28 8 16 44 -9 24 -8 35 2 47 9 11 9
18 1 26 -17 17 -15 73 3 88 19 16 19 37 0 56 -8 8 -11 22 -8 30 3 8 0 26 -7
39 -9 18 -10 37 -2 82 8 46 7 73 -4 123 l-15 64 30 23 c17 14 31 32 31 40 0
13 -5 12 -25 -7 l-25 -24 0 35 c1 87 0 98 -9 104 -5 3 -12 1 -15 -4z"/>
<path d="M5794 7843 c-4 -15 -16 -22 -40 -25 -24 -3 -33 0 -30 8 7 18 -27 28
-39 11 -10 -13 -48 -37 -59 -37 -3 0 -5 6 -3 13 1 7 -10 13 -27 15 -25 3 -28
1 -23 -18 5 -19 2 -22 -21 -17 -15 2 -35 8 -44 12 -13 5 -18 3 -18 -9 0 -12
-10 -16 -35 -16 -28 0 -35 -4 -35 -20 0 -15 -7 -20 -25 -20 -18 0 -23 -4 -19
-15 4 -9 0 -15 -9 -15 -9 0 -14 -9 -13 -23 1 -22 1 -22 55 10 80 48 262 103
343 103 15 0 33 7 42 15 17 17 30 20 21 5 -4 -6 9 -10 32 -10 27 0 34 3 23 9
-8 6 -18 7 -22 5 -5 -3 -17 5 -28 18 l-20 23 -6 -22z"/>
<path d="M490 7705 c0 -8 -10 -20 -22 -26 -40 -20 -67 -51 -78 -88 -6 -20 -15
-45 -20 -56 -4 -11 -11 -28 -14 -37 -3 -10 -30 -30 -61 -45 -30 -15 -54 -32
-52 -38 2 -5 28 -30 58 -54 33 -28 54 -53 54 -65 0 -12 4 -31 9 -44 6 -18 11
-21 22 -11 11 9 16 6 24 -16 5 -14 10 -41 11 -58 l1 -32 9 35 c5 19 8 68 7
108 -2 56 2 76 15 89 29 29 40 3 22 -51 -17 -49 -13 -75 9 -57 22 19 40 -10
73 -119 15 -47 33 121 19 171 -5 16 -2 40 8 62 14 34 17 36 53 33 21 -2 63
-12 93 -22 51 -18 61 -27 86 -82 3 -5 93 42 94 48 0 3 -17 22 -37 42 -34 32
-50 39 -161 62 -85 18 -155 26 -230 27 -85 1 -100 3 -74 10 25 8 32 15 31 32
-5 51 0 59 26 53 36 -9 31 10 -6 23 -26 9 -29 13 -20 30 12 22 68 71 82 71 5
0 9 5 9 10 0 6 -9 10 -20 10 -11 0 -20 -7 -20 -15z"/>
<path d="M11095 7688 c-22 -13 -48 -42 -66 -76 -11 -19 -10 -24 6 -36 18 -13
17 -15 -16 -48 -19 -19 -39 -37 -45 -39 -15 -5 -97 -80 -92 -84 1 -1 28 -15
58 -30 64 -32 70 -39 70 -82 0 -18 4 -33 9 -33 5 0 14 15 21 33 11 31 12 31
26 13 7 -11 14 -32 14 -48 0 -39 16 -35 30 7 12 35 15 38 60 39 24 1 25 4 25
63 0 33 3 64 6 68 4 3 18 3 32 0 l24 -7 -19 -39 c-14 -30 -18 -57 -16 -112 l3
-72 12 41 c16 52 44 78 77 72 19 -4 27 0 32 14 3 11 2 24 -4 30 -10 10 2 75
17 91 13 13 81 -25 81 -45 0 -27 20 -21 69 21 l43 38 -57 31 c-56 31 -60 31
-203 32 -133 1 -234 -9 -265 -26 -7 -4 -4 1 5 12 11 11 44 22 85 29 64 10 68
13 71 39 2 15 -4 39 -13 52 -9 14 -14 32 -11 39 7 19 -5 27 -21 14 -9 -9 -13
-8 -13 0 0 14 -9 14 -35 -1z"/>
<path d="M11188 7183 c-6 -23 -77 -49 -105 -39 -20 8 -70 -29 -88 -65 -9 -16
-22 -29 -30 -29 -8 0 -22 -11 -31 -25 -22 -34 -8 -89 24 -93 12 -2 22 -8 22
-13 0 -13 18 -11 23 4 2 6 3 5 2 -3 -2 -8 -6 -23 -10 -32 -5 -14 -2 -18 13
-18 12 0 24 5 27 10 3 6 11 10 16 10 6 0 -4 -12 -21 -26 -37 -32 -33 -41 9
-20 38 20 41 20 41 -4 0 -11 -4 -20 -10 -20 -5 0 -10 -9 -10 -19 0 -11 -10
-27 -22 -35 -23 -16 -19 -34 4 -20 19 13 97 32 103 26 16 -16 0 -31 -37 -36
-70 -10 -78 -12 -90 -24 -8 -8 -4 -10 16 -8 15 1 31 7 37 13 13 13 51 4 46
-11 -2 -6 -18 -12 -35 -14 -18 -2 -32 -8 -32 -14 0 -6 12 -8 31 -4 17 3 43 6
58 6 22 1 24 2 9 11 -26 15 -22 39 6 39 27 0 42 -15 26 -25 -20 -12 -9 -21 25
-21 19 0 35 4 35 8 0 4 -9 8 -20 8 -13 0 -20 7 -20 20 0 11 7 20 15 20 8 0 15
6 15 13 0 9 -10 12 -32 9 -28 -4 -31 -2 -20 9 7 8 25 14 40 14 22 0 26 4 24
23 -2 15 2 22 12 22 9 0 16 5 16 10 0 6 -21 9 -52 8 -42 -2 -53 0 -53 12 0 10
11 16 35 17 74 3 99 8 91 16 -4 4 -22 9 -40 9 -55 2 -33 15 37 23 75 8 63 23
-20 24 -27 1 -48 6 -48 11 0 6 14 10 30 10 17 0 30 5 30 10 0 6 8 10 19 10 10
0 24 7 31 15 12 14 15 14 31 -1 17 -15 19 -15 25 0 8 20 24 21 24 1 0 -9 6
-15 13 -13 6 1 22 -4 35 -11 35 -19 54 -7 50 31 -2 21 -8 32 -16 30 -7 -1 -20
5 -29 14 -15 15 -18 15 -29 0 -10 -15 -12 -15 -17 4 -6 25 -42 27 -56 3 -10
-17 -10 -17 -11 0 0 9 -1 17 -2 17 -2 0 -37 3 -78 6 -41 4 -78 9 -82 13 -4 4
-3 24 3 44 6 21 9 43 6 50 -2 6 -6 2 -9 -10z"/>
<path d="M346 7075 c-3 -9 -18 -15 -35 -15 -25 0 -31 -5 -41 -36 -7 -19 -9
-50 -6 -68 6 -33 47 -78 67 -73 27 6 25 -146 -11 -773 -5 -91 -9 -213 -10
-272 0 -118 4 -110 -65 -120 -40 -6 -41 -155 -2 -152 10 1 17 -4 17 -11 0 -7
9 -15 19 -18 18 -4 19 -13 16 -128 -4 -144 -13 -380 -20 -526 -5 -86 -3 -103
9 -103 8 0 17 4 20 9 3 5 22 10 41 11 72 3 83 5 78 13 -2 4 -33 6 -69 4 -45
-2 -64 0 -64 9 0 6 14 14 30 18 17 3 30 11 30 17 0 7 -9 9 -24 5 -12 -3 -26
-3 -29 1 -12 11 15 33 42 33 25 1 25 1 7 15 -14 10 -23 12 -32 4 -8 -7 -14 -7
-19 1 -10 16 2 27 37 35 32 7 32 8 9 14 -39 10 -36 29 6 40 48 14 66 14 80 0
7 -7 12 -6 17 6 4 12 0 19 -15 22 -14 4 -19 12 -16 24 4 15 -1 19 -21 20 -32
1 -77 17 -51 18 9 1 22 8 29 16 10 13 9 15 -9 15 -24 0 -28 18 -6 26 8 4 15
17 15 29 0 15 8 26 19 30 12 4 18 12 14 21 -4 11 -9 12 -19 4 -7 -7 -21 -10
-31 -8 -10 1 -24 -1 -30 -5 -8 -5 -13 -3 -13 7 0 10 15 17 48 22 26 3 54 10
62 15 16 9 13 10 -29 13 -23 2 -24 24 -2 31 12 3 21 11 21 17 0 5 -6 8 -13 5
-19 -7 -41 8 -33 22 4 6 17 12 29 12 17 1 18 2 5 6 -10 2 -19 9 -19 14 -2 9
-5 23 -9 37 -1 4 -5 -4 -9 -18 -10 -36 -33 -31 -36 7 -2 30 0 34 37 43 32 9
38 15 33 30 -5 16 2 19 52 26 95 11 104 20 31 28 -36 3 -73 4 -82 0 -9 -3 -16
-1 -16 5 0 6 12 12 28 12 15 1 32 2 37 4 6 1 16 3 23 3 7 1 10 7 7 12 -3 6 1
10 10 10 13 0 15 7 9 38 -4 20 -9 40 -11 45 -2 4 -40 7 -84 7 -43 0 -79 3 -79
6 0 3 5 14 10 24 7 13 7 21 0 25 -17 10 -11 20 20 33 36 17 39 32 5 32 -14 0
-25 5 -25 10 0 6 6 10 14 10 7 0 19 7 26 15 9 10 9 15 1 15 -6 0 -11 7 -11 15
0 13 55 35 87 35 6 0 15 5 18 10 9 15 -47 34 -65 22 -8 -5 -21 -7 -27 -5 -15
5 1 25 30 36 9 3 17 15 17 26 0 13 9 21 30 26 53 12 34 27 -25 20 -38 -5 -55
-4 -55 4 0 6 6 12 13 13 6 0 17 2 22 2 6 1 19 7 30 14 18 10 17 11 -12 12 -26
0 -33 4 -33 20 0 11 -4 20 -10 20 -14 0 -13 37 1 46 7 4 28 7 48 8 34 1 36 3
33 31 -5 38 -6 39 -47 38 -19 -1 -35 3 -35 7 0 11 37 23 49 15 5 -3 12 -1 16
5 3 5 -3 10 -14 10 -27 0 -38 20 -18 35 10 7 17 22 17 34 0 12 7 24 15 27 8 4
15 15 15 25 0 11 8 23 18 27 13 5 8 8 -18 12 -19 4 -43 3 -52 -2 -9 -4 -19 -4
-22 1 -8 12 23 26 67 29 9 1 17 6 17 10 0 5 -14 6 -31 4 -24 -3 -30 -1 -27 9
2 8 19 15 36 17 36 4 44 22 10 23 l-23 0 23 11 c36 18 25 27 -28 21 -33 -3
-50 -1 -50 6 0 14 14 19 60 25 48 6 48 6 21 17 -13 5 -32 7 -42 4 -9 -3 -20
-1 -23 4 -7 11 29 25 43 17 5 -4 17 -3 26 0 12 5 14 14 9 38 -3 17 -13 35 -20
39 -8 5 -12 13 -8 18 3 6 -2 16 -12 24 -18 13 -18 14 -1 20 9 4 24 5 32 1 8
-3 15 -1 15 4 0 11 -40 25 -64 21 -10 -1 -15 2 -12 7 3 5 27 13 53 17 l47 7
-24 18 -25 19 53 7 c58 7 71 24 18 24 -42 0 -55 15 -21 24 25 6 35 39 16 50
-4 3 -11 19 -14 35 -5 23 -12 30 -39 34 -18 3 -45 4 -60 2 -21 -2 -28 2 -32
21 -7 27 -21 31 -30 9z"/>
<path d="M11054 6578 c-3 -4 2 -8 10 -8 26 0 18 -20 -11 -32 -23 -9 -25 -12
-10 -15 12 -3 16 -10 12 -24 -4 -13 -2 -19 9 -19 9 0 16 -8 16 -19 0 -10 7
-24 15 -31 8 -7 15 -19 15 -26 0 -8 7 -14 16 -14 27 0 -7 -26 -47 -36 -43 -10
-41 -9 -61 -18 -10 -5 -15 -12 -12 -17 3 -5 13 -5 25 1 15 8 19 7 19 -4 0 -8
-4 -17 -9 -20 -5 -3 -11 -19 -13 -36 l-4 -29 50 4 c77 6 96 14 93 38 -1 14 6
25 21 32 12 5 20 14 18 20 -2 5 1 18 6 28 7 14 4 17 -22 17 -34 0 -37 6 -13
32 15 17 15 18 -10 18 -15 0 -27 4 -27 9 0 5 14 8 30 6 21 -3 30 0 30 10 0 8
9 15 20 15 15 0 20 7 20 25 0 27 -11 30 -79 26 -44 -4 -38 23 7 27 18 2 32 7
32 12 0 5 -6 7 -14 4 -8 -3 -17 -1 -20 5 -4 6 -16 5 -33 -4 -29 -15 -46 -5
-36 21 5 14 -35 16 -43 2z"/>
<path d="M5725 6534 c-5 -2 -75 -8 -155 -14 -148 -10 -369 -34 -405 -44 -11
-3 -36 -7 -55 -9 -33 -4 -154 -37 -210 -57 -14 -5 -44 -14 -67 -20 -41 -10
-59 -30 -28 -30 18 0 20 -27 3 -32 -6 -2 -12 -24 -13 -49 0 -24 -4 -50 -9 -58
-5 -8 -3 -16 5 -22 21 -13 32 -11 26 5 -3 8 -1 16 6 19 9 3 9 10 0 30 -11 24
-10 27 30 45 59 28 131 45 155 38 12 -4 22 -1 25 8 3 8 25 17 49 21 24 4 68
13 98 20 53 14 247 30 224 20 -6 -3 -9 -18 -6 -34 2 -16 -1 -32 -7 -35 -6 -4
-11 -12 -11 -18 0 -7 6 -6 15 2 22 19 45 -5 45 -46 0 -19 5 -34 10 -34 18 0
10 42 -16 87 -24 42 -25 46 -10 69 18 27 28 32 20 9 -8 -20 2 -19 25 4 16 16
41 19 197 25 200 8 232 12 231 29 -1 51 2 56 41 54 34 -3 37 -6 40 -35 2 -18
8 -32 14 -32 6 0 8 12 5 30 -6 25 -3 30 14 30 11 0 18 4 15 9 -3 5 -50 10
-103 11 -54 1 -118 3 -143 4 -25 2 -49 2 -55 0z"/>
<path d="M11085 6200 c-22 -5 -26 -9 -14 -14 8 -4 28 -2 43 4 36 13 36 13 36
-10 0 -12 -7 -21 -17 -21 -40 -4 -49 -6 -65 -13 -10 -4 -23 -6 -30 -4 -7 3
-18 -1 -25 -8 -19 -19 -16 -26 7 -14 11 6 25 8 30 5 5 -3 11 -1 15 5 10 16 45
12 45 -5 0 -9 -6 -17 -12 -19 -7 -2 -33 -9 -58 -16 -37 -10 -41 -14 -25 -20
13 -5 26 -2 37 7 12 11 18 12 24 2 4 -7 -2 -20 -17 -32 l-24 -20 28 7 c18 4
35 2 43 -5 12 -10 19 -7 36 11 26 28 33 70 12 70 -18 0 -18 14 1 30 17 14 39
4 31 -16 -3 -8 1 -14 9 -14 8 0 15 9 15 19 0 40 55 38 63 -2 3 -15 5 -12 6 11
l1 32 -54 0 c-46 0 -56 3 -61 20 -7 21 -26 23 -80 10z"/>
<path d="M5768 6175 c-2 -1 -68 -5 -148 -9 -218 -10 -370 -30 -590 -75 -172
-36 -250 -69 -250 -106 0 -30 9 -31 58 -6 61 31 249 79 377 96 66 8 136 19
155 22 19 4 39 5 45 4 5 -1 36 1 68 4 40 5 55 10 46 16 -8 5 -9 9 -3 9 5 0 15
-5 22 -12 9 -9 40 -9 129 -1 65 6 144 10 176 9 69 -3 77 11 10 17 -27 3 59 4
190 2 130 -1 235 0 233 2 -8 8 -80 13 -281 18 -110 3 -208 8 -217 9 -9 2 -18
3 -20 1z"/>
<path d="M7177 5880 c-84 -17 -95 -23 -78 -44 8 -10 9 -21 3 -33 -5 -10 -8
-31 -7 -48 1 -16 3 -54 4 -82 0 -29 4 -52 9 -52 22 4 34 -3 28 -16 -3 -10 1
-15 13 -15 18 0 41 -37 58 -95 5 -20 16 -31 31 -33 25 -4 26 -3 12 32 -8 23
-7 26 10 26 13 0 20 -7 20 -19 0 -11 5 -23 11 -27 9 -5 10 12 4 62 -9 89 -9
88 -17 94 -4 3 -8 17 -10 30 -2 14 -7 30 -11 36 -8 14 19 84 32 84 5 0 11 8
13 18 3 15 20 17 173 18 98 1 182 7 199 13 24 10 31 9 41 -6 12 -16 14 -16 29
0 19 19 31 23 21 7 -4 -6 -1 -18 6 -26 10 -13 15 -12 37 8 14 13 22 17 18 10
-11 -18 14 -48 26 -30 6 11 10 10 17 -1 5 -7 14 -10 20 -7 15 10 14 -1 -5 -29
-15 -23 -15 -25 1 -25 27 0 52 18 73 53 l19 34 -31 11 c-17 5 -78 22 -136 36
-94 23 -128 26 -332 28 -170 2 -245 -1 -301 -12z"/>
<path d="M4250 5880 c-254 -6 -261 -7 -448 -66 -9 -3 -4 -16 17 -48 40 -57 86
-70 117 -31 18 23 71 44 112 45 25 0 2 -18 -31 -25 -59 -12 -67 -16 -67 -35 0
-10 5 -22 10 -25 6 -3 10 0 10 7 0 13 26 27 93 48 32 10 36 14 25 27 -10 12
-9 14 7 12 11 -2 27 1 35 6 8 6 88 12 178 13 133 3 164 7 169 19 5 12 7 12 14
1 7 -11 11 -10 18 2 9 12 13 11 33 -8 21 -19 26 -20 39 -7 14 14 17 14 33 -4
15 -16 22 -18 36 -8 15 9 23 8 38 -7 15 -13 22 -14 28 -5 4 7 2 15 -4 17 -7 2
-12 11 -12 21 0 13 -21 20 -102 36 -91 18 -131 19 -348 15z"/>
<path d="M11044 5745 c-3 -8 -3 -19 0 -24 4 -5 -10 -15 -31 -20 -52 -15 -56
-14 -50 9 3 13 0 20 -9 20 -7 0 -11 -6 -8 -13 2 -7 -9 -26 -26 -42 -16 -16
-30 -38 -30 -50 0 -26 25 -63 36 -53 4 4 14 3 21 -4 11 -9 16 -9 22 0 11 18
75 35 79 22 5 -13 140 -6 245 12 74 12 97 31 97 79 0 27 -15 39 -51 39 -13 0
-19 -7 -19 -24 0 -14 -5 -28 -12 -32 -8 -5 -9 2 -5 23 l6 30 -81 7 c-48 4 -85
3 -92 -3 -7 -6 -25 -9 -41 -8 -37 3 -40 28 -5 38 23 6 22 7 -8 8 -20 1 -35 -5
-38 -14z"/>
<path d="M7433 5718 c-31 -22 -42 -43 -63 -111 -9 -27 -8 -29 15 -23 40 10
107 -38 119 -84 3 -14 10 -31 14 -38 11 -16 42 -5 42 14 0 8 4 22 9 32 33 65
34 70 21 119 -16 59 -24 70 -71 94 -48 24 -47 24 -86 -3z"/>
<path d="M4275 5721 c-55 -24 -86 -102 -82 -213 l1 -58 36 0 c33 0 37 4 54 45
11 25 25 45 32 45 7 0 14 6 17 13 2 7 21 11 50 10 43 -1 47 0 47 22 0 13 -4
26 -9 30 -5 3 -12 19 -16 35 -11 49 -85 90 -130 71z"/>
<path d="M4013 5705 c-7 -8 -13 -18 -13 -23 0 -5 -9 -17 -20 -27 -27 -25 -25
-42 6 -49 21 -6 25 -12 24 -39 -4 -67 0 -117 10 -117 6 0 10 7 10 15 0 41 27
99 53 114 15 9 25 22 22 29 -3 8 -5 22 -5 33 0 17 -55 80 -69 79 -3 -1 -12 -7
-18 -15z"/>
<path d="M4562 5685 c-34 -29 -44 -62 -46 -160 -1 -61 1 -70 17 -70 9 0 16 5
15 10 -2 6 -6 9 -10 8 -5 -2 -8 2 -8 7 0 6 10 10 22 10 15 0 19 3 12 10 -7 7
0 23 25 50 38 44 61 40 61 -9 0 -21 -7 -31 -32 -42 -17 -8 -33 -19 -35 -26 -6
-16 27 -24 62 -15 28 8 30 11 33 67 2 32 0 65 -4 74 -4 9 -9 24 -11 34 -3 17
-55 77 -66 77 -3 0 -19 -11 -35 -25z"/>
<path d="M7723 5688 c-27 -30 -37 -85 -18 -95 14 -8 45 -86 45 -115 0 -10 5
-18 10 -18 6 0 10 14 10 31 0 38 22 63 40 46 24 -23 3 93 -25 135 -14 21 -29
38 -33 38 -5 0 -18 -10 -29 -22z"/>
<path d="M3420 5603 c0 -6 5 -15 10 -18 6 -3 10 -12 9 -18 0 -7 -7 -2 -16 11
-13 18 -25 22 -69 22 -30 0 -54 -4 -54 -10 0 -5 4 -10 9 -10 11 0 1 -43 -12
-51 -5 -4 17 -7 49 -7 44 -1 55 2 42 9 -21 11 -24 34 -6 45 7 5 9 2 6 -8 -6
-15 23 -48 42 -48 13 0 13 -17 0 -25 -5 -3 -53 -6 -106 -6 -83 0 -94 -2 -84
-14 7 -8 21 -15 32 -15 10 0 17 -4 13 -9 -10 -17 15 -23 31 -7 10 11 34 16 70
16 l54 0 0 -35 c0 -33 2 -35 33 -35 43 0 109 19 105 30 -3 9 -83 110 -130 164
-15 17 -28 26 -28 19z"/>
<path d="M8456 5602 c-4 -7 -5 -16 -2 -21 4 -5 0 -12 -6 -14 -10 -4 -10 -8 1
-15 11 -8 11 -10 0 -15 -12 -5 -11 -7 1 -16 24 -16 0 -30 -58 -34 -58 -3 -62
1 -62 64 0 46 -10 49 -33 10 -9 -15 -34 -50 -56 -76 -22 -27 -38 -52 -36 -56
3 -4 22 -10 42 -14 21 -3 48 -9 61 -12 20 -5 22 -1 22 31 l0 36 53 0 c66 0 75
-6 79 -54 2 -22 9 -41 16 -44 10 -3 12 10 9 55 -1 32 -5 63 -8 68 -4 6 -5 25
-3 44 3 41 -9 80 -20 63z"/>
<path d="M11200 5573 c-91 -6 -192 -27 -213 -44 -27 -21 -18 -33 15 -20 34 13
135 23 123 13 -6 -5 -31 -15 -57 -22 -27 -7 -48 -17 -48 -22 0 -5 5 -6 12 -2
6 4 23 9 37 10 14 1 49 5 76 9 28 3 64 6 80 7 l30 1 -29 12 c-49 21 -19 30
107 33 31 1 57 6 57 10 0 5 -26 10 -57 11 -32 1 -65 3 -73 4 -8 2 -35 2 -60 0z"/>
<path d="M2520 5511 c0 -13 -11 -23 -35 -31 -29 -9 -34 -15 -25 -25 6 -8 21
-15 33 -17 12 -2 23 -12 26 -23 5 -28 32 -66 42 -59 5 3 9 23 9 45 0 29 4 39
16 39 9 0 14 -7 12 -17 -3 -20 21 -83 31 -83 11 0 32 57 26 71 -3 8 1 23 8 33
12 17 19 17 86 6 48 -8 76 -9 83 -2 18 18 -54 33 -180 39 -93 5 -120 9 -112
18 5 6 7 15 3 18 -12 13 -23 7 -23 -12z"/>
<path d="M8943 5483 c-12 -2 -27 -11 -33 -18 -10 -12 -8 -16 6 -21 39 -12 49
-22 52 -53 4 -38 22 -41 23 -3 0 25 2 25 18 -13 l17 -39 17 33 c9 18 14 38 11
43 -12 18 19 39 55 37 20 -1 44 2 53 6 10 4 32 2 49 -4 37 -13 79 3 60 22 -12
12 -282 20 -328 10z"/>
<path d="M2490 5230 c-26 -24 -29 -32 -21 -49 6 -11 20 -23 31 -26 14 -4 19
-12 16 -23 -8 -26 7 -42 32 -35 12 3 22 9 22 14 0 5 9 9 19 9 42 0 31 20 -11
21 l-43 1 48 15 c38 12 47 18 47 37 0 20 -6 25 -45 30 -29 5 -45 12 -45 22 0
22 -15 17 -50 -16z"/>
<path d="M5973 5068 c1 -8 -9 -13 -25 -13 -16 1 -28 -3 -28 -7 0 -4 7 -8 15
-8 8 0 15 -4 15 -10 0 -16 -27 -11 -34 6 -4 10 -12 14 -23 10 -9 -4 -38 -1
-64 5 -38 10 -57 10 -91 0 -51 -15 -168 -73 -168 -83 0 -5 -6 -8 -13 -8 -7 0
-18 -10 -26 -21 -11 -18 -11 -23 1 -30 10 -7 8 -10 -9 -15 -26 -7 -31 -24 -8
-24 8 0 15 5 15 11 0 6 9 9 19 6 15 -3 21 1 23 17 2 12 17 28 38 38 19 10 47
29 62 43 32 30 48 32 41 5 -4 -14 0 -20 11 -20 13 0 14 -4 4 -25 -9 -19 -9
-28 0 -37 18 -18 15 -23 -13 -23 -22 0 -25 4 -23 25 2 16 -2 26 -13 28 -23 4
-20 -50 4 -76 17 -19 17 -20 1 -18 -11 0 -20 -7 -22 -19 -2 -11 -10 -24 -18
-28 -16 -9 -19 -37 -4 -37 6 0 14 8 17 18 12 32 67 51 81 26 4 -7 14 -12 22
-12 53 3 91 -4 95 -17 16 -49 15 -49 28 -36 8 8 9 16 1 29 -6 10 -8 29 -3 46
10 34 4 48 -19 44 -37 -5 -68 11 -70 37 -2 25 11 34 23 15 4 -6 10 -8 15 -5
18 11 60 -7 60 -26 0 -20 33 -59 49 -59 5 0 11 5 13 10 2 6 13 2 25 -9 17 -17
22 -18 27 -6 8 22 33 18 39 -7 3 -12 1 -30 -4 -40 -13 -23 -7 -30 25 -34 25
-3 68 29 78 57 3 8 9 10 14 6 5 -4 2 -12 -5 -16 -7 -5 -11 -17 -9 -27 3 -14
11 -18 33 -17 88 6 120 3 132 -14 7 -9 13 -11 13 -5 0 7 9 12 20 12 20 0 40
-27 40 -55 0 -12 -4 -14 -19 -6 -16 9 -18 7 -17 -21 1 -29 4 -31 48 -34 51 -5
74 10 32 20 -20 5 -24 11 -18 29 4 12 11 25 16 28 6 4 3 19 -6 38 -13 24 -23
31 -46 31 -17 0 -30 5 -30 10 0 6 11 8 25 4 23 -6 24 -5 15 26 -5 17 -20 40
-34 51 -15 11 -26 26 -26 33 0 7 -11 23 -25 36 -14 13 -25 20 -25 15 0 -5 -12
3 -27 17 -16 15 -54 38 -87 52 -58 26 -95 35 -66 16 13 -8 12 -10 -2 -10 -10
0 -18 4 -18 10 0 6 -10 6 -27 -1 -20 -7 -28 -7 -34 3 -6 9 -2 14 11 16 27 5
25 28 -2 36 -35 9 -48 7 -45 -6z"/>
<path d="M4210 5007 c-9 -7 -14 -20 -12 -29 3 -14 -3 -18 -25 -18 -29 0 -58
-14 -58 -27 0 -8 -29 -42 -80 -93 -14 -14 -25 -29 -25 -32 0 -12 69 36 70 48
0 7 11 19 25 28 25 17 25 16 19 -7 -6 -28 10 -44 29 -29 7 5 19 9 27 9 8 1 23
4 33 8 10 4 18 3 18 -4 1 -6 3 -15 4 -21 1 -5 3 -17 4 -25 1 -20 30 -19 38 1
5 15 7 15 15 0 7 -13 18 -15 46 -10 52 9 53 11 38 49 -17 39 -9 49 29 39 34
-9 32 12 -4 30 -18 10 -31 12 -38 5 -6 -6 -20 -6 -39 1 -26 10 -27 13 -12 24
17 12 5 21 -82 63 -3 1 -12 -3 -20 -10z"/>
<path d="M7505 4990 c-27 -16 -56 -34 -64 -42 -8 -7 -22 -13 -30 -15 -18 -2
-101 -89 -101 -105 0 -6 11 -8 28 -4 15 4 33 8 40 9 7 2 24 20 38 40 30 45 48
48 39 7 -7 -30 -6 -30 39 -30 35 0 49 -5 58 -20 17 -26 31 -26 23 1 -7 21 -7
21 24 3 31 -18 40 -34 21 -34 -5 0 -10 -4 -10 -10 0 -5 10 -10 23 -10 22 -1
22 -1 2 -16 -11 -8 -24 -13 -30 -10 -7 2 -10 -7 -7 -24 l4 -29 22 20 21 20 3
-60 c2 -34 7 -61 12 -61 6 0 10 7 10 15 0 8 7 15 15 15 9 0 18 -7 21 -15 11
-28 24 -15 24 25 0 30 5 42 21 50 20 11 20 9 18 -42 -3 -48 -1 -53 19 -56 46
-7 11 -32 -45 -32 -37 0 -27 -28 12 -36 19 -3 35 -10 35 -15 0 -5 6 -9 14 -9
8 0 16 -6 19 -12 13 -38 16 15 8 139 -11 164 -33 233 -85 260 -19 10 -26 18
-18 21 8 2 3 10 -15 20 -87 47 -138 72 -147 71 -6 0 -33 -13 -61 -29z"/>
<path d="M3382 4927 c-23 -25 -30 -43 -11 -31 6 3 -3 -13 -20 -36 -41 -57 -41
-88 1 -81 10 1 21 -46 14 -58 -4 -5 3 -12 14 -16 11 -3 20 -14 21 -23 0 -11 2
-13 6 -4 3 7 -1 20 -9 29 -12 15 -10 16 19 10 24 -5 33 -2 38 11 3 9 0 21 -8
27 -19 14 -28 75 -11 75 7 0 16 -4 19 -10 3 -5 13 -10 21 -10 9 0 22 -7 30
-15 11 -10 12 -15 3 -15 -8 0 -6 -7 6 -20 13 -14 15 -23 7 -32 -5 -7 -12 -49
-13 -93 l-4 -80 35 1 c34 0 35 2 38 44 2 23 -2 48 -7 53 -8 8 -11 -1 -11 -30
0 -23 -5 -45 -11 -49 -9 -5 -10 8 -7 45 3 28 1 51 -3 51 -5 0 -9 9 -9 20 0 13
7 20 20 20 22 0 25 16 14 82 -7 42 -59 105 -114 137 -43 26 -42 26 -68 -2z"/>
<path d="M6464 4587 c1 -13 -5 -22 -14 -22 -22 0 -63 -32 -56 -43 9 -15 -4
-42 -20 -42 -8 0 -14 5 -14 11 0 5 -4 7 -10 4 -16 -10 -12 -35 6 -35 14 0 15
-11 9 -87 -4 -49 -9 -90 -12 -93 -2 -2 -20 -3 -41 -2 -27 2 -33 0 -22 -8 8 -5
30 -10 48 -10 l32 0 0 -55 c0 -48 -2 -55 -20 -55 -11 0 -20 5 -20 10 0 6 -7
10 -16 10 -8 0 -12 -4 -9 -10 4 -6 -6 -7 -24 -4 -17 4 -38 3 -48 0 -49 -19 67
-31 255 -26 20 0 35 -5 38 -15 3 -8 10 -12 15 -9 5 3 7 10 3 15 -3 5 0 25 6
45 9 27 9 38 -1 50 -7 8 -12 30 -11 49 1 19 -3 35 -8 35 -6 0 -10 7 -10 15 0
8 5 15 10 15 6 0 10 6 10 14 0 9 -7 12 -20 9 -15 -4 -20 -14 -20 -39 0 -36
-17 -55 -26 -30 -4 9 0 24 7 33 13 14 10 15 -21 11 -50 -8 -70 6 -70 47 0 24
5 35 15 35 8 0 15 6 15 14 0 7 8 20 17 27 9 8 14 9 10 3 -3 -6 5 -16 18 -22
20 -9 25 -9 25 2 0 17 -30 43 -55 48 -19 4 -19 4 2 16 19 10 25 9 43 -10 11
-12 20 -30 20 -40 0 -10 4 -18 8 -18 5 0 13 -12 19 -27 10 -27 11 -26 12 18 1
33 -3 49 -14 53 -9 3 -15 18 -15 35 0 16 -6 36 -14 44 -10 10 -12 17 -4 25 7
7 4 13 -9 20 -17 9 -19 8 -19 -11z"/>
<path d="M5862 4573 c-15 -13 -21 -35 -25 -81 l-5 -63 56 3 56 3 4 60 c3 52 0
61 -20 77 -29 22 -41 22 -66 1z"/>
<path d="M180 4462 c0 -10 -4 -22 -10 -28 -13 -13 3 -69 21 -69 8 0 28 -12 44
-27 23 -22 26 -29 16 -41 -8 -10 -9 -17 -1 -22 5 -3 10 -19 10 -36 0 -25 3
-28 18 -20 9 5 31 14 47 21 27 11 28 13 11 20 -17 6 -15 8 14 18 18 7 49 12
69 13 20 0 45 4 56 9 17 7 14 9 -15 11 -19 2 -44 4 -55 5 -11 1 -36 3 -55 4
-29 1 -32 3 -15 10 11 5 42 9 68 9 44 1 47 3 38 20 -12 22 9 37 28 18 16 -16
20 -6 12 33 l-7 35 -142 3 c-127 2 -167 10 -129 25 7 3 5 6 -5 6 -11 1 -18 -6
-18 -17z"/>
<path d="M7787 4472 c-15 -2 -25 -8 -22 -13 4 -5 1 -9 -6 -9 -10 0 -10 -3 -1
-12 7 -7 12 -18 12 -26 0 -17 25 -43 34 -35 3 4 6 1 6 -5 0 -6 -15 -11 -32
-10 -52 1 -168 -14 -168 -22 0 -15 14 -19 28 -8 13 11 14 8 8 -22 -5 -28 -4
-30 4 -12 11 25 24 27 81 10 36 -12 40 -16 37 -43 -3 -29 -5 -30 -47 -29 -29
1 -48 7 -57 18 -11 16 -13 16 -19 -3 -4 -12 -12 -18 -21 -14 -7 3 -14 0 -14
-5 0 -10 186 -21 224 -14 19 4 21 25 4 52 -10 15 -10 27 -1 49 8 22 8 35 -1
53 -9 16 -10 32 -3 51 12 36 -6 54 -46 49z"/>
<path d="M11095 4467 c-115 -8 -201 -22 -223 -36 -16 -10 -6 -61 14 -67 8 -2
22 -7 32 -11 9 -4 24 -7 33 -8 8 -1 24 -7 34 -12 15 -9 14 -11 -14 -21 -42
-15 -39 -32 5 -32 31 0 35 -2 24 -15 -10 -12 -10 -15 4 -15 9 0 16 8 16 19 0
23 35 31 131 31 62 0 69 -2 69 -20 0 -13 7 -20 19 -20 26 0 51 10 51 21 0 4
-7 6 -15 3 -8 -4 -23 -3 -32 0 -27 11 1 23 56 25 55 2 78 5 86 13 13 13 -102
20 -230 13 l-135 -6 3 22 c4 25 27 39 27 17 0 -11 19 -14 88 -13 212 3 232 4
232 20 0 10 7 15 17 13 12 -2 21 8 29 32 11 32 12 33 15 11 6 -36 31 -48 57
-25 41 34 29 52 -40 59 -97 10 -232 11 -353 2z"/>
<path d="M7463 4359 c1 -85 -2 -112 -13 -119 -8 -5 -12 -12 -9 -15 5 -5 103
-9 146 -6 9 1 11 16 8 49 -5 61 5 153 16 146 5 -3 9 2 9 12 0 13 -6 15 -27 10
-16 -4 -47 -9 -70 -12 -38 -5 -43 -3 -43 15 0 11 -4 22 -9 25 -5 3 -8 -43 -8
-105z"/>
<path d="M4307 4449 c-10 -6 -30 -12 -45 -13 -72 -8 -72 -8 -69 -120 l2 -101
60 2 c33 1 62 2 65 2 3 1 5 55 5 121 0 66 0 120 0 120 0 0 -8 -5 -18 -11z"/>
<path d="M2471 4390 c-49 -7 -52 -31 -6 -56 11 -6 20 -20 20 -30 0 -15 6 -18
33 -16 21 2 32 -1 32 -10 0 -8 4 -7 11 5 5 9 20 17 32 17 21 1 21 1 3 15 -18
14 -18 15 7 24 19 7 24 15 20 30 -3 12 -8 21 -12 22 -44 4 -113 3 -140 -1z"/>
<path d="M4497 4392 c-5 -7 -18 -12 -30 -10 -29 4 -38 -38 -10 -45 12 -3 9 -5
-9 -6 -37 -1 -78 -18 -78 -32 0 -6 6 -9 14 -6 17 7 38 -15 28 -28 -12 -16 -32
-16 -26 0 4 8 1 15 -5 15 -6 0 -11 -13 -11 -30 l0 -30 73 0 73 0 -4 73 c-4
107 -6 114 -15 99z"/>
<path d="M3492 4354 c3 -33 0 -37 -34 -48 -21 -8 -42 -10 -50 -5 -7 5 -36 9
-65 9 -50 0 -52 -1 -44 -22 5 -13 17 -23 27 -23 15 0 20 -8 22 -40 2 -36 1
-38 -11 -22 -17 21 -27 22 -27 1 0 -11 -6 -14 -20 -9 -15 5 -20 2 -20 -13 0
-28 15 -31 97 -18 68 10 116 30 63 26 -48 -4 -58 0 -63 28 -6 30 1 46 21 48 6
1 24 2 38 3 16 0 23 5 18 13 -5 8 -2 9 9 5 9 -3 19 -2 22 2 3 5 14 7 25 4 11
-3 18 -9 15 -13 -6 -10 43 -23 55 -15 18 11 11 47 -10 52 -19 5 -25 16 -20 38
2 10 -28 35 -43 35 -5 0 -7 -16 -5 -36z"/>
<path d="M5839 4342 c-4 -31 4 -189 11 -196 4 -4 88 -10 186 -12 124 -3 175
-1 167 7 -6 6 -40 10 -77 10 l-66 0 0 80 0 79 -45 0 -45 0 0 -80 c0 -47 -4
-80 -10 -80 -5 0 -10 10 -11 23 0 12 -1 56 -2 97 l-2 74 -52 2 c-29 1 -53 -1
-54 -4z"/>
<path d="M5729 4302 c-1 -4 -2 -32 -3 -62 -4 -86 -5 -90 -21 -90 -8 0 -15 -4
-15 -10 0 -11 37 -13 92 -4 l38 7 -4 81 -4 81 -41 2 c-23 1 -41 -2 -42 -5z"/>
<path d="M1889 3847 c-25 -7 -60 -23 -77 -36 -27 -19 -32 -29 -34 -64 0 -23
-2 -53 -4 -67 -1 -14 -5 -95 -9 -180 -4 -85 -12 -160 -17 -167 -6 -7 -10 -45
-10 -85 1 -45 -5 -87 -15 -110 -12 -30 -14 -46 -5 -78 9 -37 8 -44 -10 -62
-16 -16 -18 -25 -10 -48 10 -28 8 -383 -3 -399 -3 -5 -43 -9 -89 -9 -79 -1
-84 1 -94 24 -9 18 -19 24 -42 24 -27 0 -30 -2 -24 -25 7 -26 2 -29 -56 -26
-14 0 -81 1 -148 1 -134 1 -140 3 -183 70 -14 21 -19 23 -32 12 -8 -7 -23 -28
-32 -47 -18 -39 7 -36 -235 -36 -69 0 -190 0 -270 -1 -196 -1 -182 -1 -295 4
-99 4 -100 4 -99 28 1 14 4 33 8 42 10 22 -14 71 -37 74 -9 1 -24 -4 -31 -12
-8 -8 -19 -14 -25 -14 -6 0 -11 -21 -11 -49 l0 -50 43 -4 42 -4 -42 -1 -43 -2
1 -272 c1 -150 3 -265 6 -255 2 9 8 17 11 17 4 0 106 7 227 15 256 17 485 32
638 39 114 6 115 6 108 -44 -5 -35 0 -65 14 -81 17 -18 23 -17 -212 -40 -54
-5 -143 -14 -198 -19 -144 -14 -203 -14 -220 0 -11 9 -29 10 -70 2 -31 -5 -58
-5 -61 -1 -3 5 -12 9 -20 9 -11 0 -13 -6 -9 -22 6 -16 4 -20 -8 -15 -8 3 -46
-1 -84 -9 -37 -8 -80 -14 -95 -14 -27 0 -28 -1 -28 -60 l0 -60 51 0 c33 0 48
-4 44 -11 -4 -6 -26 -9 -49 -7 l-41 3 -3 -401 -3 -401 54 5 c34 3 57 0 61 -7
4 -6 16 -11 27 -11 11 0 19 -7 19 -16 0 -14 2 -13 17 2 16 15 16 17 -3 31 -17
13 -14 14 34 9 29 -3 57 -8 62 -11 5 -3 72 -8 150 -10 140 -5 155 -2 200 31 8
6 22 12 30 12 17 1 83 11 120 18 24 5 24 6 5 17 -19 11 -19 11 5 17 14 4 30 3
37 -3 8 -6 22 -2 42 12 18 13 75 30 151 45 117 24 160 43 160 72 0 7 10 16 23
20 12 4 24 10 27 15 3 5 38 11 78 15 55 5 72 4 72 -6 0 -8 8 -10 24 -6 15 4
26 1 29 -7 4 -7 8 -4 12 9 5 15 13 20 30 17 12 -3 26 0 29 6 5 7 -3 11 -18 12
-14 1 -32 2 -38 2 -7 1 -58 -2 -112 -6 -64 -4 -104 -3 -112 4 -7 6 -15 6 -18
1 -3 -5 -26 -7 -51 -4 -27 3 -45 1 -45 -5 0 -16 28 -36 39 -29 5 4 12 2 16 -4
3 -5 -1 -10 -9 -10 -9 0 -15 -5 -14 -12 2 -7 -13 -15 -34 -18 -21 -4 -38 -3
-38 2 0 7 14 12 32 10 3 -1 12 5 18 13 11 13 7 15 -20 15 -23 0 -33 5 -37 20
-4 16 -14 20 -47 21 l-41 1 33 11 c21 6 31 15 28 24 -4 10 8 13 51 13 37 0 62
5 74 16 10 9 36 15 60 16 24 0 50 5 56 10 7 6 25 7 39 4 16 -4 30 -3 34 3 3 6
28 12 54 13 29 1 50 6 53 15 3 7 14 13 25 13 10 0 17 -4 14 -9 -7 -11 69 -22
135 -20 25 1 55 -2 68 -6 26 -8 142 9 219 32 29 8 56 13 58 10 3 -3 27 1 52 8
51 15 164 18 172 4 3 -4 23 -4 45 1 22 5 58 10 79 10 22 0 47 7 58 16 14 14
37 17 118 15 116 -2 146 8 80 25 l-45 12 78 0 c42 0 80 -4 83 -9 3 -5 -9 -9
-25 -9 -32 0 -44 -16 -13 -18 31 -2 63 8 57 18 -3 6 1 10 9 10 9 0 15 -6 14
-12 -2 -9 17 -15 59 -18 112 -9 80 -21 -43 -16 -127 5 -184 -6 -92 -18 29 -4
67 -9 83 -12 17 -3 48 -5 70 -5 22 0 42 -5 46 -11 4 -6 13 -5 27 3 17 11 24
11 34 1 18 -18 52 -16 44 3 -3 8 -1 15 3 15 5 0 11 -5 13 -12 4 -11 112 -13
193 -4 17 2 67 4 112 5 54 1 86 6 95 15 8 7 39 16 71 20 41 5 60 13 67 26 9
17 14 18 35 8 21 -9 25 -18 25 -53 0 -47 -7 -60 -25 -45 -9 8 -18 0 -32 -29
-11 -22 -23 -38 -27 -34 -10 10 -7 63 4 63 6 0 10 7 10 15 0 8 -4 15 -8 15 -8
0 -19 -19 -40 -70 -6 -16 -30 -35 -68 -53 -33 -16 -80 -39 -106 -51 -52 -26
-68 -20 -68 26 0 15 -7 31 -17 37 -10 5 -17 12 -15 15 1 3 0 6 -3 6 -3 0 -8 0
-11 0 -4 0 0 -7 7 -17 11 -13 11 -17 2 -20 -17 -6 -16 -32 1 -39 8 -3 11 -14
9 -28 -7 -35 -209 -143 -230 -122 -3 3 -12 -2 -20 -10 -8 -8 -18 -12 -23 -9
-4 3 -22 -9 -40 -25 -29 -27 -166 -100 -188 -100 -5 0 -15 -7 -22 -15 -7 -8
-20 -15 -30 -15 -9 0 -47 -14 -83 -30 -37 -17 -77 -30 -91 -30 -13 0 -29 -7
-37 -16 -7 -8 -21 -13 -31 -11 -11 3 -18 0 -18 -9 0 -8 -6 -14 -13 -14 -7 0
-18 -9 -25 -20 -12 -19 -11 -20 15 -14 16 4 42 14 58 22 l30 15 -28 -27 c-16
-14 -33 -24 -38 -20 -5 3 -18 -5 -28 -17 -18 -22 -19 -22 -36 -5 -10 9 -24 15
-32 12 -8 -3 -16 -6 -19 -6 -2 0 -1 -7 2 -15 7 -17 -11 -21 -21 -5 -11 18 -25
11 -25 -12 0 -16 -3 -19 -8 -10 -5 7 -16 10 -25 6 -10 -3 -24 -1 -32 6 -12 10
-15 9 -15 -4 0 -9 -21 -26 -49 -41 -27 -13 -52 -29 -56 -35 -8 -13 -86 -54
-105 -55 -23 -2 -85 -32 -100 -49 -7 -9 -20 -16 -30 -16 -10 0 -23 -7 -30 -15
-7 -8 -38 -22 -69 -31 -31 -9 -64 -23 -73 -31 -10 -9 -27 -13 -38 -10 -13 3
-23 0 -27 -9 -3 -8 -12 -14 -21 -14 -8 0 -24 -7 -34 -16 -25 -24 -48 -2 -48
46 0 35 23 71 37 57 3 -3 18 0 34 8 36 19 39 19 39 -6 0 -12 5 -19 13 -16 6 2
12 16 12 31 -1 17 4 25 11 22 18 -7 46 28 38 48 -3 9 -1 16 5 16 15 0 14 16
-2 32 -7 7 -17 22 -21 33 -5 13 -10 15 -13 8 -5 -13 -35 -18 -45 -7 -3 3 -4
14 -1 25 4 15 8 17 20 8 10 -9 17 -9 25 -1 7 7 25 12 40 12 17 0 28 5 28 13 0
9 -11 13 -30 12 -17 -1 -34 4 -38 12 -7 11 -18 12 -60 2 -39 -8 -56 -8 -66 0
-10 8 -17 7 -26 -4 -8 -10 -17 -12 -29 -5 -25 13 -61 8 -61 -8 0 -9 -7 -12
-20 -9 -11 3 -23 1 -26 -4 -3 -5 -21 -9 -41 -9 -48 0 -39 -7 17 -14 50 -7 150
10 150 25 0 5 15 9 33 8 17 0 26 -3 20 -6 -7 -2 -13 -13 -13 -24 0 -21 -16
-26 -23 -6 -3 9 -7 9 -18 0 -8 -6 -27 -13 -43 -15 -43 -5 -43 -25 1 -33 29 -5
34 -9 21 -16 -15 -8 -41 -5 -130 17 -17 4 -28 2 -28 -4 0 -6 -27 -9 -66 -9
-46 2 -68 -2 -71 -10 -3 -7 3 -13 12 -13 9 0 13 -4 10 -10 -10 -16 71 -12 112
5 27 11 45 13 72 5 20 -5 55 -8 78 -8 23 1 46 -1 50 -5 12 -12 -50 -57 -70
-51 -10 3 -25 0 -33 -6 -18 -15 -73 -23 -88 -12 -14 10 -37 9 -55 -2 -8 -5
-16 -3 -22 5 -7 11 -9 10 -9 -4 0 -14 -5 -16 -25 -11 -15 4 -25 2 -25 -5 0 -6
6 -11 13 -11 6 -1 3 -6 -9 -13 -12 -7 -19 -17 -17 -24 2 -6 -6 -13 -19 -16
l-23 -4 23 -8 c17 -6 20 -10 11 -16 -11 -6 -10 -9 4 -15 9 -3 17 -15 17 -25 0
-20 15 -26 25 -9 3 5 12 7 19 4 7 -3 19 2 26 11 7 8 19 15 26 15 8 0 14 5 14
11 0 5 -5 7 -12 3 -22 -14 -67 -12 -61 3 3 7 18 13 34 13 20 0 29 5 29 16 0
12 6 15 21 11 12 -3 22 0 26 9 3 8 13 14 22 14 12 -1 9 -7 -12 -23 -28 -24
-27 -37 4 -37 17 0 34 -25 30 -48 -4 -26 18 -10 24 17 8 36 23 49 54 47 23 -1
53 -46 31 -46 -6 0 -10 -9 -10 -20 0 -15 -7 -20 -25 -20 -13 0 -28 -8 -34 -17
-8 -15 -12 -16 -22 -5 -24 22 -47 14 -60 -23 -13 -36 -23 -43 -34 -25 -10 17
-21 12 -83 -40 -62 -52 -80 -58 -100 -38 -10 10 -15 8 -27 -9 -8 -11 -27 -23
-43 -26 -16 -3 -53 -20 -81 -36 -29 -17 -56 -31 -61 -31 -6 0 -10 18 -10 40 0
40 -13 53 -24 24 -3 -9 -6 -29 -6 -45 0 -26 -3 -29 -31 -29 -24 0 -30 4 -25
15 10 27 -19 16 -31 -12 -19 -41 -17 -43 45 -43 39 0 73 8 110 25 l52 24 0
-24 0 -25 363 0 362 0 60 40 c64 42 72 40 74 -17 l1 -23 190 0 190 0 1 38 c0
20 0 94 -1 163 l-1 125 42 20 c24 10 60 33 82 51 21 18 43 33 49 33 5 0 24 11
41 24 26 19 87 46 103 46 2 0 4 -16 4 -35 0 -29 -5 -37 -26 -45 -31 -12 -29
-44 3 -48 27 -4 30 -13 38 -133 6 -89 9 -98 33 -116 15 -10 36 -17 46 -15 18
4 18 5 -4 22 -12 9 -20 22 -17 27 3 5 38 15 77 22 38 7 70 17 70 22 0 5 11 9
25 9 14 0 25 4 25 9 0 5 12 11 27 13 46 5 56 42 59 218 4 236 9 273 44 299 16
11 31 21 33 21 4 0 10 -34 24 -135 9 -67 35 -91 111 -103 63 -11 69 -10 103
13 50 33 59 76 54 252 -4 121 -2 143 10 143 9 0 15 -9 15 -22 0 -40 45 -72
100 -72 39 -1 50 3 54 16 2 10 14 18 25 18 12 0 21 6 21 15 0 18 -17 20 -23 3
-2 -7 -8 -10 -12 -6 -11 10 4 28 23 28 22 0 47 59 32 74 -15 15 -12 22 17 35
19 9 29 9 31 2 6 -18 19 -12 25 11 6 20 20 19 23 -3 3 -22 6 -23 14 -4 5 11 9
38 9 60 1 22 5 35 9 30 13 -19 63 -35 86 -29 30 7 46 43 46 104 0 40 4 50 20
55 11 3 20 10 20 15 0 5 10 12 22 16 43 13 76 45 72 67 -2 12 -2 17 2 10 3 -7
12 -9 19 -7 9 4 16 -4 20 -23 22 -96 51 -123 133 -123 80 0 92 13 123 119 34
118 42 178 27 187 -7 4 -14 2 -16 -4 -2 -7 -8 -12 -14 -12 -5 0 -24 -11 -42
-25 -40 -30 -46 -31 -46 -6 0 11 -5 23 -12 27 -13 8 17 34 39 34 7 0 21 8 32
19 10 10 25 21 32 23 8 3 11 9 6 13 -4 5 -25 -1 -46 -13 -52 -29 -61 -28 -62
11 -1 19 -3 24 -6 12 -14 -69 -13 -67 -28 -55 -11 9 -15 9 -15 1 0 -6 -4 -11
-10 -11 -5 0 -10 9 -10 20 0 11 -5 20 -11 20 -6 0 -9 -9 -6 -20 6 -21 -37 -57
-48 -40 -10 17 -25 11 -25 -10 0 -11 -6 -20 -13 -20 -8 0 -22 -9 -32 -20 -21
-23 -36 -25 -53 -8 -8 8 -8 17 0 32 8 15 8 21 -1 24 -19 6 -12 29 12 37 12 4
39 6 60 5 26 -1 39 3 43 14 3 9 17 16 30 16 13 0 28 8 33 18 5 10 22 19 37 20
15 1 32 9 39 18 6 9 27 18 46 20 45 3 79 14 79 25 0 11 -14 12 -24 2 -4 -5
-60 -8 -124 -8 -88 0 -116 -3 -114 -12 2 -14 -37 -17 -76 -7 -19 5 -22 12 -18
30 4 16 2 24 -6 24 -7 0 -19 10 -27 21 -11 18 -11 23 1 30 9 6 5 9 -12 9 -15
0 -31 -5 -37 -11 -8 -8 -13 -8 -17 0 -4 6 -23 11 -43 11 -30 0 -34 -2 -23 -15
10 -12 10 -15 -1 -16 -8 0 -33 -2 -56 -5 -24 -3 -51 0 -60 5 -14 8 -9 10 25
11 50 0 55 16 10 29 l-33 10 35 1 c73 4 246 1 278 -5 17 -3 32 -12 32 -19 0
-19 46 -26 62 -10 18 18 68 29 68 15 0 -6 -7 -11 -15 -11 -8 0 -15 -5 -15 -11
0 -6 7 -8 15 -5 8 3 22 9 32 13 12 5 14 3 8 -7 -5 -8 -3 -11 6 -8 8 2 18 14
24 26 10 22 41 36 51 21 3 -5 -5 -9 -17 -9 -12 0 -19 -3 -16 -6 3 -4 58 -7
121 -7 111 0 115 -1 125 -24 6 -13 11 -33 11 -44 0 -18 5 -19 50 -13 33 4 50
3 50 -4 0 -16 -18 -24 -25 -12 -4 7 -11 7 -18 2 -7 -5 -25 -12 -41 -16 -28 -7
-28 -9 -22 -53 3 -25 6 -55 6 -67 0 -18 2 -19 15 -5 12 12 14 21 6 42 -9 23
-7 29 17 47 39 29 46 28 52 -5 5 -27 9 -30 46 -33 48 -3 52 3 61 85 6 62 -7
74 -56 48 -35 -17 -42 -7 -11 15 11 8 20 21 20 30 0 12 2 13 9 1 8 -13 25 -12
62 3 13 6 15 1 11 -24 -6 -44 15 -88 46 -94 37 -8 93 -2 121 13 12 7 25 10 28
7 8 -8 -7 -26 -23 -26 -16 0 -19 -36 -4 -45 25 -15 5 -25 -44 -21 -37 2 -62
-1 -75 -11 -24 -16 -29 -38 -7 -30 7 3 18 1 24 -5 9 -9 60 -16 146 -21 l30 -2
-4 100 c-7 199 -10 180 29 177 19 -2 44 1 55 6 12 6 33 13 48 16 45 10 58 32
58 95 0 32 -3 61 -6 64 -7 6 -45 -10 -54 -23 -7 -10 -136 -81 -189 -105 -33
-14 -46 -16 -49 -7 -2 6 -10 12 -18 12 -10 0 -13 -7 -8 -25 4 -15 2 -25 -4
-25 -6 0 -17 -3 -26 -6 -9 -3 -16 -1 -16 6 0 6 4 9 9 5 5 -3 12 -2 15 3 7 12
-9 33 -30 37 -10 2 -21 4 -23 4 -2 1 2 7 8 15 7 8 8 16 4 19 -11 7 -313 0
-320 -7 -3 -3 -17 -3 -30 0 -15 4 -30 0 -41 -9 -20 -19 -157 -67 -189 -67 -31
0 -53 10 -53 25 0 10 -18 13 -67 12 -80 -1 -166 11 -158 22 2 5 -23 7 -57 6
-34 -2 -71 1 -83 5 -40 15 60 32 149 25 44 -4 83 -8 86 -10 3 -1 14 1 25 6 14
5 2 8 -37 8 -54 1 -72 11 -48 26 18 11 207 16 233 6 19 -8 28 -6 38 5 8 10 28
15 58 14 25 -1 55 -1 66 0 l20 1 -20 9 c-11 5 -37 9 -57 9 -49 1 -57 18 -12
27 41 8 374 -3 400 -13 16 -6 16 -7 -2 -20 -16 -12 -13 -13 24 -13 23 0 42 4
42 8 0 5 36 3 79 -3 71 -10 82 -9 102 6 l23 17 -25 5 c-17 3 -12 5 16 6 22 1
49 6 60 10 32 13 -56 24 -121 16 -55 -7 -74 5 -31 21 15 5 -1 9 -55 11 -43 2
-78 8 -78 13 0 6 11 10 24 10 38 0 42 20 4 21 -29 1 -27 2 12 9 25 4 58 3 73
-3 22 -7 32 -6 46 7 10 9 25 16 33 16 9 0 22 8 29 17 13 15 12 16 -11 9 -14
-5 -54 -10 -90 -11 l-65 -4 48 11 c53 11 66 34 15 24 -18 -3 -132 -6 -252 -7
-172 0 -221 2 -227 13 -5 7 -7 17 -6 21 1 5 89 9 195 9 105 0 194 3 197 8 3 5
15 6 27 1 12 -4 37 -4 56 0 19 4 41 5 48 2 8 -3 20 -1 27 3 19 14 72 11 70 -3
-2 -7 8 -15 22 -19 27 -7 34 -24 10 -24 -8 0 -15 -7 -15 -15 0 -17 16 -20 25
-5 3 6 15 10 27 10 14 0 18 5 15 15 -5 10 4 16 31 21 50 9 135 35 147 45 5 5
21 9 36 9 14 0 38 9 52 20 14 11 49 25 79 31 29 6 72 15 95 20 23 5 88 9 144
9 83 0 99 -2 91 -13 -8 -9 -30 -12 -73 -9 -53 4 -61 2 -56 -11 3 -9 -1 -18 -9
-21 -8 -3 -14 -10 -14 -16 0 -6 12 -2 26 9 32 25 44 26 44 5 0 -19 -65 -47
-91 -39 -10 3 -27 1 -36 -5 -16 -11 -16 -11 2 -6 17 5 17 3 -4 -14 -14 -13
-31 -18 -40 -14 -23 9 -125 4 -129 -7 -2 -5 -11 -9 -20 -9 -15 0 -15 2 -2 10
11 7 7 10 -18 10 -20 0 -31 -4 -27 -10 3 -6 -4 -10 -16 -10 -38 0 -7 -20 32
-22 67 -2 79 -7 79 -35 l0 -26 65 7 c45 5 71 3 85 -6 17 -11 22 -11 29 1 6 9
15 11 27 6 11 -5 79 -11 152 -14 l132 -6 0 38 c0 20 5 37 10 37 6 0 10 -9 10
-19 0 -11 5 -23 10 -26 6 -3 10 3 10 14 0 12 5 21 10 21 6 0 10 -11 10 -25 0
-29 15 -33 25 -7 6 16 7 16 19 0 14 -19 42 -26 31 -8 -3 5 -3 15 1 21 3 6 14
-2 25 -20 17 -28 20 -30 51 -19 24 9 33 8 36 -1 2 -7 12 -20 22 -29 10 -9 21
-32 25 -51 4 -19 14 -41 21 -49 8 -7 12 -18 8 -23 -3 -5 3 -21 14 -37 11 -15
22 -43 26 -62 15 -78 28 -167 29 -198 0 -19 5 -31 11 -29 6 2 10 16 8 30 -1
14 2 28 7 32 18 10 36 -39 36 -99 1 -39 6 -62 16 -70 9 -7 15 -27 15 -53 -1
-40 -1 -41 -32 -36 -37 6 -54 -12 -28 -31 11 -8 17 -25 16 -47 0 -18 2 -28 6
-22 4 6 16 12 27 14 12 3 21 14 23 27 2 12 7 22 11 22 17 0 33 -31 29 -55 -3
-14 1 -30 8 -36 8 -6 14 -22 14 -35 0 -12 5 -26 11 -30 6 -4 8 -20 5 -39 -7
-35 3 -49 27 -39 9 3 15 19 15 42 1 58 8 92 20 104 7 7 12 20 12 29 0 10 6 20
13 23 6 3 -1 3 -18 0 -21 -4 -26 -3 -16 4 8 6 11 18 6 31 -4 13 2 35 16 61 21
37 22 43 9 73 -8 18 -15 61 -15 97 -1 36 -4 72 -7 80 -21 60 -28 92 -23 112 3
13 1 29 -4 37 -16 24 -43 -6 -36 -39 3 -14 0 -38 -7 -52 -11 -20 -18 -24 -36
-17 -26 10 -27 15 -7 63 15 36 12 78 -7 103 -5 6 -8 27 -6 45 2 25 -1 33 -16
36 -16 3 -18 -1 -14 -29 6 -36 -18 -92 -35 -86 -7 2 -11 19 -10 38 1 19 -1 41
-4 49 -3 8 -7 27 -8 42 -2 15 -5 43 -9 61 -6 31 -4 36 23 47 16 6 38 9 48 6
10 -3 43 -6 73 -7 30 -1 60 -6 67 -11 7 -5 14 -5 18 2 8 14 68 13 83 -2 8 -8
15 -8 25 0 15 12 274 12 294 -1 6 -4 14 -3 18 3 3 5 17 10 30 10 26 0 30 -11
41 -107 7 -65 11 -72 32 -51 9 9 12 4 12 -26 0 -44 15 -76 35 -76 9 0 24 -6
35 -12 34 -22 53 10 60 99 6 90 16 72 26 -48 9 -114 31 -149 84 -137 7 2 19
-8 26 -21 12 -24 74 -61 101 -61 7 0 13 -7 13 -15 0 -9 12 -27 26 -40 20 -19
33 -23 57 -18 38 7 88 50 80 69 -7 18 6 69 15 59 4 -4 7 -46 7 -93 0 -101 18
-129 23 -34 2 34 7 62 12 62 6 0 10 -6 10 -12 0 -7 10 2 21 19 13 20 23 57 26
94 3 33 11 63 18 65 10 4 89 -26 151 -57 24 -12 33 -65 40 -219 2 -47 5 -97 8
-111 4 -23 1 -27 -26 -33 -50 -10 -89 -7 -87 7 1 6 1 19 0 27 -1 13 -3 13 -11
-1 -17 -30 0 -58 39 -64 20 -3 47 -8 61 -11 14 -3 32 -4 40 -4 8 1 28 1 43 1
20 0 30 6 36 21 l8 22 12 -21 c6 -12 11 -42 11 -66 0 -80 48 -114 138 -98 39
8 42 7 42 -13 1 -27 22 -55 55 -72 27 -14 110 -14 133 0 6 4 12 6 13 4 0 -2 1
-24 2 -49 3 -58 23 -79 75 -79 73 0 89 44 107 292 2 32 9 66 15 78 7 14 8 26
0 39 -10 20 -4 51 10 51 13 0 164 -62 175 -72 6 -5 10 -80 11 -181 2 -379 2
-388 22 -394 10 -2 22 -14 27 -26 9 -20 17 -22 88 -21 81 0 97 7 100 42 0 11
11 25 24 31 18 8 23 19 23 48 1 21 7 63 14 93 9 36 11 91 8 157 -6 121 -1 139
28 121 20 -12 20 -20 15 -168 -3 -85 -7 -182 -10 -215 -9 -97 -17 -248 -16
-280 2 -44 20 -55 99 -62 58 -5 74 -3 87 11 9 9 22 16 30 16 7 0 15 7 18 15 9
21 26 239 31 396 3 75 8 143 12 152 10 27 3 29 196 -61 l86 -40 7 -67 c7 -59
11 -69 37 -84 23 -15 26 -20 15 -29 -10 -8 -13 -42 -11 -134 3 -216 19 -247
133 -253 110 -6 117 8 127 260 8 196 6 192 80 151 33 -19 61 -26 98 -26 56 0
82 -13 88 -44 3 -21 77 -49 157 -61 50 -7 132 -43 171 -75 22 -18 183 -85 338
-140 29 -11 94 -39 145 -63 51 -25 103 -48 117 -52 39 -12 54 -26 38 -37 -9
-6 -6 -7 8 -4 11 4 29 -1 40 -9 10 -8 31 -15 47 -15 15 0 27 -5 27 -11 0 -5 4
-8 9 -5 5 3 23 1 41 -5 23 -8 29 -14 21 -22 -9 -9 -17 -8 -31 1 -20 12 -50 7
-50 -9 0 -18 -32 -8 -37 11 -7 25 -18 25 -44 -1 -20 -20 -22 -20 -40 -3 -11
10 -19 12 -19 6 0 -21 -37 -13 -43 9 -6 23 -27 17 -27 -7 0 -8 -7 -14 -15 -14
-8 0 -15 6 -15 14 0 19 -40 28 -46 11 -3 -8 -11 -12 -18 -9 -16 6 -37 -18 -28
-32 9 -14 66 -44 104 -55 23 -6 31 -4 43 14 8 12 15 17 15 11 0 -14 45 -21
178 -30 101 -6 103 -6 109 16 5 19 8 21 17 8 6 -8 28 -17 49 -21 35 -5 37 -4
38 21 l1 27 7 -25 c6 -23 11 -25 66 -26 44 0 82 -9 140 -33 44 -19 136 -56
205 -84 69 -28 135 -57 148 -65 l22 -14 0 362 0 361 -22 -2 c-13 -2 -30 1 -38
6 -8 5 -32 12 -55 17 -60 11 -207 49 -230 59 -36 15 -95 28 -90 19 9 -15 -15
-22 -32 -9 -8 7 -30 12 -49 10 -18 -1 -39 1 -46 6 -18 11 -80 33 -95 33 -7 0
-21 8 -32 19 -12 12 -27 17 -45 14 -15 -3 -26 -1 -26 6 0 6 -11 8 -29 5 -17
-4 -38 0 -52 9 -13 8 -46 20 -74 27 -27 7 -81 23 -120 36 -38 12 -90 26 -115
29 -25 4 -50 11 -56 16 -15 12 -91 38 -128 44 -72 12 -86 17 -86 32 0 11 3 13
13 5 9 -8 16 -6 24 7 10 16 7 17 -42 13 -29 -2 -61 1 -71 7 -18 10 -18 10 1
12 14 0 11 3 -10 10 -23 7 -33 5 -41 -6 -14 -18 -25 -20 -22 -2 2 7 -7 12 -22
11 -14 0 -24 -5 -22 -12 1 -7 -2 -12 -8 -12 -5 0 -10 7 -10 15 0 8 -6 15 -14
15 -8 0 -18 5 -22 11 -5 8 6 9 35 4 48 -8 97 10 105 38 4 15 13 18 53 16 27
-1 54 0 60 4 6 4 14 1 16 -5 4 -10 8 -9 16 2 6 8 11 11 11 5 0 -18 -17 -37
-31 -35 -26 4 -40 0 -34 -9 3 -5 -3 -12 -12 -14 -10 -3 -1 -5 19 -6 29 -1 36
-4 31 -16 -4 -13 2 -15 38 -9 36 5 42 4 32 -7 -22 -22 -15 -29 32 -29 45 0 54
-7 34 -27 -16 -16 2 -21 38 -11 23 6 31 13 27 23 -5 11 1 15 22 15 45 0 73 11
68 25 -7 18 15 24 61 15 40 -7 31 -20 -12 -17 -12 1 -22 -2 -22 -8 0 -5 12 -8
27 -5 27 4 84 4 121 -2 11 -1 17 -8 14 -15 -4 -9 8 -14 38 -15 24 -1 55 -2 69
-3 14 -1 29 1 35 4 5 3 28 5 52 6 33 0 39 -2 31 -12 -6 -7 -17 -13 -25 -13 -8
0 -12 -4 -8 -10 4 -6 15 -6 31 0 16 7 32 6 44 0 10 -6 51 -12 90 -15 39 -2 75
-7 80 -10 5 -3 11 -1 15 5 10 17 47 11 71 -11 13 -12 44 -24 75 -29 30 -4 65
-12 78 -16 18 -5 22 -4 16 5 -5 9 -2 12 11 8 11 -3 63 -8 117 -12 l97 -7 0 81
0 81 -34 0 c-19 0 -36 5 -38 11 -2 7 -12 7 -32 -1 -30 -11 -246 -7 -265 5 -6
3 -48 5 -93 4 -46 -1 -108 2 -139 6 -60 7 -100 1 -96 -17 1 -6 -35 -10 -103
-9 -115 2 -168 8 -188 24 -7 6 -82 8 -194 6 -149 -3 -182 -2 -186 10 -3 10 1
12 18 8 12 -3 34 -1 49 5 14 6 61 10 103 9 43 -2 92 1 110 5 32 8 31 8 -22 16
-117 16 -200 20 -200 10 0 -6 6 -13 13 -16 6 -3 -4 -4 -23 -3 -19 1 -33 4 -31
7 7 7 -44 60 -58 60 -6 0 -11 7 -11 15 0 13 -9 15 -50 9 -37 -5 -55 -3 -68 8
-11 9 -44 15 -92 17 -41 1 -78 5 -82 7 -4 3 -8 1 -8 -5 0 -14 25 -19 99 -20
41 0 73 -7 89 -17 22 -14 59 -26 90 -27 6 0 12 -3 12 -7 0 -11 -221 -27 -227
-16 -8 12 -194 1 -202 -12 -9 -14 -39 -17 -93 -8 -69 10 -62 29 7 21 48 -6 55
-5 49 9 -5 13 0 16 25 16 17 0 31 5 31 11 0 5 -5 7 -10 4 -6 -3 -10 1 -10 10
0 12 -5 15 -16 11 -10 -4 -26 1 -37 11 -19 17 -20 17 -9 -4 11 -20 11 -21 -19
-10 -24 10 -32 9 -39 -3 -8 -13 -10 -12 -10 3 0 13 -5 17 -19 12 -10 -3 -24 1
-31 10 -17 21 -41 20 -33 -2 5 -13 2 -15 -11 -10 -10 4 -22 7 -27 7 -5 0 -9 5
-9 10 0 6 6 10 13 10 9 0 14 12 15 29 1 33 -14 33 -53 2 -18 -15 -19 -15 -7 0
15 20 6 29 -31 29 -26 0 -28 -2 -16 -17 13 -15 12 -15 -8 -2 -13 8 -23 18 -23
24 0 5 -5 3 -10 -5 -8 -13 -13 -13 -41 3 -17 9 -40 17 -52 17 -20 0 -20 -1 4
-27 19 -21 21 -25 6 -20 -42 15 -65 18 -71 9 -3 -6 3 -13 14 -17 11 -3 20 -10
20 -15 0 -5 -17 -3 -37 5 -21 7 -63 20 -93 30 -30 10 -65 23 -76 31 -12 7 -41
14 -65 17 -39 3 -38 4 14 5 37 1 56 -2 52 -8 -4 -6 5 -10 19 -10 14 0 26 5 26
10 0 6 12 8 28 5 l27 -6 -23 17 c-18 13 -42 16 -120 15 -53 -1 -118 -2 -144
-2 -26 0 -50 -4 -53 -9 -10 -16 -25 -12 -25 6 0 12 -6 15 -24 10 -19 -5 -26
-1 -31 15 -6 17 -13 20 -36 15 -16 -3 -40 1 -56 9 -15 8 -39 15 -52 15 -36 0
-91 22 -91 37 0 6 -8 17 -17 23 -15 9 -13 9 7 3 31 -10 267 -8 298 2 16 5 22
3 22 -8 0 -16 29 -27 73 -27 39 0 34 18 -8 26 -19 3 -35 10 -35 16 0 5 15 6
35 2 21 -4 35 -2 35 4 0 5 -19 13 -42 16 -113 15 -128 18 -121 30 3 6 1 6 -8
-2 -15 -14 -109 -16 -109 -2 0 6 -9 10 -21 10 -11 0 -30 5 -41 11 -11 6 -41
14 -66 18 -25 3 -47 12 -50 20 -4 11 2 12 24 7 76 -17 149 -24 159 -16 11 9
96 7 125 -3 32 -12 110 -12 110 -1 0 22 -45 41 -120 52 -41 7 -85 15 -97 18
-14 4 -23 2 -23 -5 0 -6 -12 -11 -26 -11 -14 0 -23 -4 -20 -9 3 -5 -37 -8 -88
-7 -52 0 -92 4 -89 9 2 4 -5 7 -17 7 -13 0 -19 -4 -14 -11 5 -8 -1 -10 -20 -7
-14 3 -26 1 -26 -3 0 -12 46 -22 75 -17 14 3 25 1 25 -4 0 -6 9 -17 21 -26 19
-16 9 -17 -168 -17 l-189 0 -34 28 c-24 21 -41 28 -62 25 -15 -3 -28 -1 -28 3
0 5 -7 5 -17 2 -10 -4 -14 -2 -10 4 4 6 -11 13 -38 16 -25 4 -55 13 -68 21
-12 8 -39 18 -59 21 -21 4 -36 11 -33 15 2 4 -36 10 -85 12 -54 3 -99 11 -112
20 -26 17 -66 28 -122 34 -21 2 -42 7 -45 10 -3 4 6 5 21 2 36 -7 101 4 99 17
-1 9 -139 9 -173 -1 -10 -3 -18 -1 -18 5 0 5 8 12 18 14 9 3 -5 5 -33 5 -89 1
-98 2 -110 12 -7 6 -17 10 -21 9 -20 -3 -32 2 -58 26 -15 14 -36 25 -46 25
-11 0 -24 9 -30 20 -8 14 -21 20 -48 20 -20 1 -57 5 -82 10 -25 6 -68 14 -95
19 -28 5 -64 16 -80 25 -17 8 -46 18 -65 21 -31 4 -76 45 -50 45 5 0 10 -4 10
-9 0 -9 30 -15 125 -27 28 -4 55 -11 62 -16 7 -6 19 -5 33 2 48 26 373 14 445
-17 17 -7 13 -9 -20 -15 -22 -4 -1 -5 46 -2 47 3 98 0 113 -5 14 -6 41 -12 59
-13 18 -1 39 -7 48 -14 9 -8 36 -13 68 -12 28 2 55 -2 59 -8 4 -6 28 -14 55
-18 64 -10 60 -26 -7 -26 -30 0 -57 -4 -60 -9 -3 -4 -37 -11 -76 -15 -40 -4
-68 -11 -65 -17 4 -5 13 -9 21 -9 9 0 22 -7 30 -15 9 -8 27 -15 42 -15 15 0
38 -3 51 -7 17 -4 22 -3 17 6 -4 6 -11 9 -15 6 -5 -2 -17 2 -27 10 -17 13 -12
14 48 15 36 0 73 3 81 6 12 4 14 0 10 -14 -4 -16 1 -20 27 -24 30 -4 56 12 32
20 -29 9 -8 22 28 16 26 -4 40 -3 40 4 0 6 -20 14 -45 18 -46 6 -58 20 -29 31
19 7 201 -15 224 -27 16 -8 45 -14 143 -30 31 -4 72 -13 90 -18 17 -6 58 -13
90 -17 31 -4 57 -11 57 -17 0 -7 -45 -9 -142 -6 -124 4 -139 3 -113 -8 17 -7
24 -13 17 -14 -7 0 -11 -4 -8 -9 3 -4 64 -7 135 -6 107 1 129 -1 120 -12 -7
-7 -23 -13 -37 -13 -52 0 -14 -9 58 -14 70 -5 73 -4 44 8 -33 14 -53 36 -34
36 5 0 18 -4 28 -9 23 -13 75 -25 87 -21 18 6 168 0 250 -11 114 -14 214 -41
217 -58 3 -13 56 -18 251 -24 15 -1 27 -5 27 -9 0 -4 14 -8 31 -8 16 0 28 4
25 8 -7 11 61 32 80 25 8 -3 14 -1 14 5 0 5 -15 12 -32 15 -18 3 -46 8 -63 10
-72 13 -165 17 -165 8 0 -11 -50 2 -92 25 -17 9 -27 11 -30 3 -2 -5 -16 -12
-31 -13 -21 -3 -27 0 -23 10 4 10 -3 14 -22 14 -15 0 -35 7 -45 15 -12 8 -31
11 -52 8 -32 -5 -174 21 -204 37 -7 4 15 10 52 14 49 5 77 2 109 -9 85 -32
145 -44 228 -49 47 -2 96 -9 110 -14 14 -5 68 -15 120 -21 206 -27 305 -44
311 -53 4 -5 9 -3 12 5 9 23 -26 33 -223 62 -63 10 -101 19 -106 26 -3 5 -21
9 -40 9 -24 0 -34 5 -34 15 0 13 -4 14 -21 4 -16 -8 -32 -8 -63 1 -22 6 -92
12 -153 13 -83 1 -113 5 -113 15 0 13 32 16 163 14 42 0 77 4 77 9 0 5 -9 9
-20 9 -11 0 -20 5 -20 11 0 6 16 10 38 8 53 -3 72 0 72 10 0 5 -9 11 -21 14
-12 3 -18 10 -15 15 3 5 -3 12 -14 15 -11 3 -23 1 -26 -4 -3 -5 0 -9 5 -9 6 0
11 -4 11 -10 0 -5 -20 -10 -45 -10 -25 0 -45 -5 -45 -11 0 -5 5 -7 10 -4 6 3
10 1 10 -4 0 -6 -6 -12 -12 -13 -115 -14 -288 -11 -337 7 -53 18 -51 18 -51 1
0 -8 -7 -17 -16 -20 -20 -8 -82 54 -76 75 2 9 -1 8 -11 -3 -13 -16 -14 -16
-29 1 -15 18 -11 19 116 25 72 3 163 6 201 5 105 -2 145 0 145 9 0 4 -33 8
-72 9 -137 3 -135 2 -114 14 14 9 15 13 6 19 -10 6 -9 12 4 25 14 15 28 16 79
11 188 -20 261 -32 265 -43 2 -7 10 -13 18 -13 8 0 14 -4 14 -9 0 -5 13 -14
30 -21 31 -13 44 -37 34 -63 -7 -19 33 -32 70 -23 14 3 28 1 32 -5 4 -7 -14
-10 -60 -7 -49 2 -66 0 -66 -10 0 -10 26 -12 105 -11 105 1 137 11 93 28 -19
8 -15 10 25 10 26 1 47 5 47 9 0 5 -20 8 -45 7 -37 -1 -45 2 -45 17 0 10 5 18
10 18 6 0 10 15 10 34 l0 33 68 1 c37 1 112 -5 166 -13 55 -8 130 -15 168 -15
69 0 88 -12 46 -30 -16 -6 -18 -9 -7 -9 22 -1 43 -27 29 -36 -16 -10 -12 -28
5 -21 9 3 15 0 15 -8 0 -8 2 -21 5 -29 7 -15 -8 -19 -74 -17 -44 0 -87 -23
-75 -42 3 -5 14 -2 24 7 15 14 18 14 30 0 7 -8 17 -12 22 -9 6 4 15 0 20 -7 8
-11 9 -10 4 4 -7 21 22 24 30 2 4 -8 16 -15 28 -15 17 0 18 2 6 10 -11 7 5 10
53 10 46 0 76 -5 92 -16 23 -15 25 -15 25 0 0 19 36 22 43 4 4 -10 6 -10 6 0
1 18 71 15 85 -4 12 -16 50 -9 40 7 -3 6 0 16 6 24 10 12 9 15 -4 15 -9 0 -16
-7 -16 -15 0 -8 -5 -15 -11 -15 -5 0 -7 5 -4 10 10 16 -10 19 -147 23 -70 2
-131 6 -134 10 -4 4 0 15 9 25 10 10 17 31 17 45 0 25 3 27 36 22 25 -3 34 -1
31 8 -2 7 -10 11 -17 9 -18 -4 -50 8 -50 19 0 5 10 7 23 4 31 -8 95 -15 223
-24 102 -8 164 -24 150 -39 -4 -3 -12 0 -18 6 -14 14 -28 16 -28 2 0 -5 17
-14 38 -19 31 -9 39 -8 49 5 10 14 27 16 107 11 109 -6 153 -21 93 -32 -20 -4
-44 -5 -52 -1 -8 3 -15 2 -15 -2 0 -18 26 -32 57 -32 20 0 33 -5 33 -12 0 -10
3 -9 9 1 6 9 18 11 35 7 15 -4 24 -11 21 -16 -5 -8 24 -30 39 -30 14 0 4 29
-11 35 -17 6 -17 7 0 19 25 19 21 26 -12 26 -42 0 -48 17 -8 23 17 2 35 0 38
-5 3 -5 18 -6 32 -2 16 4 27 2 27 -4 0 -6 -10 -12 -22 -14 -12 -2 -24 -9 -26
-17 -3 -10 1 -12 17 -8 11 3 23 2 26 -2 2 -4 18 -6 35 -3 l32 5 -29 19 c-27
19 -27 20 -3 13 14 -4 40 -7 58 -6 17 0 32 -4 32 -10 0 -6 9 -8 20 -4 16 5 20
2 20 -17 0 -18 2 -20 10 -8 11 18 155 19 173 1 8 -8 8 -11 -1 -11 -7 0 -12 -5
-12 -11 0 -5 5 -7 10 -4 6 4 17 2 24 -4 13 -11 67 -20 251 -41 50 -5 105 -12
123 -14 25 -4 32 -1 32 13 0 9 -5 22 -12 29 -9 9 -9 12 0 12 7 0 12 14 12 34
l0 35 -57 6 c-32 3 -80 10 -108 15 -27 5 -86 11 -130 15 -150 11 -188 17 -174
27 9 6 -25 8 -95 4 -60 -3 -137 -2 -172 1 l-64 6 0 58 c0 33 3 59 8 59 4 0 79
-4 167 -10 88 -5 237 -14 330 -20 94 -6 198 -13 233 -15 l62 -6 0 56 0 55
-107 0 c-58 0 -103 3 -100 7 4 3 26 7 49 7 24 1 69 3 101 4 l57 2 0 195 0 195
-40 -6 c-23 -4 -52 -2 -69 6 -17 6 -35 9 -42 4 -7 -4 -34 -9 -61 -11 -46 -4
-47 -3 -39 19 5 13 14 22 20 20 6 -1 11 2 11 8 0 5 -12 10 -26 10 -14 0 -23
-4 -20 -9 4 -5 2 -21 -3 -34 l-10 -25 -708 -2 c-389 -1 -724 -3 -743 -3 -105
-2 -382 8 -385 14 -3 3 -7 111 -10 240 -3 129 -10 290 -16 359 -5 69 -9 141
-9 161 0 32 -5 40 -37 59 -51 30 -134 22 -174 -16 -31 -30 -38 -61 -45 -199
-3 -60 -10 -108 -19 -121 -7 -11 -15 -45 -16 -75 -1 -30 -6 -67 -10 -84 -4
-16 -10 -94 -13 -173 -3 -78 -8 -147 -11 -153 -4 -6 -56 -9 -133 -7 l-127 3
-2 190 c-4 281 -10 440 -21 537 -16 138 -18 142 -64 163 -36 15 -49 16 -101 7
-32 -6 -64 -15 -70 -21 -13 -10 -15 -275 -4 -341 16 -89 23 -528 10 -541 -6
-6 -20 -6 -37 1 -25 9 -27 14 -22 48 13 82 9 526 -5 592 -13 58 -63 149 -76
136 -3 -2 -19 0 -36 5 -43 12 -106 2 -136 -22 -35 -29 -42 -86 -46 -419 -2
-210 -7 -296 -15 -298 -6 -2 -15 -15 -20 -28 -15 -37 -65 -29 -65 10 0 11 -6
21 -12 24 -8 2 -13 -6 -13 -23 0 -21 -4 -26 -22 -23 -29 4 -51 97 -45 192 3
38 1 83 -4 100 -4 17 -10 73 -13 123 -4 51 -11 104 -16 119 -6 14 -8 30 -5 35
4 5 -5 21 -19 36 -34 37 -99 39 -127 4 -15 -18 -26 -22 -51 -19 -30 5 -66 0
-114 -16 -14 -4 -28 -1 -38 9 -9 9 -20 13 -26 10 -18 -11 -10 -25 15 -25 28 0
29 -3 14 -31 -7 -15 -16 -18 -32 -13 -12 4 -24 9 -27 13 -3 3 -14 11 -25 17
-44 24 -124 -39 -112 -89 9 -33 -6 -51 -39 -44 -36 6 -73 -11 -80 -37 -6 -25
-23 -202 -30 -308 -3 -43 -10 -78 -15 -78 -5 0 -9 -8 -9 -17 0 -16 -1 -16 -12
0 -10 12 -32 17 -83 19 l-70 3 3 50 c3 68 -17 164 -37 175 -18 9 -41 -4 -59
-35 -13 -24 -16 -17 -31 74 -11 70 -20 80 -66 82 -48 2 -59 -1 -77 -22 -11
-13 -29 -19 -60 -19 -47 0 -61 -7 -70 -31 -5 -12 -14 -15 -32 -12 -43 9 -76
-21 -76 -66 0 -59 -12 -131 -21 -131 -5 0 -9 24 -9 53 0 28 -6 63 -13 77 -11
22 -19 25 -57 22 -50 -3 -60 -13 -60 -61 0 -29 -2 -32 -15 -21 -9 7 -17 11
-19 9 -2 -2 -8 -35 -13 -74 l-8 -70 -344 -2 c-238 -2 -349 1 -358 9 -7 6 -13
23 -13 39 0 16 -5 29 -11 29 -6 0 -9 -19 -8 -50 3 -56 -5 -72 -24 -46 -16 21
-48 12 -40 -12 3 -9 -7 0 -23 21 -26 36 -29 37 -41 20 -14 -18 -73 -28 -73
-12 0 18 -17 9 -30 -16 -13 -25 -36 -24 -26 1 8 22 -10 16 -27 -9 l-16 -22 -7
23 c-9 32 -24 27 -24 -8 0 -16 -4 -30 -10 -30 -5 0 -10 11 -10 25 0 14 -4 25
-10 25 -5 0 -10 -11 -10 -25 0 -14 -4 -25 -10 -25 -5 0 -10 15 -10 33 l0 32
-169 -1 c-93 -1 -173 -4 -178 -7 -4 -3 -49 -3 -98 0 -50 2 -127 4 -173 4 l-82
0 -2 37 c0 20 -2 65 -2 99 -2 77 -15 93 -88 104 -80 13 -108 5 -109 -34 -1
-25 -3 -27 -6 -9 -3 13 -1 31 3 40 10 23 14 54 8 75 -4 12 -15 17 -37 16 -18
-1 -24 -3 -14 -6 9 -2 17 -8 17 -11 0 -8 -96 -9 -104 -1 -15 15 -67 -5 -80
-30 -18 -35 -30 -90 -27 -123 1 -14 -2 -29 -7 -32 -5 -3 -12 29 -17 76 -5 59
-3 83 5 88 7 4 9 13 6 19 -4 6 -11 9 -15 6 -5 -2 -23 0 -40 5 -58 16 -59 13
-63 -155 -2 -84 -6 -156 -9 -160 -7 -6 -16 -7 -134 -2 -68 2 -70 3 -73 30 -2
19 1 27 10 25 8 -2 12 4 10 17 -5 28 -12 32 -22 15 -19 -31 -29 8 -32 130 -5
146 -33 260 -74 298 -43 38 -153 26 -192 -21 -14 -17 -24 -135 -28 -327 -1
-74 -3 -142 -3 -151 -1 -24 -51 -30 -85 -11 -22 13 -30 14 -33 5 -8 -21 -20
-15 -27 13 -4 15 -1 38 9 56 18 37 19 46 3 30 -18 -18 -26 -15 -26 11 1 12 -2
78 -5 147 -4 69 -7 149 -7 177 0 45 -4 55 -25 69 -27 18 -64 13 -88 -11 -9 -8
-18 -43 -22 -77 -3 -35 -9 -88 -12 -118 -3 -30 -4 -79 -4 -107 2 -44 -1 -52
-14 -47 -10 4 -15 0 -15 -14 0 -11 -10 -26 -22 -34 -28 -19 -18 -53 12 -43 11
3 20 2 20 -4 0 -15 -22 -25 -52 -23 -22 2 -28 -2 -28 -18 0 -16 -7 -20 -30
-20 -39 0 -49 24 -22 53 16 17 22 40 25 102 3 44 8 110 12 146 5 54 3 70 -10
83 -11 11 -16 34 -16 73 1 116 -1 127 -21 155 -13 20 -21 47 -22 81 l-1 51 98
-3 c82 -2 97 0 97 13 0 13 -22 15 -160 14 -140 -2 -160 -4 -156 -17 13 -47 16
-92 7 -108 -18 -35 -41 -126 -41 -164 0 -22 -4 -39 -10 -39 -5 0 -8 68 -7 173
2 213 -2 239 -49 266 -29 17 -46 20 -92 16 -31 -3 -70 -15 -87 -25 -28 -18
-31 -24 -41 -117 -6 -54 -8 -102 -6 -107 8 -15 3 -240 -8 -314 -5 -37 -8 -74
-8 -82 1 -8 0 -45 0 -81 -2 -66 -2 -67 -29 -66 -16 1 -31 6 -34 11 -7 9 -2
293 6 314 2 7 0 58 -5 115 -5 56 -12 175 -14 264 -3 129 -8 172 -22 208 -11
25 -24 45 -31 45 -7 0 -10 6 -7 14 4 10 -16 13 -105 12 -61 -1 -111 3 -111 7
0 4 -33 7 -72 5 -82 -3 -96 -19 -42 -47 22 -11 31 -23 32 -41 5 -204 -10 -424
-29 -435 -4 -3 -5 -21 -2 -40 3 -21 1 -41 -7 -50 -8 -9 -13 -61 -16 -148 -3
-128 -18 -291 -30 -321 -3 -8 -17 -16 -32 -18 -32 -4 -41 -27 -13 -35 25 -6
27 -16 7 -32 -12 -10 -18 -7 -31 18 -25 49 -35 38 -28 -29 6 -58 5 -60 -18
-60 -18 0 -20 3 -10 9 11 7 11 17 0 60 -7 28 -18 51 -25 51 -6 0 -17 7 -24 15
-20 24 -30 17 -30 -20 0 -19 -4 -35 -9 -35 -13 0 -19 48 -8 59 6 6 7 11 2 11
-5 0 0 7 12 15 16 11 21 25 21 65 0 27 -4 50 -9 50 -5 0 -9 -8 -9 -18 0 -17
-18 -42 -30 -42 -3 0 -5 260 -5 578 1 317 -2 586 -6 598 -14 40 -173 66 -260
41z m1958 -1402 c13 -69 13 -93 -2 -127 -5 -13 -3 -18 9 -18 13 0 16 -10 14
-45 -1 -29 -6 -45 -14 -45 -18 0 -25 15 -29 61 -4 59 -15 60 -15 1 0 -28 -4
-54 -10 -57 -21 -13 -9 -26 18 -20 20 4 33 1 41 -9 21 -26 3 -36 -65 -36 -48
0 -64 3 -64 14 0 8 7 17 17 20 14 6 14 8 -3 21 -18 13 -17 14 14 15 31 0 32 1
32 43 0 26 9 58 24 83 15 27 22 51 19 68 -8 38 -23 42 -23 6 0 -29 -2 -31 -32
-28 -31 3 -33 5 -32 41 1 20 -3 37 -7 37 -5 0 -9 6 -9 13 0 25 25 38 64 35
l40 -4 13 -69z m-543 -61 c20 -20 20 -80 0 -119 -10 -19 -11 -31 -5 -33 6 -2
11 -15 11 -28 0 -22 -29 -44 -62 -48 -5 -1 -8 -5 -8 -11 0 -5 12 -10 28 -10
32 0 51 -23 31 -36 -8 -5 -26 -9 -41 -9 -18 0 -28 -5 -28 -15 0 -10 -10 -15
-29 -15 -28 0 -28 1 -24 48 3 26 11 71 19 100 l15 52 46 0 46 0 -8 33 c-12 57
-18 107 -12 107 3 0 13 -7 21 -16z m3571 -148 c83 -20 191 -42 240 -50 111
-18 163 -30 195 -45 22 -10 21 -11 -15 -6 -87 13 -225 26 -315 31 -112 6 -143
11 -135 24 3 6 1 10 -4 10 -6 0 -11 -5 -11 -11 0 -20 -148 -4 -218 23 -63 23
-63 24 -38 36 19 9 25 9 23 0 -3 -14 67 -28 85 -17 9 6 7 9 -7 10 -11 1 -25 3
-32 3 -26 3 -24 15 3 21 16 4 34 8 39 9 13 3 13 3 190 -38z m2579 -21 c3 -9
18 -15 40 -15 32 0 34 -2 38 -40 l4 -40 -46 0 c-25 0 -88 3 -141 6 l-97 7 -6
39 c-4 22 -4 43 -1 49 4 5 50 9 105 9 78 0 99 -3 104 -15z m-7060 -93 c0 -31
3 -60 8 -63 5 -3 11 -31 14 -62 l5 -57 -36 0 c-40 0 -45 7 -12 19 15 6 5 8
-33 5 -30 -1 -70 0 -88 3 -28 5 -31 8 -20 18 9 10 28 11 70 5 60 -9 98 -4 98
11 0 5 -10 9 -22 10 -13 0 -54 2 -93 5 -38 3 -85 5 -104 5 -28 -1 -32 2 -26
16 4 10 7 25 7 33 0 8 4 36 9 61 l10 47 38 -5 c23 -3 41 -1 45 6 4 6 25 11 47
11 38 0 39 -1 33 -27 -12 -51 -24 -73 -39 -79 -12 -5 -13 -9 -4 -20 17 -21 38
-17 43 9 15 70 17 84 21 102 2 11 4 22 4 25 1 2 7 -2 14 -9 7 -7 12 -36 11
-69z m7561 58 c5 -8 11 -7 21 1 10 8 14 8 14 0 0 -6 10 -11 21 -11 17 0 19 -3
10 -14 -17 -21 3 -25 149 -28 69 -2 128 -7 132 -13 4 -5 8 -20 8 -32 0 -27 1
-26 -130 -13 -52 6 -123 11 -158 12 -38 0 -58 4 -50 9 7 5 -17 7 -54 5 l-68
-4 0 33 c0 56 8 65 55 65 24 0 47 -5 50 -10z m-8300 -10 c30 0 33 -4 45 -43 6
-24 10 -57 8 -73 -3 -33 8 -31 -278 -53 -80 -7 -163 -16 -185 -21 -22 -5 -41
-7 -43 -5 -2 2 -4 21 -5 42 0 21 -4 43 -9 50 -18 23 10 53 50 54 37 0 87 3
251 14 93 6 147 24 73 25 -29 0 -41 4 -36 11 4 7 23 9 52 5 25 -3 59 -6 77 -6z
m8815 -10 c0 -5 -10 -10 -22 -10 -12 0 -19 -2 -17 -4 6 -6 123 -15 354 -26
116 -6 249 -13 298 -16 l87 -7 0 -55 0 -55 -87 7 c-49 3 -147 9 -220 12 -73 4
-130 11 -127 15 3 5 -25 9 -63 8 -68 -1 -108 3 -235 22 l-68 11 0 38 c0 21 -3
45 -6 54 -5 13 3 16 50 16 31 0 56 -4 56 -10z m-6071 -36 c81 -16 12 -27 -304
-49 -55 -3 -102 -9 -104 -11 -3 -3 0 -13 7 -24 10 -16 8 -20 -11 -26 -38 -13
-537 -11 -537 2 0 7 11 9 28 7 25 -4 26 -3 9 10 -17 14 -16 15 3 20 15 4 20 0
20 -14 0 -18 8 -19 158 -15 86 2 169 9 184 15 16 6 41 8 57 5 30 -6 71 9 71
27 0 6 -4 8 -9 4 -5 -3 -28 1 -49 8 -48 17 -155 6 -178 -18 -10 -9 -33 -15
-62 -14 -44 1 -45 2 -20 12 14 5 31 20 36 32 10 22 11 22 313 24 166 1 305 3
307 6 7 7 43 6 81 -1z m-1053 -226 c4 -5 2 -8 -5 -8 -8 0 -11 -8 -8 -20 5 -19
-8 -29 -15 -11 -3 10 -118 -5 -130 -17 -4 -4 -3 -14 2 -22 7 -12 12 -12 22 -2
13 13 108 17 108 4 0 -5 -31 -14 -68 -21 -38 -7 -81 -19 -96 -26 -15 -8 -34
-11 -42 -8 -9 3 -19 1 -23 -6 -10 -15 -111 -18 -136 -3 -19 10 -19 11 5 21 14
5 19 10 12 10 -7 1 -10 6 -7 11 4 7 12 7 25 0 25 -13 51 -13 30 0 -12 8 -9 10
13 10 19 0 27 4 24 13 -3 9 -38 12 -130 12 -70 0 -127 3 -127 6 0 5 -25 4
-120 -6 -25 -3 -49 -6 -55 -6 -12 -1 -150 10 -182 14 -42 6 -34 15 32 32 49
14 69 15 74 7 5 -8 28 -9 78 -4 58 7 73 5 82 -8 7 -8 9 -9 6 -2 -5 9 8 12 47
12 86 1 190 7 236 15 34 6 42 5 42 -8 0 -16 48 -30 65 -19 5 4 41 6 78 4 51
-1 67 2 64 11 -2 6 -13 11 -25 9 -11 -2 -23 1 -26 7 -7 11 138 10 150 -1z
m-417 -109 c-8 -5 -25 -9 -38 -9 -24 0 -24 -1 -5 -14 28 -21 9 -32 -20 -12
-31 20 -36 20 -36 1 0 -8 -5 -15 -11 -15 -5 0 -7 5 -4 10 4 7 -3 9 -22 5 -56
-12 -103 -28 -103 -37 0 -4 -13 -8 -29 -8 -16 0 -31 -5 -33 -10 -2 -7 -11 -5
-23 4 -20 15 -20 15 0 16 11 0 38 7 60 16 38 14 35 15 -90 10 -124 -5 -205
-20 -205 -38 0 -4 -19 -8 -42 -8 -25 0 -57 -8 -75 -20 -21 -12 -35 -16 -39 -9
-3 6 -15 8 -27 5 -11 -3 -29 0 -39 5 -23 12 -39 2 -18 -11 22 -14 -12 -24 -56
-17 -20 3 -46 2 -60 -3 -27 -11 -57 -3 -51 14 2 6 12 11 23 11 10 0 22 5 27
10 4 6 10 5 16 -5 8 -11 14 -12 33 -3 13 6 29 13 36 15 8 2 6 9 -8 20 -17 15
-20 15 -20 3 0 -16 -36 -21 -42 -5 -1 5 -12 11 -23 13 -11 2 -27 7 -36 11 -9
4 -43 5 -75 3 -45 -3 -60 -8 -62 -21 -4 -19 -22 -22 -22 -3 0 9 -2 9 -8 0 -6
-10 -14 -9 -35 2 -24 12 -28 12 -37 -5 -8 -15 -17 -18 -43 -13 -40 7 -39 7
-31 27 3 9 12 16 20 16 8 0 14 4 14 9 0 6 18 9 40 8 22 -1 40 -4 40 -8 0 -4 9
-9 20 -12 23 -6 27 8 5 17 -8 3 -15 10 -15 16 0 8 6 8 20 0 11 -6 20 -7 20 -1
0 5 16 9 36 9 32 0 34 -1 17 -14 -16 -13 -15 -14 12 -7 17 4 43 6 58 6 17 -2
25 2 21 8 -4 7 3 9 17 7 13 -2 23 -9 22 -16 -4 -18 18 -15 33 6 12 16 14 16
29 -6 15 -20 18 -21 31 -7 20 19 40 19 48 0 7 -20 26 -19 26 2 0 13 3 14 12 5
7 -7 21 -12 32 -12 16 0 17 -3 8 -12 -16 -16 -15 -48 2 -48 17 0 30 30 13 30
-7 1 -5 6 5 14 11 8 38 11 75 9 35 -2 72 2 94 11 20 8 46 12 57 10 11 -3 31 0
43 8 13 7 42 14 64 15 288 20 382 20 354 2z m555 -74 c12 -13 12 -13 104 -15
63 -2 82 -15 37 -26 -14 -3 -25 -10 -25 -15 0 -15 -38 -10 -44 6 -6 17 -72 21
-96 5 -11 -7 -2 -10 33 -10 57 0 64 -19 7 -21 -62 -3 -65 -3 -72 -14 -4 -6
-13 -2 -21 9 -14 19 -16 19 -31 3 -19 -18 -86 -24 -86 -7 0 6 18 10 41 10 22
0 38 4 34 9 -5 9 -98 8 -134 -1 -23 -5 -22 16 0 30 31 20 158 51 202 50 22 -1
44 -7 51 -13z m-378 -49 c24 -2 46 -5 47 -7 1 -2 7 -13 13 -24 7 -12 20 -19
35 -18 15 1 17 0 7 -3 -10 -3 -18 -10 -18 -15 0 -6 -9 -7 -21 -4 -12 4 -24 3
-28 -3 -3 -5 -19 -12 -35 -13 -24 -3 -30 0 -31 18 -1 12 2 20 6 17 4 -2 10 0
13 5 7 11 -22 23 -36 15 -5 -3 -7 -16 -4 -28 5 -20 2 -21 -74 -20 -84 1 -114
-15 -32 -18 26 0 83 -2 127 -3 44 -2 82 -3 85 -4 16 -7 88 -6 102 1 10 5 20 4
23 -3 4 -6 19 -7 36 -4 22 5 29 3 29 -9 0 -9 8 -16 18 -16 10 0 23 -5 30 -12
8 -8 15 -8 26 1 12 10 17 7 28 -16 18 -37 53 -42 87 -10 23 21 36 24 110 26
80 2 83 1 78 -18 -5 -22 7 -29 18 -11 13 21 26 9 23 -21 -2 -19 -11 -36 -23
-43 -27 -15 -44 -38 -45 -58 0 -21 -26 -24 -33 -5 -3 6 -6 8 -6 2 0 -5 3 -16
7 -23 6 -9 31 -2 103 31 52 24 102 47 112 50 25 9 11 -12 -16 -24 -12 -5 -29
-13 -37 -18 -8 -5 -37 -19 -65 -32 -59 -26 -65 -34 -58 -70 6 -33 -9 -44 -39
-28 -14 8 -18 14 -10 17 6 2 12 8 12 14 0 5 -9 6 -20 3 -23 -7 -28 13 -5 21 8
4 15 11 15 16 0 6 -7 7 -16 4 -12 -5 -15 -2 -10 9 3 9 2 14 -3 10 -5 -3 -19 7
-31 22 -19 24 -20 29 -6 39 19 13 10 24 -20 24 -12 0 -24 4 -26 10 -1 5 -19
11 -38 14 -19 2 -59 7 -87 11 -37 5 -53 4 -53 -4 0 -12 10 -14 50 -12 14 1 34
-5 45 -14 19 -15 12 -16 -90 -10 -145 9 -142 9 -201 -2 -29 -5 -61 -6 -74 -1
-12 5 -28 5 -34 0 -16 -12 -95 -7 -108 6 -9 9 -6 12 13 12 21 0 63 18 49 21
-15 3 -225 9 -355 10 -88 0 -155 5 -163 11 -12 11 -111 5 -145 -7 -12 -5 -17
-2 -17 9 0 12 -10 16 -40 16 -44 0 -58 -25 -17 -33 18 -4 17 -5 -6 -6 -22 -1
-30 4 -34 20 -6 20 -23 22 -72 8 -7 -2 -15 1 -18 8 -3 8 22 14 79 19 46 4 75
10 66 12 -55 12 27 44 90 35 24 -3 42 -1 46 6 4 6 2 11 -3 11 -6 0 -11 4 -11
9 0 5 33 14 73 21 39 6 99 16 132 23 33 6 64 10 69 9 4 -2 23 2 41 8 35 12
279 30 308 23 9 -3 38 -6 63 -7z m-2830 -67 c16 -6 61 -12 99 -14 39 -1 106
-8 150 -15 44 -7 91 -13 105 -15 54 -5 55 -6 33 -15 -14 -6 -62 -3 -130 7 -71
10 -176 15 -305 14 -120 0 -198 4 -198 9 0 6 14 10 30 10 17 0 30 5 30 10 0 6
-14 10 -31 10 -16 0 -28 4 -25 9 8 12 206 5 242 -10z m1077 -36 c-26 -10 -12
-24 17 -18 19 4 30 3 30 -4 0 -6 -4 -11 -10 -11 -5 0 -10 -5 -10 -11 0 -7 12
-10 30 -7 29 4 40 -6 40 -37 0 -15 -41 -8 -52 8 -3 6 -21 12 -38 14 -28 3 -31
1 -20 -12 7 -8 19 -15 26 -15 8 0 14 -4 14 -9 0 -16 -114 1 -127 18 -18 23
-16 30 7 24 11 -3 20 0 20 6 0 20 -42 12 -47 -9 -3 -10 -14 -22 -25 -26 -24
-7 -38 4 -19 15 7 5 10 14 7 20 -4 6 -11 9 -15 7 -4 -3 -21 -1 -37 4 l-29 8
33 1 c18 1 35 7 38 14 3 9 22 13 64 11 33 -2 62 1 65 7 4 5 16 9 28 8 12 0 16
-3 10 -6z m-467 -408 c24 -12 26 -15 9 -15 -12 0 -26 -5 -32 -11 -6 -6 -42
-12 -79 -12 -41 -1 -67 -6 -65 -12 2 -6 6 -16 8 -22 3 -7 12 -13 20 -13 8 0
11 5 7 12 -4 7 -3 8 4 4 13 -8 16 -39 5 -49 -3 -4 -12 -2 -20 4 -8 7 -13 8
-13 1 0 -13 -25 -23 -75 -29 -21 -2 -44 -7 -50 -11 -14 -9 -84 -9 -79 0 2 4
-8 9 -23 11 -16 2 0 5 33 6 71 1 184 40 184 63 0 5 -9 4 -21 -2 -27 -15 -73
-4 -65 15 3 10 -1 15 -13 15 -10 0 -21 -9 -24 -20 -8 -30 -37 -26 -35 5 1 13
4 22 6 20 3 -2 26 7 53 21 41 20 52 22 68 12 15 -9 25 -9 43 0 48 24 116 27
154 7z m2014 -360 c0 -24 -52 -75 -58 -57 -4 14 -32 4 -32 -12 0 -6 -10 -20
-23 -32 -29 -26 -103 -71 -94 -57 4 7 2 15 -4 19 -13 8 -29 -14 -23 -30 2 -6
-7 -16 -21 -22 -18 -9 -25 -9 -28 0 -3 8 -9 7 -20 -3 -10 -7 -17 -12 -18 -10
-7 45 -5 67 7 62 8 -3 14 0 14 6 0 23 47 64 65 57 12 -4 26 3 43 19 14 14 31
24 39 21 7 -3 13 1 13 9 0 18 17 20 22 3 6 -17 28 0 28 22 0 18 12 22 78 26 6
0 12 -9 12 -21z"/>
<path d="M5842 3477 l3 -92 50 0 50 0 0 90 0 89 -53 2 -53 2 3 -91z"/>
<path d="M5972 3433 l3 -88 43 -2 42 -3 0 90 0 90 -45 0 -46 0 3 -87z"/>
<path d="M7474 3405 c-3 -8 1 -156 5 -175 2 -9 71 -9 71 1 0 5 10 8 23 6 21
-2 22 1 22 83 l0 85 -59 5 c-35 3 -60 1 -62 -5z"/>
<path d="M4200 3314 c0 -86 12 -127 26 -90 3 9 11 16 16 16 6 0 16 7 23 17 15
20 39 7 32 -18 -3 -12 0 -19 9 -19 11 0 14 20 14 95 l0 95 -60 -1 -60 -2 0
-93z"/>
<path d="M6138 3364 c-3 -36 -5 -39 -30 -37 -16 1 -28 -2 -28 -8 0 -5 7 -9 15
-9 8 0 15 -7 15 -16 0 -10 -7 -14 -22 -12 -15 2 -23 10 -23 23 0 17 -7 20 -45
21 -30 1 -49 -4 -57 -15 -11 -14 -12 -11 -13 17 l0 33 -57 -3 c-62 -3 -81 -22
-39 -38 14 -5 26 -14 26 -19 0 -5 8 -8 18 -7 12 1 16 -5 15 -21 -1 -11 4 -27
12 -33 13 -10 19 -9 34 4 13 12 21 14 26 6 3 -5 11 -8 16 -5 5 4 14 3 21 -1
16 -10 69 -11 75 -2 7 12 103 9 103 -2 0 -15 101 -1 119 15 11 11 11 18 0 45
-11 24 -19 30 -37 27 -12 -2 -25 0 -28 5 -4 5 -17 7 -29 4 -19 -5 -24 -2 -27
16 -2 13 -11 24 -23 27 -11 2 -23 8 -27 14 -4 6 -8 -7 -10 -29z"/>
<path d="M6380 3378 c0 -6 -3 -8 -7 -5 -7 8 -53 -31 -53 -45 0 -5 15 -8 32 -6
33 3 33 3 30 -39 -2 -26 1 -43 7 -43 6 0 11 6 11 13 0 9 3 8 9 -2 6 -10 23
-12 60 -8 28 3 53 2 56 -3 3 -4 13 -6 23 -4 14 4 16 15 14 64 -4 56 -13 73
-27 50 -11 -18 -41 -11 -65 15 -25 26 -90 36 -90 13z"/>
<path d="M10786 3155 c5 -12 -4 -15 -52 -15 -33 0 -69 -3 -81 -6 -45 -12 -10
-24 70 -25 73 0 190 -15 145 -18 -24 -1 -23 -43 1 -58 20 -13 34 -72 20 -88
-5 -7 -1 -11 12 -11 15 0 19 7 19 32 0 18 -4 34 -8 36 -5 2 -12 21 -15 43 l-6
40 117 3 c64 2 121 8 127 13 15 15 47 10 61 -8 13 -17 14 -16 20 5 5 17 12 22
25 19 12 -3 19 0 19 8 0 20 -58 25 -258 22 -142 -3 -187 0 -202 10 -17 12 -19
12 -14 -2z"/>
<path d="M10127 3139 c-7 -4 -41 -6 -77 -5 -36 1 -83 -1 -105 -5 l-40 -6 42
-2 c29 -1 45 -7 52 -18 9 -17 10 -17 16 0 6 15 16 16 71 11 42 -4 68 -3 77 5
8 6 16 9 18 6 3 -2 54 -7 114 -11 61 -3 113 -8 118 -11 4 -2 7 -22 7 -44 l0
-40 48 7 c59 8 67 14 19 14 -40 0 -51 11 -42 40 4 13 17 20 40 22 24 2 32 7
27 15 -11 18 -357 37 -385 22z"/>
<path d="M4950 2151 c-33 -26 -126 -58 -138 -47 -3 3 -11 1 -18 -4 -6 -6 -29
-12 -50 -13 -22 -1 -39 -8 -42 -16 -4 -11 3 -13 32 -8 27 4 39 2 43 -9 3 -9
21 -14 54 -14 27 0 49 -4 49 -10 0 -5 9 -10 20 -10 11 0 20 5 20 10 0 6 10 10
22 10 12 0 30 7 40 17 10 9 30 18 45 19 14 2 29 8 33 13 3 6 21 12 40 14 18 1
35 7 37 14 6 18 -129 3 -144 -16 -7 -9 -13 -11 -13 -5 0 20 25 44 55 53 l30 9
-27 1 c-16 1 -28 6 -28 11 0 18 -24 10 -60 -19z"/>
<path d="M9803 1702 c-44 -5 -42 -18 5 -27 20 -3 66 -13 102 -20 36 -8 115
-22 175 -31 61 -9 130 -19 155 -24 25 -4 77 -13 115 -19 39 -6 122 -25 185
-41 182 -48 188 -49 320 -45 79 2 117 0 103 -6 -27 -10 -30 -26 -5 -33 9 -3
67 -13 127 -22 200 -29 186 -28 179 -10 -4 12 0 16 15 16 15 0 20 -6 18 -22
-2 -19 6 -23 73 -35 41 -8 102 -16 134 -19 33 -3 65 -9 72 -15 8 -7 14 -7 19
1 3 6 10 8 15 5 5 -3 11 -1 15 5 8 13 25 13 25 0 0 -5 -7 -10 -15 -10 -8 0
-15 -4 -15 -9 0 -4 28 -12 63 -17 71 -9 60 -7 194 -28 57 -9 108 -16 114 -16
12 0 9 273 -4 286 -4 4 -13 1 -20 -8 -15 -19 -50 -28 -68 -17 -7 4 -18 4 -24
0 -13 -11 -225 -8 -243 3 -20 12 -106 15 -119 4 -9 -7 -17 -5 -28 6 -11 10
-25 13 -45 9 -17 -3 -30 -1 -30 4 0 6 49 11 113 13 61 1 128 5 147 7 19 3 80
8 134 10 86 4 98 2 88 -10 -10 -12 -9 -16 7 -20 19 -5 41 9 41 26 0 5 -7 7
-15 3 -9 -3 -15 0 -15 10 0 12 6 15 26 10 38 -10 64 2 64 29 0 23 -2 23 -90
22 -68 -2 -89 -5 -85 -15 3 -9 -8 -12 -38 -11 -23 1 -53 -1 -67 -5 -19 -6 -21
-5 -10 3 8 6 11 11 6 11 -5 0 -17 -6 -25 -14 -20 -17 -99 -28 -107 -15 -3 6
-14 7 -24 4 -12 -4 -20 0 -23 12 -4 17 -5 17 -6 0 -1 -17 -15 -18 -243 -13
-134 3 -252 5 -262 6 -11 1 -23 -5 -28 -12 -5 -9 -11 -10 -15 -3 -10 14 -68
20 -170 19 -73 -1 -83 2 -89 18 -5 18 -7 18 -31 3 -16 -11 -34 -14 -55 -10
-20 5 -33 3 -38 -5 -4 -7 -15 -10 -25 -7 -10 4 -13 12 -9 19 6 10 4 10 -8 0
-14 -11 -17 -10 -22 6 -9 28 -82 42 -239 46 -76 2 -136 2 -133 -1 2 -3 22 -11
43 -18 l38 -14 -40 0 c-59 -1 -77 0 -110 3 -16 2 -44 4 -62 4 -17 1 -38 8 -45
15 -13 12 -114 17 -185 9z"/>
<path d="M6454 1579 c-16 -17 -16 -25 -6 -62 10 -37 9 -44 -7 -58 -10 -8 -21
-24 -23 -35 -2 -11 -11 -18 -21 -16 -21 4 -21 -8 -2 -81 20 -77 20 -79 -15
-149 -16 -33 -30 -71 -30 -84 0 -20 -5 -24 -27 -24 -16 0 -35 4 -43 10 -9 5
-19 5 -25 0 -7 -5 -36 -12 -66 -14 -41 -3 -55 -8 -57 -21 -3 -13 1 -15 17 -10
16 5 21 2 21 -12 0 -13 8 -18 30 -18 21 0 30 5 30 16 0 16 43 35 65 30 5 -1
22 -3 37 -3 37 -1 56 -25 67 -83 9 -47 8 -55 -5 -92 -9 -24 -15 -174 -8 -195
6 -21 30 -24 37 -5 3 6 6 0 6 -15 1 -15 6 -30 11 -33 6 -3 10 -15 10 -25 0
-15 -9 -19 -42 -22 -31 -2 -44 -8 -46 -21 -5 -23 24 -33 60 -19 15 5 26 7 23
2 -6 -9 35 -21 47 -14 4 3 8 12 8 20 0 17 17 19 23 2 5 -16 37 7 37 27 0 22
-29 40 -42 27 -14 -14 -38 -16 -38 -3 0 17 30 40 45 35 10 -4 15 0 15 11 0 9
5 13 10 10 7 -4 10 32 9 105 -1 61 -6 113 -10 116 -5 3 -9 32 -9 65 0 49 5 66
26 94 21 28 24 41 19 67 -4 18 -16 40 -26 48 -20 16 -26 68 -14 130 4 19 8 57
9 85 1 45 -2 51 -26 63 -32 15 -43 44 -29 71 16 29 13 50 -8 77 -18 23 -18 23
-37 3z"/>
<path d="M7502 1442 l-33 -3 3 -82 3 -82 53 0 c30 0 58 5 63 11 10 12 6 140
-5 151 -3 4 -12 1 -18 -5 -8 -8 -14 -8 -22 1 -6 7 -26 11 -44 9z"/>
<path d="M4200 1366 l0 -73 52 -6 c29 -4 56 -3 60 1 9 10 14 139 5 148 -4 4
-14 -1 -22 -12 -12 -15 -16 -16 -24 -5 -5 7 -13 11 -19 7 -6 -3 -13 -2 -17 4
-3 5 -13 10 -21 10 -11 0 -14 -16 -14 -74z"/>
<path d="M5944 1419 c-12 -4 -25 -13 -29 -19 -6 -9 -10 -9 -16 1 -10 16 -33
-37 -25 -58 8 -20 65 -12 82 11 12 17 14 7 16 -80 l3 -99 30 -1 c57 -2 61 5
55 105 -3 52 -1 92 4 94 14 5 -1 36 -20 44 -9 3 -20 0 -25 -8 -6 -10 -11 -11
-16 -3 -12 17 -36 22 -59 13z"/>
<path d="M10855 1360 c3 -5 21 -10 38 -10 21 0 36 -7 45 -20 10 -16 10 -20 -2
-20 -8 0 -17 6 -19 13 -4 9 -8 9 -14 1 -4 -6 -21 -10 -37 -8 -56 6 -86 -29
-46 -53 21 -14 80 -7 92 11 5 8 8 7 8 -1 0 -7 7 -13 15 -13 8 0 14 6 13 13 -2
7 7 12 20 11 18 -1 22 4 19 17 -6 21 32 34 48 17 7 -8 5 -9 -7 -5 -19 7 -26
-17 -8 -28 19 -12 10 -25 -14 -19 -19 4 -24 1 -28 -20 -4 -21 -1 -26 15 -26
16 0 17 3 7 15 -11 13 -8 15 16 15 28 0 73 -20 47 -20 -7 0 -13 -4 -13 -10 0
-6 38 -10 95 -10 52 0 95 3 95 8 0 15 598 -4 716 -23 22 -4 33 -1 37 9 4 11
-12 14 -85 15 -50 1 -95 4 -98 6 -19 12 -234 24 -251 14 -15 -7 -17 -6 -13 6
5 12 -2 15 -32 16 -39 1 -97 15 -79 19 17 4 -47 18 -85 18 l-35 1 23 -18 c12
-11 22 -22 22 -26 0 -4 -29 -5 -65 -1 -54 5 -66 4 -71 -9 -7 -17 -39 -20 -49
-5 -3 6 4 10 16 10 12 0 19 3 15 7 -8 8 -75 4 -90 -5 -5 -3 -1 -9 10 -13 16
-6 15 -8 -8 -8 -17 -1 -28 4 -28 12 0 8 -12 19 -26 26 -15 6 -23 15 -20 19 16
15 84 29 100 20 9 -5 21 -6 27 -2 6 3 28 -2 49 -11 37 -17 84 -14 64 4 -8 7
-155 33 -210 36 -11 1 -25 5 -32 9 -6 4 -28 6 -49 6 -21 -1 -56 3 -78 9 -51
13 -68 14 -60 1z"/>
<path d="M5730 1231 c0 -138 7 -172 43 -202 39 -32 45 -25 43 54 -1 69 -2 72
-26 73 -52 2 -53 3 -40 19 8 9 21 13 36 9 23 -6 24 -4 26 42 0 27 2 62 2 77 1
22 -5 32 -26 43 -56 29 -58 26 -58 -115z"/>
<path d="M2697 1314 c-6 -6 -29 -10 -100 -17 -11 -1 -20 -12 -24 -29 -7 -33
-10 -34 -32 -7 l-16 20 -25 -27 -25 -26 32 6 c26 6 34 4 43 -15 9 -17 9 -23 0
-29 -8 -5 -9 -10 -2 -14 6 -4 15 0 19 9 5 8 23 19 41 24 20 6 30 6 27 0 -4 -5
-2 -9 4 -9 6 0 8 -7 5 -15 -5 -11 1 -15 19 -15 13 0 30 7 37 15 16 19 31 20
24 1 -4 -11 0 -13 15 -9 27 7 37 23 15 23 -10 0 -15 3 -11 6 11 11 145 15 152
4 7 -11 -5 -13 -44 -10 -14 1 -21 -2 -17 -9 4 -6 29 -11 57 -11 61 0 64 -15 4
-24 -25 -4 -45 -12 -45 -18 0 -5 7 -8 15 -4 8 3 21 -2 30 -10 9 -9 28 -14 47
-12 31 3 33 6 36 46 2 31 7 42 19 42 9 0 13 -3 10 -7 -6 -5 64 -43 79 -43 2 0
4 16 4 36 0 31 4 37 30 47 17 6 30 18 30 26 0 7 8 20 18 27 16 13 16 13 0 14
-10 0 -18 -4 -18 -9 0 -5 -7 -11 -15 -15 -8 -3 -14 0 -12 7 2 13 -33 16 -227
18 -66 0 -113 -4 -119 -10 -6 -6 -17 -11 -25 -11 -12 0 -12 3 -1 17 12 15 12
16 -3 10 -10 -3 -20 -2 -23 3 -7 11 -19 13 -28 4z"/>
<path d="M5842 1223 l3 -98 36 3 c21 2 40 -1 44 -7 4 -7 -5 -12 -22 -13 -15 0
-35 -1 -43 -2 -12 -1 -15 -15 -15 -61 0 -55 2 -60 25 -65 14 -4 36 -4 50 0
l25 6 2 167 3 167 -55 0 -56 0 3 -97z"/>
<path d="M2117 1100 c-21 -4 -43 -12 -49 -18 -6 -6 -17 -8 -25 -5 -14 6 -100
-14 -118 -27 -5 -4 -39 -11 -75 -14 -35 -4 -72 -12 -81 -16 -9 -5 -32 -10 -50
-11 -19 -1 -49 -6 -66 -12 -25 -8 -36 -8 -45 1 -14 14 -68 16 -68 3 0 -6 -10
-9 -22 -9 -78 5 -241 -4 -223 -12 11 -5 38 -9 60 -10 34 -1 37 -3 18 -10 -39
-16 -26 -21 55 -19 42 0 85 -2 94 -6 9 -4 26 -2 37 5 13 6 21 7 21 1 0 -18 41
-23 58 -8 29 26 86 31 117 11 27 -18 27 -18 21 2 -5 16 0 23 20 33 22 10 29 9
35 -1 12 -18 11 -28 -1 -28 -5 0 -10 -4 -10 -10 0 -5 5 -10 12 -10 6 0 20 -8
30 -17 16 -14 21 -15 28 -4 7 12 14 11 43 -2 25 -12 71 -18 159 -21 156 -5
195 -12 201 -37 3 -11 14 -19 27 -19 18 0 20 3 11 14 -9 10 -7 17 5 27 14 11
18 11 29 -4 18 -24 23 -21 27 15 3 30 4 31 20 14 20 -20 41 -12 36 12 -2 10 3
23 12 30 12 10 4 12 -50 7 -128 -10 -266 -13 -343 -6 -42 4 -84 3 -92 -1 -21
-12 -125 24 -125 43 0 15 37 40 70 46 8 1 40 8 70 14 30 6 66 12 80 14 14 2
44 6 68 10 31 5 42 3 42 -7 1 -7 10 -2 21 12 14 17 17 26 9 28 -7 3 -16 -2
-21 -9 -7 -11 -9 -10 -9 4 0 18 -4 19 -63 7z"/>
<path d="M6853 1099 c-7 -7 -13 -21 -13 -31 0 -11 -12 -29 -26 -41 l-26 -23
19 -44 c28 -63 37 -114 19 -107 -9 4 -12 0 -9 -13 3 -12 -6 -26 -27 -41 -24
-19 -30 -29 -25 -47 4 -17 -2 -34 -20 -57 -25 -34 -35 -98 -16 -109 5 -3 7
-23 4 -45 -3 -23 -1 -41 6 -45 20 -13 11 -58 -30 -150 -48 -105 -54 -168 -21
-232 11 -22 28 -56 38 -76 l19 -37 102 -1 102 0 27 45 c28 48 44 57 44 25 0
-11 5 -20 11 -20 8 0 10 35 6 118 -4 64 -6 118 -7 120 0 1 -6 2 -14 2 -8 0
-18 14 -21 32 -4 18 -14 42 -21 53 -16 23 -19 101 -4 110 6 3 10 18 10 32 0
20 -4 24 -20 20 -27 -7 -25 0 10 29 25 21 28 30 23 57 -3 18 -17 46 -30 63
-18 24 -22 38 -17 63 5 25 3 31 -11 31 -9 0 -22 13 -28 30 -6 17 -15 30 -20
30 -10 0 -2 48 21 112 16 48 16 48 -10 75 -15 16 -28 41 -30 56 -2 23 -5 26
-15 16z"/>
<path d="M7792 1102 c-18 -3 -23 -9 -21 -30 5 -62 -2 -152 -11 -152 -5 0 -10
15 -10 34 0 19 -6 37 -12 39 -10 4 -9 8 2 16 12 8 12 13 2 23 -6 6 -12 22 -12
34 0 39 -17 35 -28 -6 -8 -32 -7 -42 5 -52 16 -13 13 -15 -72 -38 -26 -7 -23
-8 23 -9 48 -1 52 -3 52 -25 0 -14 -4 -28 -10 -31 -16 -10 -12 -26 6 -23 10 2
19 -3 22 -11 3 -9 0 -11 -7 -7 -7 4 -23 1 -36 -8 -30 -20 -27 -20 -54 3 -16
14 -20 26 -15 45 6 24 4 26 -24 26 -17 0 -34 -4 -37 -10 -3 -5 3 -10 14 -10
14 0 21 -6 21 -19 0 -11 5 -23 10 -26 14 -9 12 -25 -3 -25 -8 0 -20 -11 -27
-25 -10 -19 -19 -24 -34 -19 -12 4 -36 7 -55 7 -50 0 -82 34 -75 79 l6 35 -46
5 c-48 6 -71 17 -49 25 7 2 9 11 6 19 -3 7 2 17 11 20 12 5 13 10 5 26 -7 14
-7 23 1 33 6 7 7 16 2 19 -5 3 -19 -9 -32 -26 -18 -24 -21 -39 -17 -74 6 -54
34 -101 50 -85 19 19 29 12 25 -18 -4 -40 14 -57 106 -102 71 -36 81 -38 96
-24 11 10 27 13 46 10 23 -5 35 0 59 23 17 16 43 32 58 36 26 6 38 26 17 26
-7 0 -7 6 0 20 6 11 17 20 25 20 8 0 12 6 9 14 -3 7 2 20 10 29 24 24 39 69
26 77 -7 5 -6 10 3 18 15 13 15 79 0 91 -4 4 -18 5 -31 3z"/>
<path d="M4469 1093 c-28 -4 -39 -25 -39 -75 0 -41 -15 -34 -40 17 -24 50 -46
58 -56 20 -5 -21 -9 -23 -26 -14 -16 8 -23 8 -29 -2 -13 -21 -11 -28 11 -41
11 -7 20 -20 20 -28 0 -26 20 -39 45 -30 17 6 27 5 35 -6 7 -7 18 -14 25 -14
8 0 11 -8 8 -19 -3 -13 -11 -18 -21 -14 -12 3 -13 2 -5 -4 7 -5 10 -18 7 -29
-5 -19 -16 -22 -87 -27 -45 -4 -108 -9 -140 -12 -49 -5 -65 -2 -93 16 -19 12
-38 19 -41 15 -8 -8 17 -36 32 -36 7 0 18 -6 24 -14 8 -9 35 -13 92 -12 44 1
83 -2 86 -6 2 -5 -23 -8 -57 -8 -70 0 -76 -13 -18 -44 35 -19 35 -19 65 2 16
11 41 24 56 27 15 4 27 13 27 21 0 7 15 16 34 19 26 5 43 20 75 62 43 58 55
96 55 182 1 57 -2 60 -45 54z"/>
<path d="M6248 823 c-1 -16 -2 -36 -3 -45 0 -9 -4 -20 -8 -24 -8 -8 1 -54 14
-68 4 -5 5 -15 2 -22 -3 -9 2 -14 13 -15 11 -1 31 -3 46 -5 35 -4 39 3 42 77
2 59 1 62 -28 80 -17 10 -35 21 -41 23 -6 3 -3 9 5 15 12 9 10 11 -12 11 -23
0 -28 -5 -30 -27z"/>
<path d="M888 832 c-60 -2 -78 -6 -78 -17 0 -10 -11 -15 -35 -15 -19 0 -35 -4
-35 -10 0 -14 53 -13 67 1 7 7 55 14 108 16 90 4 98 3 112 -16 11 -17 21 -20
46 -15 18 3 55 7 82 9 28 1 67 6 88 10 30 6 41 4 50 -9 11 -16 15 -16 42 -2
17 9 37 13 47 10 9 -2 19 0 23 6 3 5 -2 11 -12 11 -10 1 -31 3 -48 5 -83 10
-154 6 -170 -10 -21 -21 -27 -20 -23 2 3 15 -9 18 -92 22 -52 3 -130 4 -172 2z"/>
<path d="M27 743 c-25 -4 -27 -8 -27 -50 0 -36 3 -44 15 -39 10 4 15 -1 15
-14 0 -20 11 -26 24 -13 3 4 22 12 41 19 32 11 34 10 25 -6 -12 -22 -57 -34
-94 -24 -23 5 -26 3 -26 -20 0 -17 5 -26 16 -26 8 0 13 4 10 9 -9 14 20 21 80
21 41 0 54 -4 54 -15 0 -8 5 -15 10 -15 6 0 10 7 10 16 0 12 7 14 31 9 50 -11
25 13 -27 26 -25 7 -43 17 -41 23 6 18 66 26 197 27 68 1 130 4 138 6 29 12
-13 23 -85 23 -39 0 -75 5 -78 10 -4 6 12 10 39 10 25 0 46 4 46 9 0 5 -68 9
-152 10 -83 1 -161 3 -172 5 -12 2 -33 1 -49 -1z"/>
<path d="M720 655 c-7 -8 -19 -15 -27 -15 -9 0 -13 -6 -10 -15 4 -10 -5 -17
-31 -25 -46 -12 -62 -13 -62 0 0 5 -7 7 -15 4 -8 -4 -13 -10 -10 -14 7 -12
-16 -25 -24 -14 -9 13 -41 14 -41 1 0 -5 8 -16 18 -23 15 -12 15 -13 1 -14 -9
0 -20 7 -23 16 -6 16 -8 16 -24 0 -10 -9 -33 -16 -51 -16 -23 0 -42 -9 -63
-30 -16 -16 -25 -30 -19 -30 22 0 91 25 91 33 0 4 11 5 25 1 15 -4 39 1 61 11
26 12 39 14 49 5 9 -8 16 -7 27 3 25 26 76 47 113 47 38 0 44 10 20 34 -20 19
-19 23 5 29 11 3 20 10 20 16 0 16 -15 14 -30 -4z"/>
<path d="M5691 570 c-16 -9 -6 -30 14 -30 20 0 28 -34 20 -96 -3 -30 -2 -54 2
-54 4 0 9 -43 9 -95 1 -52 -2 -95 -6 -95 -12 0 -21 -30 -13 -43 4 -7 9 -4 13
8 3 10 16 20 28 21 26 4 38 -11 16 -20 -13 -5 -14 -9 -4 -21 7 -8 9 -15 4 -15
-12 0 19 -20 31 -20 7 0 10 67 10 188 0 103 2 207 5 232 l5 45 -61 2 c-33 1
-66 -2 -73 -7z"/>
<path d="M5888 572 c-44 -4 -46 -8 -50 -122 l-2 -85 54 0 55 0 3 89 c1 50 5
92 7 95 11 10 15 -9 16 -78 1 -48 6 -74 14 -77 10 -4 10 -12 -2 -35 -21 -43
-11 -59 34 -56 34 2 38 5 41 31 4 35 -12 56 -30 38 -16 -16 -29 -15 -22 2 3 8
15 16 27 18 16 2 23 11 25 33 9 113 14 134 28 128 8 -3 14 -11 14 -19 0 -21
28 -17 40 7 7 11 10 22 8 24 -5 5 -217 10 -260 7z"/>
<path d="M3322 478 c-40 -9 -42 -11 -25 -23 14 -11 15 -14 3 -15 -17 0 -42
-34 -33 -44 4 -3 15 -6 26 -6 11 0 29 -8 39 -17 14 -12 21 -14 26 -6 10 15
137 29 145 16 10 -16 -9 -68 -24 -65 -7 2 -53 5 -101 8 -76 4 -88 2 -88 -12 0
-10 -6 -14 -14 -11 -21 8 -36 -13 -36 -50 0 -27 5 -34 28 -40 l27 -7 -24 -6
c-27 -6 -28 -17 -19 -140 l4 -55 167 -3 167 -2 2 42 c4 102 3 205 -2 233 -5
26 -10 30 -34 27 -16 -2 -32 2 -37 10 -12 18 -11 28 2 25 6 -1 14 4 16 11 3 8
-1 10 -14 5 -11 -4 -8 2 9 16 15 12 33 20 40 19 8 -2 12 6 10 21 -3 33 -6 35
-33 21 -17 -9 -35 -9 -80 0 -57 12 -83 33 -36 30 51 -5 97 1 97 11 0 7 -21 10
-57 9 -32 -1 -60 -2 -63 0 -18 7 -51 6 -88 -2z"/>
<path d="M4460 479 c-25 -4 -55 -5 -67 -2 -20 4 -21 2 -16 -39 6 -58 11 -70
24 -63 5 4 19 -1 29 -10 15 -13 17 -22 10 -36 -12 -21 6 -37 22 -21 12 12 41
4 33 -9 -3 -5 -28 -11 -56 -15 -61 -8 -70 -20 -24 -28 46 -9 44 -22 -4 -30
-39 -6 -39 -6 -31 -42 5 -20 7 -42 6 -48 -2 -6 -1 -8 1 -3 3 4 9 7 14 7 6 0 8
-4 4 -9 -3 -5 -1 -12 4 -16 5 -3 14 3 20 12 6 10 10 14 11 8 0 -5 -4 -16 -9
-24 -11 -18 -81 -6 -81 13 0 8 -10 16 -22 19 -18 5 -19 8 -8 21 10 13 10 16
-3 16 -21 0 -46 -32 -29 -37 16 -6 15 -21 -2 -39 -21 -21 -40 -17 -70 13 -19
19 -30 23 -37 16 -15 -15 -82 -4 -93 14 -12 21 -69 43 -94 36 -24 -6 -41 -45
-23 -51 8 -3 8 -9 0 -23 -5 -11 -7 -30 -3 -42 8 -22 9 -29 12 -54 2 -17 59
-17 65 0 4 9 6 9 6 0 1 -10 55 -13 236 -13 l234 0 -2 239 c-1 132 -4 241 -7
243 -3 2 -25 1 -50 -3z"/>
<path d="M7467 463 c-6 -16 -16 -31 -21 -35 -6 -4 -5 -12 2 -20 6 -8 12 -37
13 -66 1 -28 5 -55 8 -59 3 -5 32 -8 64 -8 l57 0 0 67 c0 37 5 70 10 73 6 4
10 -11 10 -39 0 -52 6 -59 39 -42 l24 13 -27 7 c-29 7 -31 33 -2 28 9 -2 16 4
16 13 0 17 9 19 30 5 11 -7 12 -12 3 -21 -16 -16 -5 -39 19 -39 11 0 29 -5 41
-12 29 -15 75 -20 82 -8 3 6 8 41 10 80 4 68 3 70 -19 70 -45 0 -86 -13 -86
-26 0 -8 -7 -14 -15 -14 -8 0 -15 -6 -15 -12 0 -9 -3 -9 -8 -2 -4 6 -16 14
-27 19 -18 8 -18 9 8 13 30 4 36 17 11 26 -33 12 -54 6 -54 -15 0 -16 -3 -19
-12 -11 -7 6 -17 11 -23 12 -5 1 -25 8 -44 16 -53 22 -80 18 -94 -13z"/>
<path d="M4206 472 c-3 -5 -6 -48 -7 -96 -3 -75 0 -89 14 -98 10 -5 15 -13 12
-19 -6 -8 8 -13 28 -10 5 1 24 -3 42 -8 39 -11 64 6 42 28 -8 8 -11 44 -10
112 l2 99 -59 0 c-32 0 -61 -4 -64 -8z"/>
<path d="M1 196 c0 -126 2 -145 17 -152 9 -4 21 -6 25 -5 4 0 10 -5 13 -12 3
-9 15 -12 31 -9 18 3 24 1 19 -7 -9 -14 66 -15 80 -1 8 8 19 8 38 0 15 -5 37
-10 49 -9 16 1 14 3 -10 10 -21 6 -30 14 -27 23 4 10 -4 14 -30 14 -20 0 -36
-4 -36 -9 0 -12 -32 -11 -66 1 -51 20 -11 34 104 38 59 1 146 4 194 6 49 2 90
0 93 -4 3 -5 18 -2 33 6 32 16 42 18 42 5 0 -5 -13 -12 -30 -16 -30 -7 -43
-35 -15 -35 9 0 15 -9 15 -22 0 -26 13 -16 17 14 4 27 14 37 20 21 9 -26 33
-13 33 18 0 17 4 28 10 24 5 -3 10 -1 10 4 0 14 -13 14 -27 0 -7 -7 -15 -2
-27 16 -9 14 -29 31 -44 37 -26 11 -25 11 25 20 33 6 65 6 90 -1 35 -10 40
-14 40 -41 0 -32 13 -53 20 -32 7 18 21 15 26 -5 3 -13 6 -10 12 11 6 23 4 32
-11 43 -10 8 -19 22 -19 31 0 12 -8 17 -28 17 -15 -1 -26 4 -24 10 5 14 65 6
94 -12 13 -9 22 -22 19 -29 -7 -19 24 -17 49 1 10 9 19 27 20 42 0 21 8 31 34
44 42 20 28 31 -31 24 -24 -3 -49 -1 -56 4 -21 13 -61 1 -73 -22 -10 -17 -9
-19 5 -14 9 4 26 3 38 -2 32 -12 -3 -22 -40 -12 -15 5 -89 9 -163 11 -74 1
-144 3 -156 4 -33 3 -41 16 -15 23 33 8 27 23 -10 24 -18 1 -37 1 -41 0 -4 -1
-17 4 -29 10 -15 8 -26 8 -45 -2 -16 -9 -27 -10 -31 -3 -14 21 -49 22 -66 3
-19 -23 -52 -25 -60 -3 -4 10 -12 14 -23 10 -10 -4 -14 -4 -10 0 13 13 -15 34
-44 34 l-29 0 1 -144z"/>
<path d="M6370 295 c0 -16 -6 -25 -15 -25 -8 0 -15 7 -15 15 0 17 -25 20 -35
5 -3 -6 -17 -7 -31 -4 -13 3 -31 4 -39 0 -21 -8 2 -56 27 -56 10 0 21 -7 24
-15 10 -25 34 -17 34 10 0 14 5 25 10 25 6 0 9 -12 7 -27 -4 -28 7 -53 24 -53
5 0 6 14 3 30 -6 28 -4 30 22 30 26 -1 27 -2 12 -14 -22 -16 -23 -33 -3 -52
18 -18 20 -54 4 -54 -7 0 -17 7 -24 16 -9 13 -16 14 -32 6 -19 -11 -20 -14 -8
-49 7 -21 20 -39 29 -41 9 -2 16 -12 16 -23 0 -13 7 -19 23 -19 18 0 19 2 7
10 -26 16 2 44 56 55 71 15 88 27 80 59 -4 17 -13 26 -26 26 -23 0 -24 4 -9
28 7 11 8 29 2 52 -7 27 -15 36 -34 38 -75 8 -89 13 -89 32 0 11 -4 20 -10 20
-5 0 -10 -11 -10 -25z"/>
<path d="M5842 235 c0 -22 -3 -56 -7 -73 -13 -61 43 -83 97 -39 25 21 26 25
17 66 -5 24 -8 53 -7 65 3 18 -2 21 -49 22 l-52 1 1 -42z"/>
<path d="M5976 243 c-14 -88 -5 -113 49 -133 24 -9 26 -8 21 7 -4 9 -1 20 6
25 33 21 146 -1 130 -26 -22 -35 -12 -54 43 -86 37 -21 64 -30 82 -27 27 4 27
4 6 12 -19 6 -23 15 -23 46 0 22 -7 55 -14 74 -12 28 -20 35 -43 35 -35 0 -73
38 -52 51 20 12 -9 21 -54 16 -45 -4 -51 -10 -52 -45 0 -15 -5 -27 -12 -27 -7
0 -18 -9 -26 -19 -14 -19 -15 -19 -26 2 -14 26 -7 42 18 42 14 0 21 10 26 36
7 42 -6 64 -29 45 -10 -8 -16 -9 -21 -1 -12 20 -22 10 -29 -27z"/>
<path d="M5265 210 c-3 -5 -1 -10 5 -10 7 0 10 -6 7 -14 -3 -7 -1 -18 5 -24 6
-6 6 -22 -1 -47 -10 -37 2 -85 21 -85 4 0 7 -6 6 -12 -2 -10 46 -14 210 -16
116 -1 212 0 212 4 0 10 -28 34 -41 34 -10 0 -10 3 -1 12 10 10 17 10 32 0 11
-6 27 -12 36 -12 13 0 14 3 4 15 -7 8 -17 15 -23 15 -6 0 -18 7 -27 15 -9 8
-28 16 -42 17 -18 2 -24 7 -20 17 4 12 -3 13 -41 8 -26 -4 -67 -4 -90 -1 -39
6 -43 9 -39 29 5 29 -36 47 -50 21 -7 -12 -13 -13 -33 -4 -14 6 -25 15 -25 20
0 4 -13 8 -29 8 -17 0 -33 5 -36 10 -3 6 -12 10 -20 10 -8 0 -17 -4 -20 -10z"/>
<path d="M7778 83 c-10 -2 -18 -11 -18 -19 0 -17 -21 -19 -37 -3 -13 13 -43 5
-43 -11 0 -6 5 -8 10 -5 6 3 10 1 10 -5 0 -21 -25 -4 -28 18 -4 26 -22 19 -22
-8 0 -27 -18 -34 -40 -15 -14 13 -19 13 -23 3 -4 -10 -8 -10 -16 2 -9 13 -12
12 -25 -5 -9 -11 -16 -23 -16 -27 0 -5 67 -8 149 -8 166 0 180 5 152 54 -18
32 -26 36 -53 29z"/>
</g>
</svg>
